<svg xmlns="http://www.w3.org/2000/svg" width="225" height="225" viewBox="0 0 225 225" fill="none"><path d="M14.1953 4C16.9801 4 19.6508 5.10625 21.6199 7.07538C23.5891 9.04451 24.6953 11.7152 24.6953 14.5V74H7.19531C6.26704 74 5.37682 73.6311 4.72043 72.9749C4.06407 72.3186 3.69531 71.4282 3.69531 70.5V14.5C3.69531 11.7152 4.80156 9.04451 6.77069 7.07538C8.73983 5.10625 11.4105 4 14.1953 4Z" fill="#C2DDE7" stroke="#231F20" stroke-width="3.5" stroke-linecap="round" stroke-linejoin="round"></path><path d="M164.695 210.5C164.695 213.285 163.589 215.955 161.62 217.925C159.651 219.894 156.98 221 154.195 221H35.1953C32.4105 221 29.7398 219.894 27.7707 217.925C25.8016 215.955 24.6953 213.285 24.6953 210.5V14.5C24.6953 11.7152 23.5891 9.04451 21.6199 7.07538C19.6508 5.10625 16.9801 4 14.1953 4H154.195C156.98 4 159.651 5.10625 161.62 7.07538C163.589 9.04451 164.695 11.7152 164.695 14.5V210.5Z" fill="white" stroke="#231F20" stroke-width="3.5" stroke-linecap="round" stroke-linejoin="round"></path><path d="M140.195 133.5H49.1953V175.5H140.195V133.5Z" fill="#C2DDE7" stroke="#231F20" stroke-width="3.5" stroke-linecap="round" stroke-linejoin="round"></path><path d="M77.1953 175.5V133.5" stroke="#231F20" stroke-width="3.5" stroke-linecap="round" stroke-linejoin="round"></path><path d="M98.1953 175.5V133.5" stroke="#231F20" stroke-width="3.5" stroke-linecap="round" stroke-linejoin="round"></path><path d="M119.195 175.5V133.5" stroke="#231F20" stroke-width="3.5" stroke-linecap="round" stroke-linejoin="round"></path><path d="M49.1953 140.5H140.195" stroke="#231F20" stroke-width="3.5" stroke-linecap="round" stroke-linejoin="round"></path><path d="M143.695 63.5H45.6953V119.5H143.695V63.5Z" fill="#C2DDE7" stroke="#231F20" stroke-width="3.5" stroke-linecap="round" stroke-linejoin="round"></path><path d="M56.1953 74V112.5H133.195" stroke="#231F20" stroke-width="3.5" stroke-linecap="round" stroke-linejoin="round"></path><path d="M73.6953 91.5H66.6953V112.5H73.6953V91.5Z" fill="white" stroke="#231F20" stroke-width="3.5" stroke-linecap="round" stroke-linejoin="round"></path><path d="M108.695 84.5H101.695V112.5H108.695V84.5Z" fill="white" stroke="#231F20" stroke-width="3.5" stroke-linecap="round" stroke-linejoin="round"></path><path d="M91.1953 77.5H84.1953V112.5H91.1953V77.5Z" fill="white" stroke="#231F20" stroke-width="3.5" stroke-linecap="round" stroke-linejoin="round"></path><path d="M49.1953 21.5H63.1953" stroke="#231F20" stroke-width="3.5" stroke-linecap="round" stroke-linejoin="round"></path><path d="M126.195 21.5H140.195" stroke="#231F20" stroke-width="3.5" stroke-linecap="round" stroke-linejoin="round"></path><path d="M49.1953 28.5H73.6953" stroke="#231F20" stroke-width="3.5" stroke-linecap="round" stroke-linejoin="round"></path><path d="M49.1953 42.5H108.695" stroke="#231F20" stroke-width="3.5" stroke-linecap="round" stroke-linejoin="round"></path><path d="M49.1953 49.5H94.6953" stroke="#231F20" stroke-width="3.5" stroke-linecap="round" stroke-linejoin="round"></path><path d="M45.6953 105.5H38.6953C29.4128 105.5 20.5104 109.188 13.9466 115.751C7.38281 122.315 3.69531 131.217 3.69531 140.5C3.69531 149.783 7.38281 158.685 13.9466 165.249C20.5104 171.812 29.4128 175.5 38.6953 175.5H45.6953C54.978 175.5 63.8803 171.812 70.4442 165.249C77.0077 158.685 80.6953 149.783 80.6953 140.5C80.6953 131.217 77.0077 122.315 70.4442 115.751C63.8803 109.188 54.978 105.5 45.6953 105.5Z" fill="#C2DDE7" stroke="#231F20" stroke-width="3.5" stroke-linecap="round" stroke-linejoin="round"></path><path d="M3.69531 140.5H17.6953" stroke="#231F20" stroke-width="3.5" stroke-linecap="round" stroke-linejoin="round"></path><path d="M8.94531 123H22.9453" stroke="#231F20" stroke-width="3.5" stroke-linecap="round" stroke-linejoin="round"></path><path d="M8.94531 158H22.9453" stroke="#231F20" stroke-width="3.5" stroke-linecap="round" stroke-linejoin="round"></path><path d="M45.6953 175.5C65.0251 175.5 80.6953 159.83 80.6953 140.5C80.6953 121.17 65.0251 105.5 45.6953 105.5C26.3653 105.5 10.6953 121.17 10.6953 140.5C10.6953 159.83 26.3653 175.5 45.6953 175.5Z" fill="white" stroke="#231F20" stroke-width="3.5" stroke-linecap="round" stroke-linejoin="round"></path><path d="M45.6953 168.5C61.1594 168.5 73.6953 155.964 73.6953 140.5C73.6953 125.036 61.1594 112.5 45.6953 112.5C30.2313 112.5 17.6953 125.036 17.6953 140.5C17.6953 155.964 30.2313 168.5 45.6953 168.5Z" fill="#EA8D51" stroke="#231F20" stroke-width="3.5" stroke-linecap="round" stroke-linejoin="round"></path><path d="M45.6953 119.5C51.2649 119.5 56.6062 121.712 60.5444 125.651C64.483 129.589 66.6953 134.93 66.6953 140.5" stroke="white" stroke-width="3.5" stroke-linecap="round" stroke-linejoin="round"></path><path d="M45.6953 161.5C40.1258 161.5 34.7843 159.288 30.8461 155.349C26.9078 151.411 24.6953 146.07 24.6953 140.5" stroke="white" stroke-width="3.5" stroke-linecap="round" stroke-linejoin="round"></path><path d="M56.1953 135.25C56.1953 133.858 55.6423 132.522 54.6578 131.538C53.6732 130.553 52.3376 130 50.9453 130H40.4453C39.053 130 37.7174 130.553 36.7329 131.538C35.7483 132.522 35.1953 133.858 35.1953 135.25C35.1953 136.642 35.7483 137.978 36.7329 138.962C37.7174 139.947 39.053 140.5 40.4453 140.5H50.9453C52.3376 140.5 53.6732 141.053 54.6578 142.038C55.6423 143.022 56.1953 144.358 56.1953 145.75C56.1953 147.142 55.6423 148.478 54.6578 149.462C53.6732 150.447 52.3376 151 50.9453 151H40.4453C39.053 151 37.7174 150.447 36.7329 149.462C35.7483 148.478 35.1953 147.142 35.1953 145.75" stroke="white" stroke-width="3.5" stroke-linecap="round" stroke-linejoin="round"></path><path d="M45.6953 130V126.5" stroke="white" stroke-width="3.5" stroke-linecap="round" stroke-linejoin="round"></path><path d="M45.6953 154.5V151" stroke="white" stroke-width="3.5" stroke-linecap="round" stroke-linejoin="round"></path><path d="M213.695 32H129.695C125.829 32 122.695 35.134 122.695 39V116C122.695 119.866 125.829 123 129.695 123H213.695C217.561 123 220.695 119.866 220.695 116V39C220.695 35.134 217.561 32 213.695 32Z" fill="#C2DDE7" stroke="#231F20" stroke-width="3.5" stroke-linecap="round" stroke-linejoin="round"></path><path d="M129.695 32H213.695C215.552 32 217.332 32.7375 218.645 34.0503C219.958 35.363 220.695 37.1436 220.695 39V67H122.695V39C122.695 37.1436 123.433 35.363 124.746 34.0503C126.058 32.7375 127.839 32 129.695 32Z" fill="#C2DDE7" stroke="#231F20" stroke-width="3.5" stroke-linecap="round" stroke-linejoin="round"></path><path d="M213.695 32H136.695C132.829 32 129.695 35.134 129.695 39V116C129.695 119.866 132.829 123 136.695 123H213.695C217.561 123 220.695 119.866 220.695 116V39C220.695 35.134 217.561 32 213.695 32Z" fill="white" stroke="#231F20" stroke-width="3.5" stroke-linecap="round" stroke-linejoin="round"></path><path d="M136.695 32H213.695C215.552 32 217.332 32.7375 218.645 34.0503C219.958 35.363 220.695 37.1436 220.695 39V67H129.695V39C129.695 37.1436 130.433 35.363 131.746 34.0503C133.058 32.7375 134.839 32 136.695 32Z" fill="white" stroke="#231F20" stroke-width="3.5" stroke-linecap="round" stroke-linejoin="round"></path><path d="M185.695 67H220.695V116C220.695 117.856 219.958 119.637 218.645 120.95C217.332 122.263 215.552 123 213.695 123H185.695V67Z" fill="#EA8D51" stroke="#231F20" stroke-width="3.5" stroke-linecap="round" stroke-linejoin="round"></path><path d="M157.695 67H129.695V95H157.695V67Z" fill="#EA8D51" stroke="#231F20" stroke-width="3.5" stroke-linecap="round" stroke-linejoin="round"></path><path d="M185.695 67H157.695V95H185.695V67Z" fill="#EA8D51" stroke="#231F20" stroke-width="3.5" stroke-linecap="round" stroke-linejoin="round"></path><path d="M129.695 95H157.695V123H136.695C134.839 123 133.058 122.263 131.746 120.95C130.433 119.637 129.695 117.856 129.695 116V95Z" fill="#EA8D51" stroke="#231F20" stroke-width="3.5" stroke-linecap="round" stroke-linejoin="round"></path><path d="M185.695 95H157.695V123H185.695V95Z" fill="#EA8D51" stroke="#231F20" stroke-width="3.5" stroke-linecap="round" stroke-linejoin="round"></path><path d="M213.695 39H199.695V60H213.695V39Z" stroke="#231F20" stroke-width="3.5" stroke-linecap="round" stroke-linejoin="round"></path><path d="M185.695 39H171.695V60H185.695V39Z" stroke="#231F20" stroke-width="3.5" stroke-linecap="round" stroke-linejoin="round"></path><path d="M137.57 81H149.82" stroke="white" stroke-width="3.5" stroke-linecap="round" stroke-linejoin="round"></path><path d="M143.695 74.875V87.125" stroke="white" stroke-width="3.5" stroke-linecap="round" stroke-linejoin="round"></path><path d="M165.57 102.875L177.82 115.125" stroke="white" stroke-width="3.5" stroke-linecap="round" stroke-linejoin="round"></path><path d="M177.82 102.875L165.57 115.125" stroke="white" stroke-width="3.5" stroke-linecap="round" stroke-linejoin="round"></path><path d="M165.57 81H177.82" stroke="white" stroke-width="3.5" stroke-linecap="round" stroke-linejoin="round"></path><path d="M137.57 109H149.82" stroke="white" stroke-width="3.5" stroke-linecap="round" stroke-linejoin="round"></path><path d="M143.695 103.75C144.179 103.75 144.57 103.358 144.57 102.875C144.57 102.392 144.179 102 143.695 102C143.212 102 142.82 102.392 142.82 102.875C142.82 103.358 143.212 103.75 143.695 103.75Z" fill="white" stroke="white" stroke-width="3.5" stroke-linecap="round" stroke-linejoin="round"></path><path d="M192.695 60C193.179 60 193.57 59.6084 193.57 59.125C193.57 58.6417 193.179 58.25 192.695 58.25C192.212 58.25 191.82 58.6417 191.82 59.125C191.82 59.6084 192.212 60 192.695 60Z" fill="#231F20" stroke="#231F20" stroke-width="3.5" stroke-linecap="round" stroke-linejoin="round"></path><path d="M143.695 116C144.179 116 144.57 115.608 144.57 115.125C144.57 114.642 144.179 114.25 143.695 114.25C143.212 114.25 142.82 114.642 142.82 115.125C142.82 115.608 143.212 116 143.695 116Z" fill="white" stroke="white" stroke-width="3.5" stroke-linecap="round" stroke-linejoin="round"></path><path d="M196.195 90.625H210.195" stroke="white" stroke-width="3.5" stroke-linecap="round" stroke-linejoin="round"></path><path d="M210.195 99.375H196.195" stroke="white" stroke-width="3.5" stroke-linecap="round" stroke-linejoin="round"></path><path d="M185.695 210.5C185.695 213.285 184.589 215.955 182.62 217.925C180.651 219.894 177.98 221 175.195 221H35.1953C37.9799 221 40.6508 219.894 42.6199 217.925C44.589 215.955 45.6953 213.285 45.6953 210.5V165C45.6953 163.144 46.4328 161.363 47.7456 160.05C49.0585 158.737 50.8389 158 52.6953 158H192.695C190.839 158 189.058 158.737 187.746 160.05C186.433 161.363 185.695 163.144 185.695 165V210.5Z" fill="#C2DDE7" stroke="#231F20" stroke-width="3.5" stroke-linecap="round" stroke-linejoin="round"></path><path d="M199.695 200C199.695 201.856 200.433 203.637 201.746 204.95C203.058 206.263 204.839 207 206.695 207H66.6953C64.8389 207 63.0585 206.263 61.7456 204.95C60.4328 203.637 59.6953 201.856 59.6953 200V165C59.6953 163.144 58.9579 161.363 57.645 160.05C56.3322 158.737 54.5517 158 52.6953 158H192.695C194.552 158 196.332 158.737 197.645 160.05C198.958 161.363 199.695 163.144 199.695 165V200Z" fill="white" stroke="#231F20" stroke-width="3.5" stroke-linecap="round" stroke-linejoin="round"></path><path d="M213.695 200C213.695 201.856 212.958 203.637 211.645 204.95C210.332 206.263 208.552 207 206.695 207H66.6953C68.5517 207 70.3322 206.263 71.645 204.95C72.9579 203.637 73.6953 201.856 73.6953 200V189.5C73.6953 188.572 74.0642 187.681 74.7205 187.025C75.3767 186.369 76.2671 186 77.1953 186H217.195C216.736 186 216.28 186.09 215.856 186.266C215.431 186.442 215.045 186.7 214.72 187.025C214.395 187.35 214.137 187.736 213.962 188.161C213.786 188.585 213.695 189.04 213.695 189.5V200Z" fill="#C2DDE7" stroke="#231F20" stroke-width="3.5" stroke-linecap="round" stroke-linejoin="round"></path><path d="M217.195 196.5H84.1953C83.2671 196.5 82.3767 196.131 81.7205 195.475C81.0642 194.819 80.6953 193.928 80.6953 193V189.5C80.6953 188.572 80.3264 187.681 79.6702 187.025C79.0139 186.369 78.1235 186 77.1953 186H217.195C218.124 186 219.014 186.369 219.67 187.025C220.326 187.681 220.695 188.572 220.695 189.5V193C220.695 193.928 220.326 194.819 219.67 195.475C219.014 196.131 218.124 196.5 217.195 196.5Z" fill="white" stroke="#231F20" stroke-width="3.5" stroke-linecap="round" stroke-linejoin="round"></path><path d="M77.1953 167.625H185.695" stroke="#231F20" stroke-width="3.5" stroke-linecap="round" stroke-linejoin="round"></path><path d="M77.1953 176.375H161.195" stroke="#231F20" stroke-width="3.5" stroke-linecap="round" stroke-linejoin="round"></path></svg>