<svg xmlns="http://www.w3.org/2000/svg" width="224" height="224" viewBox="0 0 224 224" fill="none"><path d="M216.447 37.2036C215.543 35.3867 214.134 33.8686 212.39 32.8309C210.646 31.7931 208.64 31.2796 206.612 31.3516C175.609 32.7888 145.048 39.2695 116.13 50.5386C114.82 51.052 113.421 51.297 112.014 51.2591C110.608 51.2212 109.224 50.9012 107.944 50.3181C81.1665 38.6488 52.4079 32.1983 23.212 31.3131C21.4601 31.2824 19.7289 31.6954 18.1794 32.5135C16.63 33.3317 15.3126 34.5285 14.35 35.9926L5.25003 49.5936C4.10432 51.3208 3.49541 53.3485 3.50003 55.4211V178.544C3.50003 179.472 3.86877 180.363 4.52515 181.019C5.18153 181.675 6.07177 182.044 7.00003 182.044C58.7755 182.622 86.3625 195.995 95.0075 201.084C97.125 202.344 99.5435 203.013 102.008 203.02H122.78C124.841 203.014 126.875 202.545 128.73 201.648C156.481 189.047 186.555 182.372 217.032 182.048C217.955 182.04 218.838 181.668 219.488 181.013C220.139 180.357 220.504 179.471 220.504 178.548V47.8471C220.503 46.2324 220.131 44.6394 219.415 43.1921L216.447 37.2036Z" fill="#231F20" stroke="#231F20" stroke-width="3.5" stroke-linecap="round" stroke-linejoin="round"></path><path d="M21.3185 31.2781C20.1419 31.2607 18.9799 31.5403 17.9399 32.0908C16.9 32.6414 16.0156 33.4453 15.3685 34.4281L4.676 50.4756C3.9089 51.626 3.49969 52.9779 3.5 54.3606V175.041C3.5 175.969 3.86875 176.859 4.52513 177.515C5.1815 178.172 6.07174 178.541 7 178.541C58.7755 179.122 86.3625 192.495 95.0075 197.581C97.125 198.841 99.5435 199.513 102.007 199.523H122.78C124.841 199.518 126.875 199.049 128.73 198.151C156.481 185.551 186.555 178.875 217.031 178.551C217.955 178.544 218.838 178.172 219.488 177.516C220.139 176.861 220.504 175.975 220.503 175.051V47.0246C220.503 45.9502 220.255 44.8903 219.779 43.9271L215.456 35.1946C214.872 34.0071 213.964 33.0096 212.835 32.3176C211.707 31.6256 210.406 31.2676 209.083 31.2851C175.739 32.4944 142.872 39.5908 112 52.2466C83.5715 38.9938 52.6792 31.8482 21.3185 31.2781Z" fill="#C2DDE7" stroke="#231F20" stroke-width="3.5" stroke-linecap="round" stroke-linejoin="round"></path><path d="M112 185.505C82.2912 172.046 50.1133 164.895 17.5 164.505V34.7954C17.4999 34.3308 17.5924 33.8707 17.772 33.4421C17.9516 33.0136 18.2147 32.6251 18.5461 32.2993C18.8774 31.9735 19.2703 31.7169 19.7018 31.5446C20.1334 31.3722 20.5949 31.2875 21.0595 31.2954C52.4635 32.1619 83.3796 39.2809 112 52.2359V185.505Z" fill="white" stroke="#231F20" stroke-width="3.5" stroke-linecap="round" stroke-linejoin="round"></path><path d="M98 64.1573C76.6322 56.1756 54.2447 51.2504 31.5 49.5273V91.5273C54.2447 93.2504 76.6322 98.1756 98 106.157V64.1573Z" fill="#C2DDE7" stroke="#C2DDE7" stroke-width="3.5" stroke-linecap="round" stroke-linejoin="round"></path><path d="M112 185.506C144.148 171.979 178.624 164.846 213.5 164.506V34.7887C213.5 34.3235 213.407 33.863 213.228 33.4337C213.048 33.0044 212.786 32.6149 212.455 32.2876C212.125 31.9603 211.733 31.7016 211.302 31.5266C210.871 31.3515 210.409 31.2636 209.944 31.2677C176.271 32.062 143.046 39.1761 112 52.2397V185.506Z" fill="white" stroke="#231F20" stroke-width="3.5" stroke-linecap="round" stroke-linejoin="round"></path><path d="M101.5 199.508C102.552 199.509 103.583 199.216 104.477 198.664C105.372 198.111 106.095 197.32 106.565 196.379L112 185.508L117.436 196.379C117.905 197.32 118.628 198.111 119.523 198.664C120.417 199.216 121.448 199.509 122.5 199.508H101.5Z" fill="#231F20" stroke="#231F20" stroke-width="3.5" stroke-linecap="round" stroke-linejoin="round"></path><path d="M203 72.5918C175.491 74.0457 148.355 79.6191 122.5 89.1258" stroke="#231F20" stroke-width="3.5" stroke-linecap="round" stroke-linejoin="round"></path><path d="M203 96.124C175.491 97.5762 148.356 103.147 122.5 112.651" stroke="#231F20" stroke-width="3.5" stroke-linecap="round" stroke-linejoin="round"></path><path d="M203 119.649C175.491 121.101 148.355 126.673 122.5 136.18" stroke="#231F20" stroke-width="3.5" stroke-linecap="round" stroke-linejoin="round"></path><path d="M203 143.183C175.491 144.634 148.356 150.204 122.5 159.706" stroke="#231F20" stroke-width="3.5" stroke-linecap="round" stroke-linejoin="round"></path><path d="M203 49.0684C175.491 50.5194 148.356 56.0892 122.5 65.5919" stroke="#231F20" stroke-width="3.5" stroke-linecap="round" stroke-linejoin="round"></path><path d="M31.5 111.306C54.2608 113.035 76.6629 117.972 98.042 125.971" stroke="#C2DDE7" stroke-width="3.5" stroke-linecap="round" stroke-linejoin="round"></path><path d="M31.5 143.72C54.2619 145.449 76.6653 150.386 98.0455 158.385" stroke="#C2DDE7" stroke-width="3.5" stroke-linecap="round" stroke-linejoin="round"></path><path d="M31.5 127.518C54.2457 129.245 76.6334 134.176 98 142.165" stroke="#C2DDE7" stroke-width="3.5" stroke-linecap="round" stroke-linejoin="round"></path><path d="M112 185.506C112 185.506 128.951 154.993 192.882 147.356C193.735 147.262 194.524 146.858 195.099 146.221C195.674 145.583 195.995 144.756 196 143.898V24.5478C196.002 24.0613 195.904 23.5796 195.711 23.1329C195.519 22.6861 195.236 22.2839 194.881 21.9514C194.526 21.619 194.106 21.3634 193.647 21.2007C193.189 21.0379 192.702 20.9716 192.216 21.0058C138.736 25.5033 112 52.2398 112 52.2398V185.506Z" fill="white" stroke="#231F20" stroke-width="3.5" stroke-linecap="round" stroke-linejoin="round"></path><path d="M182 44.9023C156.194 49.0708 137.55 56.2598 126 65.0343" stroke="#C2DDE7" stroke-width="3.5" stroke-linecap="round" stroke-linejoin="round"></path><path d="M182 84.3223C156.194 88.4523 137.55 95.1723 126 103.863" stroke="#C2DDE7" stroke-width="3.5" stroke-linecap="round" stroke-linejoin="round"></path><path d="M182 103.422C156.194 107.622 137.55 115.108 126 123.939" stroke="#C2DDE7" stroke-width="3.5" stroke-linecap="round" stroke-linejoin="round"></path><path d="M182 125.345C156.194 129.608 137.55 137.861 126 146.845" stroke="#C2DDE7" stroke-width="3.5" stroke-linecap="round" stroke-linejoin="round"></path><path d="M182 64.9834C156.194 69.1029 137.55 75.7284 126 84.3944" stroke="#C2DDE7" stroke-width="3.5" stroke-linecap="round" stroke-linejoin="round"></path><path d="M17.5 164.508L3.5 178.543" stroke="#231F20" stroke-width="3.5" stroke-linecap="round" stroke-linejoin="round"></path><path d="M213.5 164.508L219.037 177.871" stroke="#231F20" stroke-width="3.5" stroke-linecap="round" stroke-linejoin="round"></path><path d="M93.8547 97.2441C75.9375 91.1228 57.3868 87.0428 38.5547 85.0816V57.3301" stroke="white" stroke-width="3.5" stroke-linecap="round" stroke-linejoin="round"></path><path d="M73.5 91.2499V63.2499C70.0191 62.3462 66.5182 61.5211 63 60.7754V88.8454C66.5156 89.5759 70.0163 90.3764 73.5 91.2464V91.2499Z" stroke="white" stroke-width="3.5" stroke-linecap="round" stroke-linejoin="round"></path><path d="M56 87.5046V73.5046C52.5135 72.8761 49.0125 72.3311 45.5 71.8701V85.8876C49.0115 86.3491 52.5124 86.8882 56 87.5046Z" stroke="white" stroke-width="3.5" stroke-linecap="round" stroke-linejoin="round"></path><path d="M91 96.2963V73.3083C87.85 72.2338 84.315 71.1138 80.5 70.0078V93.1078C84.273 94.1578 87.7835 95.2463 91 96.2963Z" stroke="white" stroke-width="3.5" stroke-linecap="round" stroke-linejoin="round"></path><path d="M87.5 168.839L94.5 166.116L101.5 171.499V45.4987L87.5 40.1787V168.839Z" fill="#FFA336" stroke="#FFA336" stroke-width="3.5" stroke-linecap="round" stroke-linejoin="round"></path></svg>