<svg width="332" height="332" viewBox="0 0 332 332" fill="none" xmlns="http://www.w3.org/2000/svg">
<path d="M174.328 297.915C248.96 297.915 309.461 237.414 309.461 162.782C309.461 88.1505 248.96 27.6494 174.328 27.6494C99.6963 27.6494 39.1953 88.1505 39.1953 162.782C39.1953 237.414 99.6963 297.915 174.328 297.915Z" fill="url(#paint0_linear_7471_2985)"/>
<path d="M290.643 262.594C285.96 262.594 281.38 261.204 277.485 258.603C273.591 256 270.555 252.302 268.762 247.975C266.971 243.648 266.502 238.885 267.416 234.292C268.328 229.697 270.586 225.476 273.897 222.165C277.208 218.853 281.429 216.598 286.024 215.684C290.616 214.77 295.379 215.239 299.707 217.031C304.034 218.824 307.732 221.86 310.335 225.753C312.936 229.648 314.326 234.228 314.326 238.911C314.317 245.19 311.818 251.209 307.38 255.648C302.94 260.086 296.922 262.585 290.643 262.594ZM290.643 216.543C286.221 216.543 281.9 217.854 278.224 220.311C274.548 222.767 271.681 226.258 269.99 230.343C268.297 234.427 267.854 238.922 268.718 243.258C269.581 247.596 271.71 251.578 274.835 254.706C277.963 257.831 281.945 259.96 286.283 260.823C290.619 261.686 295.114 261.244 299.197 259.551C303.283 257.86 306.774 254.993 309.231 251.317C311.687 247.641 312.998 243.32 312.998 238.898C312.989 232.973 310.632 227.291 306.44 223.101C302.25 218.91 296.568 216.552 290.643 216.543Z" fill="#D4DCFF"/>
<path d="M137.105 304.814C137.062 304.818 137.02 304.818 136.978 304.814C136.874 304.794 136.777 304.749 136.693 304.683C136.61 304.617 136.544 304.533 136.5 304.435L125.13 279.455C125.073 279.329 125.056 279.19 125.082 279.055C125.108 278.92 125.175 278.796 125.275 278.701C125.374 278.606 125.501 278.544 125.637 278.524C125.774 278.502 125.913 278.526 126.036 278.588L150.469 291.095C150.563 291.144 150.644 291.215 150.706 291.301C150.767 291.388 150.807 291.487 150.823 291.591C150.838 291.695 150.828 291.804 150.793 291.903C150.758 292.003 150.7 292.094 150.624 292.167L137.565 304.641C137.439 304.756 137.275 304.818 137.105 304.814ZM127.127 280.624L137.321 303.019L149.032 291.835L127.127 280.624Z" fill="#00A6FB"/>
<path d="M305.218 237.929L304.111 237.911L304.131 236.583L305.238 236.601L305.218 237.929ZM297.471 237.809L296.364 237.794L296.387 236.466L297.493 236.481L297.471 237.809ZM289.724 237.692L288.618 237.674L288.638 236.346L289.744 236.364L289.724 237.692ZM281.978 237.573L280.871 237.555L280.893 236.227L282 236.245L281.978 237.573ZM274.231 237.453L273.124 237.438L273.144 236.11L274.251 236.125L274.231 237.453ZM266.484 237.336L265.378 237.318L265.398 235.99L266.504 236.008L266.484 237.336ZM258.738 237.216L257.631 237.198L257.651 235.87L258.758 235.888L258.738 237.216ZM250.991 237.097L249.884 237.081L249.904 235.753L251.011 235.769L250.991 237.097ZM243.244 236.979L242.138 236.962L242.16 235.634L243.267 235.651L243.244 236.979ZM235.498 236.86L234.391 236.842L234.411 235.514L235.518 235.532L235.498 236.86ZM227.751 236.74L226.644 236.723L226.664 235.395L227.771 235.412L227.751 236.74ZM220.004 236.621L218.898 236.605L218.918 235.277L220.024 235.293L220.004 236.621ZM212.258 236.503L211.151 236.486L211.171 235.158L212.278 235.175L212.258 236.503ZM204.511 236.384L203.404 236.366L203.427 235.038L204.533 235.056L204.511 236.384ZM196.764 236.264L195.658 236.249L195.678 234.921L196.784 234.936L196.764 236.264ZM189.018 236.147L187.911 236.129L187.931 234.801L189.038 234.819L189.018 236.147ZM181.271 236.028L180.164 236.01L180.184 234.682L181.291 234.7L181.271 236.028ZM173.524 235.908L172.418 235.893L172.438 234.565L173.544 234.58L173.524 235.908ZM165.778 235.791L164.671 235.773L164.691 234.445L165.798 234.463L165.778 235.791ZM158.031 235.671L156.924 235.654L156.944 234.326L158.051 234.343L158.031 235.671ZM150.284 235.552L149.178 235.536L149.2 234.208L150.307 234.224L150.284 235.552ZM142.538 235.434L141.431 235.417L141.451 234.089L142.558 234.106L142.538 235.434ZM134.791 235.315L133.684 235.297L133.704 233.969L134.811 233.987L134.791 235.315ZM127.044 235.195L125.938 235.18L125.958 233.852L127.064 233.867L127.044 235.195ZM119.298 235.078L118.191 235.06L118.211 233.732L119.318 233.75L119.298 235.078ZM111.551 234.959L110.444 234.941L110.467 233.613L111.573 233.631L111.551 234.959ZM103.804 234.839L102.698 234.824L102.718 233.496L103.824 233.511L103.804 234.839ZM96.0577 234.722L94.951 234.704L94.971 233.376L96.0776 233.394L96.0577 234.722ZM88.3111 234.602L87.2044 234.585L87.2243 233.257L88.331 233.274L88.3111 234.602ZM80.5644 234.483L79.4577 234.467L79.4776 233.139L80.5843 233.155L80.5644 234.483ZM72.8177 234.365L71.711 234.348L71.7332 233.02L72.8398 233.037L72.8177 234.365ZM65.071 234.246L63.9644 234.228L63.9843 232.9L65.091 232.918L65.071 234.246ZM57.3244 234.126L56.2177 234.111L56.2398 232.783L57.3465 232.798L57.3244 234.126ZM49.5777 234.009L48.471 233.991L48.491 232.663L49.5976 232.681L49.5777 234.009ZM41.831 233.89L40.7244 233.872L40.7443 232.544L41.851 232.562L41.831 233.89ZM34.0844 233.77L32.9777 233.755L32.9976 232.427L34.1043 232.442L34.0844 233.77ZM26.3377 233.653L25.231 233.635L25.251 232.307L26.3576 232.325L26.3377 233.653ZM18.591 233.533L17.4844 233.515L17.5065 232.188L18.6132 232.205L18.591 233.533Z" fill="#00A6FB"/>
<path d="M26.7811 250.775L26.5898 252.09L285.776 289.81L285.969 288.495L26.7811 250.775Z" fill="#00A6FB"/>
<path d="M217.547 78.7779C226.442 66.7914 226.508 51.772 217.695 45.2309C208.881 38.6901 194.525 43.1043 185.629 55.0909C176.734 67.0774 176.668 82.0968 185.481 88.6377C194.295 95.1787 208.652 90.7642 217.547 78.7779Z" fill="#D4DCFF"/>
<path d="M195.055 92.3223C191.403 92.3223 187.973 91.3108 185.095 89.1794C176.001 82.4309 176.005 66.9641 185.106 54.7045C194.208 42.4448 209.01 37.9606 218.1 44.7091C222.538 48.0025 224.962 53.4252 224.935 59.9811C224.906 66.4573 222.476 73.2788 218.089 79.1884C211.861 87.5747 202.966 92.3223 195.055 92.3223ZM208.114 42.8831C200.628 42.8831 192.142 47.4536 186.173 55.4991C177.508 67.17 177.38 81.8023 185.885 88.1147C188.541 90.078 191.704 91.0098 195.082 91.0098C202.567 91.0098 211.053 86.4393 217.023 78.3938C221.241 72.7099 223.581 66.1673 223.607 59.9722C223.636 53.8523 221.394 48.8104 217.31 45.7759C214.663 43.8127 211.489 42.8831 208.112 42.8831H208.114Z" fill="#00A6FB"/>
<path d="M190.654 88.2547C187.837 88.2547 185.298 87.4756 183.213 85.9263C179.539 83.1994 177.742 78.4385 178.151 72.5201C178.556 66.7101 181.046 60.4552 185.167 54.9042C189.288 49.3531 194.554 45.1655 199.997 43.0872C205.543 40.9801 210.621 41.3165 214.295 44.05C217.969 46.7835 219.768 51.5399 219.357 57.4561C218.954 63.2661 216.464 69.5232 212.343 75.0743C208.221 80.6253 202.956 84.8129 197.513 86.8891C195.328 87.7558 193.004 88.2184 190.654 88.2547ZM206.838 43.0518C200.216 43.0518 192.141 47.733 186.232 55.6943C182.261 61.044 179.862 67.0532 179.477 72.6108C179.098 78.0623 180.705 82.4115 184.005 84.8616C190.909 89.9855 203.144 85.2401 211.276 74.2819C215.246 68.9323 217.646 62.9253 218.033 57.3654C218.412 51.914 216.814 47.5603 213.505 45.1257C211.617 43.7158 209.33 43.0518 206.838 43.0518Z" fill="#00A6FB"/>
<path d="M193.33 86.8398L192.684 87.9999L199.384 91.7353L200.031 90.5755L193.33 86.8398Z" fill="#00A6FB"/>
<path d="M205.295 82.0801L204.645 83.2354L211.319 86.9946L211.969 85.8392L205.295 82.0801Z" fill="#00A6FB"/>
<path d="M216.155 66.9648L215.508 68.1249L222.208 71.8603L222.855 70.7005L216.155 66.9648Z" fill="#00A6FB"/>
<path d="M218.877 58.3271L218.23 59.4872L224.008 62.7076L224.654 61.5475L218.877 58.3271Z" fill="#00A6FB"/>
<path d="M199.708 48.1045L198.523 48.705L207.398 66.2047L208.582 65.604L199.708 48.1045Z" fill="white"/>
<path d="M199.155 67.6045L197.957 68.1769L202.135 76.9248L203.333 76.3525L199.155 67.6045Z" fill="white"/>
<path d="M189.866 65.5918L188.668 66.1642L193.424 76.1224L194.623 75.55L189.866 65.5918Z" fill="white"/>
<path d="M229.191 83.7151L266.745 76.6523C266.745 76.6523 266.745 96.7494 282.601 118.553L246.717 133.4C246.717 133.4 230.581 116.709 229.191 83.7151Z" fill="white"/>
<path d="M246.717 134.064C246.629 134.064 246.54 134.046 246.458 134.011C246.376 133.976 246.301 133.925 246.239 133.86C246.073 133.688 242.089 129.522 237.884 121.231C234.015 113.602 229.252 100.906 228.528 83.7439C228.521 83.5841 228.572 83.427 228.672 83.3017C228.771 83.1764 228.913 83.0914 229.07 83.0622L266.624 75.9995C266.719 75.9818 266.819 75.9851 266.912 76.0094C267.007 76.034 267.093 76.0787 267.168 76.1409C267.244 76.2029 267.306 76.2808 267.345 76.3689C267.387 76.4567 267.41 76.5528 267.41 76.6502C267.41 76.7011 267.436 81.7187 269.384 89.3105C271.181 96.3134 275.026 107.004 283.14 118.161C283.199 118.242 283.239 118.336 283.257 118.435C283.275 118.534 283.27 118.636 283.242 118.733C283.215 118.829 283.166 118.919 283.1 118.994C283.031 119.069 282.949 119.128 282.856 119.166L246.972 134.013C246.892 134.047 246.806 134.065 246.717 134.064ZM229.88 84.264C230.675 100.897 235.303 113.206 239.068 120.631C242.529 127.457 245.889 131.477 246.894 132.61L281.573 118.261C273.656 107.161 269.871 96.5702 268.085 89.5915C266.535 83.5381 266.186 79.1667 266.106 77.4492L229.88 84.264Z" fill="#00A6FB"/>
<path d="M259.359 85.4814L239.609 90.0701L239.908 91.3638L259.66 86.7749L259.359 85.4814Z" fill="#00A6FB"/>
<path d="M257.959 92.9805L244.883 96.3182L245.213 97.605L258.287 94.2673L257.959 92.9805Z" fill="#00A6FB"/>
<path d="M265.715 102.189L243.184 109.143L243.573 110.412L266.107 103.458L265.715 102.189Z" fill="#00A6FB"/>
<path d="M264.575 109.708L252.891 113.88L253.338 115.13L265.022 110.959L264.575 109.708Z" fill="#00A6FB"/>
<path d="M274.514 117.835C275.957 117.093 276.334 114.952 275.355 113.055C274.377 111.158 272.416 110.222 270.975 110.965C269.532 111.708 269.156 113.848 270.134 115.746C271.112 117.643 273.073 118.578 274.514 117.835Z" fill="#00A6FB"/>
<path d="M273.44 118.781C272.893 118.774 272.355 118.646 271.864 118.405C270.866 117.888 270.053 117.074 269.538 116.076C269.024 115.077 268.829 113.944 268.987 112.831C269.181 111.725 269.777 110.857 270.664 110.397C271.552 109.936 272.599 109.954 273.617 110.443C274.622 110.949 275.436 111.767 275.939 112.774C276.468 113.767 276.66 114.905 276.488 116.016C276.293 117.123 275.697 117.993 274.81 118.451C274.387 118.669 273.916 118.782 273.44 118.781ZM272.048 111.399C271.78 111.397 271.516 111.459 271.277 111.581C271.01 111.734 270.784 111.948 270.613 112.205C270.445 112.463 270.337 112.756 270.301 113.062C270.195 113.887 270.343 114.725 270.724 115.465C271.105 116.205 271.702 116.811 272.435 117.205C272.701 117.367 273.002 117.459 273.314 117.47C273.624 117.481 273.933 117.413 274.208 117.27C274.485 117.128 274.721 116.917 274.892 116.657C275.062 116.398 275.164 116.098 275.186 115.788C275.31 114.963 275.162 114.119 274.763 113.385C274.396 112.635 273.796 112.024 273.052 111.645C272.74 111.489 272.397 111.405 272.048 111.399Z" fill="#00A6FB"/>
<path d="M271.848 115.133L275.805 130.217L277.164 123.415L283.348 127.001L274.074 114.425L271.848 115.133Z" fill="#00A6FB"/>
<path d="M275.804 130.881C275.658 130.881 275.514 130.832 275.399 130.742C275.282 130.653 275.2 130.527 275.162 130.385L271.205 115.301C271.163 115.136 271.183 114.961 271.267 114.812C271.349 114.663 271.486 114.551 271.648 114.5L273.861 113.792C273.994 113.75 274.135 113.75 274.266 113.793C274.399 113.836 274.514 113.919 274.596 114.031L283.87 126.607C283.96 126.73 284.007 126.88 284 127.033C283.994 127.186 283.934 127.332 283.832 127.446C283.73 127.56 283.591 127.635 283.44 127.659C283.29 127.682 283.135 127.653 283.002 127.576L277.621 124.456L276.455 130.339C276.426 130.486 276.347 130.618 276.234 130.715C276.119 130.812 275.975 130.867 275.824 130.872L275.804 130.881ZM272.65 115.573L275.718 127.267L276.513 123.283C276.532 123.179 276.579 123.082 276.643 122.999C276.709 122.916 276.794 122.85 276.891 122.807C276.986 122.763 277.092 122.743 277.199 122.749C277.303 122.754 277.407 122.785 277.497 122.838L280.917 124.83L273.821 115.206L272.65 115.573Z" fill="#00A6FB"/>
<path d="M166.937 68.7428L123.444 50.2543C121.722 49.5222 119.732 50.325 119 52.0471L105.306 84.2613C104.574 85.9835 105.377 87.9733 107.099 88.7055L150.592 107.194C152.314 107.926 154.304 107.123 155.036 105.401L168.73 73.1869C169.462 71.4645 168.659 69.4749 166.937 68.7428Z" fill="white"/>
<path d="M151.911 108.126C151.369 108.125 150.832 108.016 150.333 107.803L106.839 89.3146C105.851 88.8932 105.071 88.0975 104.669 87.1015C104.268 86.1057 104.277 84.9913 104.696 84.0026L118.39 51.7876C118.812 50.8002 119.608 50.0204 120.604 49.6187C121.599 49.2172 122.714 49.2265 123.702 49.645L167.194 68.133C168.181 68.5553 168.961 69.351 169.363 70.3466C169.765 71.3419 169.756 72.4559 169.339 73.445L155.647 105.66C155.335 106.392 154.814 107.016 154.15 107.454C153.486 107.893 152.707 108.126 151.911 108.126ZM150.853 106.576C151.518 106.859 152.267 106.865 152.937 106.595C153.606 106.325 154.141 105.8 154.423 105.136L168.122 72.9249C168.402 72.2598 168.407 71.511 168.137 70.8417C167.867 70.1726 167.344 69.6372 166.681 69.3526L123.191 50.8646C122.526 50.5846 121.777 50.5789 121.108 50.8489C120.439 51.1187 119.903 51.6424 119.619 52.3055L105.927 84.5228C105.645 85.1876 105.638 85.9373 105.908 86.6073C106.178 87.277 106.703 87.8122 107.368 88.0951L150.853 106.576Z" fill="#D4DCFF"/>
<path d="M149.086 100.459L112.411 84.8657C112.249 84.7973 112.121 84.6676 112.055 84.5049C112.021 84.4244 112.004 84.3378 112.004 84.2504C112.004 84.163 112.021 84.0767 112.055 83.9959L123.048 58.1309L124.272 58.651L113.54 83.9051L149.604 99.2347L149.086 100.459Z" fill="#D4DCFF"/>
<path d="M112.949 84.8567L112.387 83.6526L134.088 73.52C134.234 73.4518 134.399 73.4385 134.553 73.4826C134.707 73.5264 134.84 73.6246 134.927 73.759L140.746 82.6987L157.663 74.6333L158.234 75.8307L140.795 84.1462C140.649 84.2159 140.484 84.2301 140.329 84.1865C140.174 84.1431 140.039 84.0446 139.952 83.9093L134.128 74.9675L112.949 84.8567Z" fill="#D4DCFF"/>
<path d="M152.871 73.0732L161.866 73.403L156.651 80.3219L152.871 73.0732Z" fill="#D4DCFF"/>
<path d="M156.652 80.9814H156.599C156.487 80.9726 156.379 80.9354 156.286 80.8734C156.192 80.8115 156.116 80.7269 156.064 80.6273L152.283 73.3764C152.229 73.2733 152.203 73.1575 152.208 73.0409C152.212 72.9243 152.247 72.8111 152.31 72.7124C152.372 72.6144 152.459 72.5343 152.562 72.4803C152.665 72.4263 152.78 72.4004 152.896 72.4048L161.889 72.7346C162.01 72.739 162.128 72.7766 162.23 72.843C162.331 72.9096 162.412 73.0028 162.464 73.1122C162.517 73.2217 162.538 73.3435 162.526 73.4643C162.514 73.5849 162.469 73.7 162.396 73.797L157.184 80.7181C157.122 80.8002 157.041 80.8666 156.949 80.9124C156.857 80.958 156.755 80.9817 156.652 80.9814ZM153.996 73.7726L156.765 79.0846L160.579 74.0205L153.996 73.7726Z" fill="#00A6FB"/>
<path d="M149.495 251.851C149.495 251.851 146.397 237.936 146.282 225.973C146.186 215.552 143.995 208.835 135.806 201.27C132.934 198.605 130.414 195.586 128.307 192.283C126.696 189.767 124.753 186.836 122.995 184.479C121.786 182.861 120.817 181.076 120.118 179.181C118.549 174.898 114.846 166.215 111.09 163.318C111.09 163.318 109.098 162.875 107.836 163.22C106.021 163.705 104.516 166.08 104.516 166.08C103.879 171.064 107.697 180.36 109.359 184.566C109.569 185.107 109.732 185.665 109.846 186.234C111.125 192.56 115.6 202.936 115.6 202.936C115.6 202.936 103.427 192.091 87.024 186.321L85.3153 182.779C85.3153 182.779 84.7775 177.166 82.9094 172.441C82.9094 172.441 82.075 161.66 77.0552 159.296C77.0552 159.296 73.682 147.924 65.5348 147.924L66.274 160.921C66.274 160.921 63.618 152.355 58.5938 153.24C58.5938 153.24 59.4282 167.153 58.6668 173.913C58.621 174.315 58.6373 174.722 58.7155 175.119C59.1936 177.554 60.9509 186.821 61.4312 193.209C61.4837 193.918 61.6973 194.605 62.0558 195.219C62.4146 195.833 62.9089 196.356 63.5007 196.75C67.892 199.66 78.7993 207.25 87.0971 216.006C97.7211 227.23 115.749 232.695 118.998 251.862L149.495 251.851Z" fill="#D4DCFF"/>
<path d="M91.4308 210.342C87.6106 205.014 77.7082 197.374 73.6179 194.337C72.5135 193.521 71.7715 192.306 71.5507 190.951C70.2603 183.036 67.4693 175.878 66.6459 173.873C66.4527 173.405 66.3383 172.908 66.3073 172.403V172.372L66.0859 155.652L67.4139 155.635L67.6353 172.337C67.6581 172.691 67.738 173.039 67.8721 173.368C68.711 175.406 71.5484 182.682 72.8632 190.736C73.0281 191.752 73.5843 192.662 74.4125 193.272C78.547 196.347 88.5778 204.089 92.5131 209.567L91.4308 210.342Z" fill="white"/>
<path d="M115.161 203.436C115.043 203.332 103.381 193.033 87.817 187.314C87.4091 187.165 87.0348 186.936 86.7154 186.642C86.3961 186.348 86.1378 185.993 85.9556 185.599C84.5236 182.536 80.8384 174.902 77.5671 170.161C77.4845 170.042 77.4434 169.899 77.4498 169.754C77.5693 167.118 76.4095 159.475 76.3984 159.397L77.7109 159.198C77.7596 159.508 78.842 166.659 78.7844 169.588C82.0801 174.422 85.7298 181.982 87.1597 185.037C87.267 185.273 87.4202 185.486 87.6101 185.663C87.8 185.84 88.0231 185.978 88.2663 186.068C104.076 191.887 115.915 202.338 116.035 202.447L115.161 203.436Z" fill="#00A6FB"/>
<path d="M116.895 182.158L113.203 183.488L113.653 184.737L117.345 183.408L116.895 182.158Z" fill="white"/>
<path d="M66.1813 159.298C66.1813 159.298 71.1126 157.942 69.6164 148.973C69.6164 148.973 67.6753 147.709 65.4531 147.926L66.1813 159.298Z" fill="white"/>
<path d="M58.9722 163.941C58.9722 163.941 64.1249 163.096 62.6287 154.659C62.6287 154.659 60.9576 152.651 58.5938 152.948L58.9722 163.941Z" fill="white"/>
<path d="M61.0567 174.951L60.4414 173.774C60.6627 173.661 62.606 172.667 63.9119 172.667V173.995C63.0797 173.993 61.5326 174.703 61.0567 174.951Z" fill="white"/>
<path d="M64.9981 194.813L64.3828 193.64C64.6041 193.525 66.5475 192.533 67.8533 192.533V193.861C67.0233 193.861 65.474 194.563 64.9981 194.813Z" fill="white"/>
<path d="M69.6951 172.662L69.082 171.485C69.3034 171.372 71.2445 170.378 72.5503 170.378V171.706C71.7181 171.704 70.2064 172.392 69.6951 172.662Z" fill="white"/>
<path d="M75.7799 191.991L75.1602 190.814C75.3815 190.701 77.3248 189.707 78.6307 189.707V191.035C77.8029 191.033 76.2912 191.726 75.7799 191.991Z" fill="white"/>
<path d="M112.32 244.56L115.275 256.771L152.742 259.363L152.818 245.251C152.818 245.251 144.217 230.381 112.32 244.56Z" fill="#00A6FB"/>
<path d="M122.247 253.4H117.898C117.494 253.4 117.105 253.239 116.819 252.953C116.533 252.668 116.372 252.28 116.371 251.875V247.526C116.372 247.121 116.533 246.734 116.819 246.446C117.105 246.161 117.493 245.999 117.898 245.999H122.247C122.652 246.001 123.039 246.161 123.325 246.448C123.611 246.734 123.772 247.121 123.772 247.526V251.875C123.772 252.28 123.611 252.668 123.325 252.953C123.039 253.239 122.652 253.4 122.247 253.4ZM117.898 247.327C117.846 247.327 117.795 247.349 117.758 247.387C117.721 247.422 117.7 247.473 117.699 247.526V251.875C117.7 251.929 117.721 251.977 117.758 252.015C117.796 252.053 117.846 252.072 117.898 252.072H122.247C122.3 252.072 122.349 252.05 122.386 252.015C122.423 251.977 122.444 251.929 122.444 251.875V247.526C122.444 247.473 122.423 247.424 122.386 247.387C122.35 247.349 122.3 247.329 122.247 247.327H117.898Z" fill="white"/>
<path d="M39.8593 162.782H38.5312C38.5312 162.412 38.5312 162.041 38.5312 161.675L39.8593 161.686C39.8615 162.047 39.8593 162.415 39.8593 162.782ZM308.697 157.563C308.684 157.196 308.669 156.828 308.651 156.456L309.979 156.394L310.025 157.501L308.697 157.563ZM40.0762 155.08L38.7482 155.007L38.8146 153.9L40.1426 153.986L40.0762 155.08ZM308.186 149.874C308.151 149.509 308.115 149.144 308.078 148.767L309.406 148.63C309.445 149 309.481 149.367 309.516 149.737L308.186 149.874ZM40.7291 147.404L39.4011 147.253C39.4431 146.884 39.4874 146.516 39.5317 146.147L40.8597 146.308C40.8132 146.673 40.7711 147.039 40.7291 147.404ZM307.237 142.227C307.181 141.864 307.124 141.503 307.064 141.14L308.376 140.919C308.434 141.284 308.494 141.651 308.549 142.025L307.237 142.227ZM41.8203 139.777L40.5122 139.555C40.5742 139.188 40.6383 138.825 40.7047 138.449L42.0106 138.686C41.9464 139.053 41.8822 139.414 41.8203 139.777ZM305.849 134.648C305.774 134.29 305.701 133.931 305.627 133.573L306.924 133.285C307.004 133.648 307.082 134.009 307.159 134.372L305.849 134.648ZM43.3475 132.214L42.0527 131.913C42.1368 131.551 42.2224 131.191 42.3094 130.833L43.602 131.142C43.5113 131.508 43.4294 131.866 43.3475 132.223V132.214ZM304.021 127.163C303.923 126.807 303.824 126.455 303.724 126.1L305.003 125.74C305.103 126.095 305.203 126.452 305.3 126.811L304.021 127.163ZM45.3063 124.772L44.0336 124.396C44.1376 124.042 44.2439 123.686 44.3523 123.332L45.6228 123.717C45.5165 124.069 45.4103 124.418 45.3063 124.772ZM301.778 119.792C301.661 119.444 301.542 119.097 301.422 118.75L302.677 118.307C302.799 118.657 302.918 119.009 303.038 119.359L301.778 119.792ZM47.6989 117.431L46.4483 116.988C46.5738 116.638 46.7013 116.289 46.8313 115.939L48.0774 116.397C47.949 116.736 47.825 117.083 47.6989 117.431ZM299.107 112.562C298.97 112.221 298.83 111.881 298.691 111.541L299.919 111.034C300.068 111.378 300.207 111.721 300.34 112.064L299.107 112.562ZM50.5142 110.238L49.2903 109.717C49.4363 109.377 49.5824 109.033 49.7329 108.693L50.9525 109.222C50.802 109.56 50.6581 109.899 50.5142 110.238ZM296.028 105.517C295.88 105.185 295.723 104.854 295.557 104.525L296.754 103.949C296.914 104.281 297.073 104.615 297.23 104.95L296.028 105.517ZM53.7368 103.221L52.5461 102.633L53.0441 101.637L54.2304 102.234L53.7368 103.221ZM292.556 98.6574C292.381 98.3342 292.206 98.0155 292.027 97.6946L293.189 97.0505C293.368 97.3736 293.547 97.699 293.722 98.0222L292.556 98.6574ZM57.3579 96.4064L56.2025 95.7424C56.3855 95.4193 56.5706 95.0977 56.758 94.7774L57.9068 95.4414C57.7237 95.7645 57.5409 96.0862 57.3579 96.4064ZM288.684 92.0041C288.492 91.6942 288.297 91.3844 288.102 91.0745L289.224 90.364C289.421 90.6783 289.618 90.9904 289.813 91.3047L288.684 92.0041ZM61.3618 89.8129L60.2551 89.0914C60.4572 88.7799 60.6602 88.4687 60.8638 88.1573L61.9705 88.8899C61.7639 89.1954 61.561 89.503 61.3618 89.8129ZM284.444 85.5832C284.222 85.2822 284.021 84.9834 283.806 84.6868L284.889 83.9144C285.103 84.2094 285.316 84.5113 285.528 84.8196L284.444 85.5832ZM65.7353 83.4606L64.6641 82.6749C64.8839 82.3799 65.1052 82.0846 65.3281 81.7896L66.3927 82.5819C66.1729 82.8697 65.9538 83.1625 65.7353 83.4606ZM279.84 79.4102L279.154 78.5515L280.187 77.7192C280.42 78.0143 280.652 78.3036 280.88 78.5869L279.84 79.4102ZM70.4586 77.3695L69.4338 76.5263C69.6684 76.2401 69.9053 75.9546 70.1443 75.6697L71.1624 76.524C70.9307 76.8058 70.6983 77.0878 70.4652 77.3695H70.4586ZM274.882 73.5095C274.639 73.235 274.395 72.9621 274.149 72.6906L275.134 71.8052C275.382 72.0797 275.63 72.3548 275.876 72.6308L274.882 73.5095ZM75.5249 71.5618L74.551 70.6609C74.8005 70.388 75.0528 70.1165 75.308 69.8464L76.2752 70.7561L75.5249 71.5618ZM269.603 67.8987C269.344 67.6375 269.083 67.3786 268.824 67.1218L269.758 66.1767C270.022 66.4357 270.283 66.6991 270.544 66.9602L269.603 67.8987ZM80.9166 66.0528L79.9936 65.0966C80.2592 64.8399 80.527 64.5838 80.7971 64.3286L81.7112 65.2914L80.9166 66.0528ZM264.015 62.5933L263.191 61.8629L264.077 60.8669L264.907 61.604L264.015 62.5933ZM86.6071 60.8603L85.7417 59.8532C86.0205 59.612 86.3038 59.3707 86.5849 59.1317L87.4437 60.1454L86.6071 60.8603ZM258.14 57.6155L257.275 56.9316L258.096 55.8869L258.968 56.5775L258.14 57.6155ZM92.5941 56.002L91.7863 54.9485L92.6716 54.2845L93.4706 55.3447L92.5941 56.002ZM251.978 52.9808L251.075 52.3478L251.835 51.2566C252.14 51.4691 252.443 51.6831 252.747 51.8985L251.978 52.9808ZM98.8357 51.4935L98.0898 50.3868C98.3953 50.1787 98.7029 49.9707 99.0106 49.7671L99.7476 50.8737C99.4356 51.0818 99.1323 51.2876 98.8291 51.4935H98.8357ZM245.56 48.7047C245.248 48.5099 244.936 48.3158 244.621 48.1226L245.316 46.9915C245.633 47.1863 245.949 47.3818 246.264 47.5781L245.56 48.7047ZM105.323 47.3501L104.639 46.2102C104.958 46.0221 105.274 45.8318 105.593 45.6458L106.257 46.7901L105.323 47.3501ZM238.904 44.8003L237.935 44.2758L238.563 43.1049L239.542 43.6383L238.904 44.8003ZM112.032 43.5874L111.416 42.4099L112.399 41.9009L113.008 43.0828C112.673 43.2488 112.346 43.417 112.025 43.5874H112.032ZM232.032 41.2856L231.034 40.8163L231.594 39.6123C231.932 39.7694 232.258 39.9288 232.603 40.0882L232.032 41.2856ZM118.944 40.2165L118.397 39.0058C118.731 38.8531 119.061 38.7026 119.406 38.5632L119.944 39.7761L118.944 40.2165ZM224.963 38.1714L223.938 37.7597L224.429 36.5269C224.774 36.6641 225.12 36.8014 225.463 36.943L224.963 38.1714ZM126.027 37.2484L125.551 36.0112C125.896 35.8762 126.243 35.7456 126.589 35.615L127.056 36.8589L126.027 37.2484ZM217.725 35.4778L216.676 35.1236L217.094 33.8643C217.448 33.9816 217.802 34.0989 218.154 34.2206L217.725 35.4778ZM133.295 34.6965L132.89 33.4304L133.95 33.0962L134.346 34.3645C133.995 34.4685 133.645 34.577 133.295 34.6898V34.6965ZM210.359 33.2025C210.005 33.1029 209.651 33.0077 209.297 32.9125L209.64 31.6288L210.713 31.9232L210.359 33.2025ZM140.699 32.554L140.367 31.268C140.725 31.1751 141.086 31.0843 141.445 30.9958L141.766 32.2839L140.699 32.554ZM202.871 31.3499L201.793 31.1286L202.063 29.8294L203.15 30.0507L202.871 31.3499ZM148.202 30.8475L147.945 29.5461C148.308 29.473 148.671 29.4044 149.036 29.3247L149.282 30.6284L148.202 30.8475ZM195.291 29.94C194.93 29.8825 194.567 29.8271 194.204 29.774L194.399 28.4593L195.505 28.6275L195.291 29.94ZM155.8 29.5792L155.619 28.2623L156.725 28.1162L156.896 29.4332C156.54 29.4796 156.17 29.5283 155.811 29.5792H155.8ZM187.659 28.9684L186.563 28.8643L186.683 27.5363L187.79 27.6404L187.659 28.9684ZM163.474 28.747L163.368 27.419L164.474 27.3349L164.57 28.6629L163.474 28.747ZM179.974 28.4327L178.868 28.3907L178.912 27.0627C179.284 27.0738 179.653 27.0892 180.019 27.1025L179.974 28.4327ZM171.17 28.3531L171.139 27.0251L172.245 27.0029L172.267 28.3309L171.17 28.3531Z" fill="#00A6FB"/>
<path d="M174.319 298.579C156.482 298.595 138.818 295.091 122.336 288.272C105.854 281.452 90.8793 271.45 78.2671 258.836C65.655 246.225 55.6536 231.247 48.8353 214.766C42.0171 198.284 38.5156 180.619 38.5313 162.782H39.8593C39.8593 236.929 100.181 297.251 174.328 297.251C248.475 297.251 308.797 236.929 308.797 162.782H310.125C310.141 180.621 306.639 198.287 299.82 214.77C293 231.254 282.996 246.229 270.382 258.843C257.769 271.457 242.791 281.459 226.308 288.276C209.824 295.095 192.158 298.597 174.319 298.579Z" fill="#00A6FB"/>
<path d="M96.5857 94.9502L81.7188 114.014L100.437 129.312C102.476 126.818 103.996 123.942 104.907 120.852C105.819 117.763 106.103 114.522 105.744 111.321C105.386 108.119 104.391 105.022 102.818 102.211C101.245 99.3994 99.1262 96.9309 96.5857 94.9502Z" fill="#00A6FB"/>
<path d="M100.436 129.976C100.283 129.976 100.135 129.923 100.016 129.826L81.2977 114.527C81.1636 114.417 81.0777 114.259 81.0587 114.086C81.0397 113.914 81.0888 113.741 81.1959 113.604L96.0629 94.5407C96.1711 94.4019 96.3303 94.3118 96.5049 94.2901C96.6797 94.2687 96.8559 94.3173 96.9947 94.4256C99.6047 96.461 101.781 98.9977 103.397 101.886C105.013 104.775 106.036 107.957 106.404 111.247C106.772 114.536 106.48 117.866 105.543 121.04C104.607 124.215 103.045 127.17 100.95 129.733C100.888 129.809 100.809 129.87 100.721 129.912C100.632 129.954 100.535 129.976 100.436 129.976ZM82.6412 113.91L100.337 128.371C104.061 123.542 105.763 117.455 105.084 111.394C104.405 105.333 101.397 99.7737 96.6959 95.8886L82.6412 113.91Z" fill="#00A6FB"/>
<path d="M96.5835 94.9495C93.1914 92.3072 89.1569 90.6163 84.8947 90.0499C80.6325 89.4835 76.2963 90.0623 72.332 91.7269L81.7166 114.013L96.5835 94.9495Z" fill="white"/>
<path d="M81.7198 114.677H81.6334C81.5186 114.662 81.4099 114.617 81.3178 114.547C81.2257 114.476 81.1538 114.383 81.1089 114.276L71.7243 91.9926C71.6557 91.8306 71.6544 91.648 71.7204 91.4849C71.7863 91.3218 71.9143 91.1916 72.0763 91.1228C76.1497 89.4119 80.6051 88.8165 84.9849 89.3982C89.3646 89.9796 93.5104 91.7171 96.9962 94.4317C97.135 94.54 97.225 94.6991 97.2467 94.8737C97.2682 95.0486 97.2195 95.2248 97.1113 95.3635L82.2443 114.42C82.1821 114.5 82.1027 114.565 82.0117 114.61C81.921 114.654 81.8209 114.677 81.7198 114.677ZM73.2095 92.09L81.8924 112.712L95.6505 95.0714C92.4613 92.7299 88.7336 91.2293 84.8116 90.7082C80.8895 90.1872 76.8996 90.6624 73.2095 92.09Z" fill="#00A6FB"/>
<path d="M72.3341 91.7275C68.9515 93.1534 65.9381 95.3306 63.522 98.0942C61.1059 100.858 59.3509 104.135 58.3899 107.678C57.4291 111.221 57.2875 114.936 57.9758 118.542C58.6641 122.147 60.1646 125.549 62.3631 128.489C64.5616 131.428 67.4004 133.829 70.6646 135.508C73.9288 137.187 77.5326 138.101 81.2025 138.181C84.8724 138.26 88.5123 137.503 91.846 135.966C95.1797 134.429 98.1199 132.154 100.443 129.312L81.7253 114.014L72.3341 91.7275Z" fill="#001EAB"/>
<path d="M81.7171 138.851C75.9832 138.85 70.426 136.866 65.9885 133.234C61.551 129.603 58.5063 124.548 57.3709 118.928C56.2354 113.308 57.0792 107.468 59.7591 102.398C62.439 97.3292 66.7897 93.343 72.0736 91.1161C72.1544 91.0827 72.2407 91.0654 72.3281 91.0654C72.4156 91.0654 72.5019 91.0827 72.5827 91.1161C72.6635 91.1493 72.7369 91.198 72.7987 91.2595C72.8607 91.3211 72.9098 91.3941 72.9435 91.4747L82.266 113.608L100.858 128.8C100.993 128.911 101.08 129.069 101.099 129.243C101.108 129.33 101.099 129.418 101.074 129.501C101.048 129.585 101.007 129.662 100.951 129.73C98.625 132.585 95.6917 134.885 92.3643 136.463C89.037 138.041 85.3996 138.857 81.7171 138.851ZM71.9784 92.6057C68.7835 94.0638 65.9557 96.2192 63.703 98.9135C61.4503 101.608 59.8297 104.772 58.9605 108.175C58.0911 111.578 57.995 115.132 58.6792 118.576C59.3635 122.021 60.8108 125.269 62.9146 128.081C65.0186 130.893 67.7257 133.198 70.837 134.827C73.9485 136.455 77.3854 137.366 80.8951 137.493C84.4048 137.619 87.8981 136.957 91.1187 135.557C94.3393 134.156 97.2051 132.051 99.5057 129.398L81.3076 114.527C81.2242 114.458 81.1589 114.37 81.1173 114.27L71.9784 92.6057Z" fill="#001EAB"/>
<path d="M199.16 251.85C199.16 251.85 202.259 237.935 202.372 225.972C202.469 215.549 204.667 208.828 212.847 201.262C215.722 198.601 218.245 195.583 220.355 192.283C221.966 189.766 223.912 186.836 225.667 184.479C226.876 182.86 227.845 181.075 228.544 179.18C230.184 174.707 233.788 165.876 237.754 163.317C237.754 163.317 239.746 162.927 240.826 163.22C242.692 163.72 243.039 165.178 244.321 166.079C244.885 171.068 240.957 180.397 239.314 184.569C239.104 185.111 238.943 185.669 238.83 186.238C237.55 192.564 233.075 202.94 233.075 202.94C233.075 202.94 245.259 192.095 261.654 186.325L263.36 182.783C263.36 182.783 263.898 177.17 265.766 172.445C265.766 172.445 266.6 161.664 271.622 159.3C271.622 159.3 274.993 147.928 283.132 147.928L282.395 160.924C282.395 160.924 285.051 152.359 290.073 153.244C290.073 153.244 289.238 167.157 290 173.917C290.046 174.319 290.031 174.726 289.953 175.123C289.475 177.558 287.716 186.825 287.235 193.213C287.182 193.922 286.97 194.609 286.611 195.223C286.253 195.837 285.759 196.361 285.166 196.754C280.777 199.664 269.87 207.254 261.57 216.01C250.946 227.234 232.92 232.698 229.671 251.866L199.16 251.85Z" fill="#D4DCFF"/>
<path d="M257.222 210.342L256.145 209.567C260.073 204.089 270.111 196.347 274.243 193.272C275.071 192.661 275.626 191.751 275.792 190.736C277.105 182.682 279.942 175.406 280.781 173.368C280.916 173.039 280.996 172.691 281.02 172.337L281.242 155.635L282.57 155.652L282.348 172.372V172.403C282.317 172.908 282.204 173.405 282.012 173.873C281.186 175.878 278.395 183.036 277.105 190.951C276.883 192.306 276.142 193.521 275.038 194.337C270.952 197.374 261.045 205.014 257.222 210.342Z" fill="#00A6FB"/>
<path d="M233.495 203.436L232.609 202.445C232.727 202.339 244.561 191.887 260.376 186.066C260.869 185.884 261.272 185.513 261.493 185.035C262.921 181.98 266.571 174.411 269.866 169.586C269.809 166.657 270.893 159.506 270.94 159.196L272.252 159.395C272.252 159.473 271.082 167.116 271.201 169.752C271.208 169.897 271.166 170.04 271.084 170.159C267.812 174.9 264.127 182.534 262.695 185.597C262.514 185.991 262.255 186.345 261.936 186.64C261.617 186.934 261.243 187.163 260.836 187.312C245.261 193.047 233.61 203.332 233.495 203.436Z" fill="white"/>
<path d="M231.764 182.166L231.312 183.415L235.007 184.745L235.456 183.495L231.764 182.166Z" fill="white"/>
<path d="M282.661 159.298C282.661 159.298 277.539 157.942 279.036 148.973C279.036 148.973 280.977 147.709 283.201 147.926L282.661 159.298Z" fill="white"/>
<path d="M289.683 163.942C289.683 163.942 284.544 163.096 286.026 154.659C286.026 154.659 287.751 152.667 290.115 152.972L289.683 163.942Z" fill="white"/>
<path d="M287.6 174.95C287.086 174.685 285.577 173.992 284.742 173.992V172.664C286.05 172.664 287.996 173.66 288.213 173.771L287.6 174.95Z" fill="white"/>
<path d="M283.658 194.813C283.145 194.545 281.633 193.854 280.801 193.854V192.526C282.107 192.526 284.054 193.52 284.271 193.633L283.658 194.813Z" fill="white"/>
<path d="M278.957 172.662C278.445 172.397 276.934 171.704 276.102 171.704V170.376C277.407 170.376 279.353 171.372 279.572 171.483L278.957 172.662Z" fill="white"/>
<path d="M272.877 191.991C272.363 191.726 270.852 191.033 270.02 191.033V189.705C271.325 189.705 273.273 190.701 273.49 190.812L272.877 191.991Z" fill="white"/>
<path d="M236.336 244.56L233.379 256.771L195.911 259.363L195.836 245.251C195.836 245.251 204.435 230.381 236.336 244.56Z" fill="#00A6FB"/>
<path d="M230.759 253.4H226.41C226.005 253.4 225.618 253.239 225.33 252.953C225.044 252.668 224.883 252.28 224.883 251.875V247.526C224.883 247.121 225.044 246.734 225.33 246.446C225.618 246.161 226.005 245.999 226.41 245.999H230.759C231.164 246.001 231.552 246.161 231.837 246.448C232.123 246.734 232.284 247.121 232.284 247.526V251.875C232.284 252.28 232.123 252.668 231.837 252.953C231.552 253.239 231.164 253.4 230.759 253.4ZM226.41 247.327C226.357 247.327 226.306 247.349 226.271 247.387C226.233 247.422 226.211 247.473 226.211 247.526V251.875C226.211 251.929 226.233 251.977 226.271 252.015C226.308 252.053 226.357 252.072 226.41 252.072H230.759C230.812 252.072 230.861 252.05 230.899 252.015C230.934 251.977 230.956 251.929 230.956 251.875V247.526C230.956 247.473 230.934 247.424 230.899 247.387C230.861 247.349 230.812 247.329 230.759 247.327H226.41Z" fill="white"/>
<path d="M237.11 173.572C241.079 175.23 244.301 166.08 244.301 166.08C244.301 166.08 242.416 161.68 237.734 163.317C236.902 164.867 233.434 172.038 237.11 173.572Z" fill="white"/>
<path d="M111.724 173.572C107.758 175.23 104.535 166.08 104.535 166.08C104.535 166.08 106.421 161.68 111.1 163.317C111.932 164.867 115.403 172.038 111.724 173.572Z" fill="white"/>
<defs>
<linearGradient id="paint0_linear_7471_2985" x1="239.092" y1="100.495" x2="119.88" y2="373.053" gradientUnits="userSpaceOnUse">
<stop stop-color="#02040D"/>
<stop offset="1" stop-color="#3145A4"/>
</linearGradient>
</defs>
</svg>
