<svg xmlns="http://www.w3.org/2000/svg" width="224" height="225" viewBox="0 0 224 225" fill="none"><path d="M17.5 11C21.213 11 24.774 12.475 27.3995 15.1005C30.025 17.726 31.5 21.287 31.5 25V67H10.5C8.6435 67 6.86301 66.2626 5.55027 64.9497C4.23749 63.6368 3.5 61.8564 3.5 60V25C3.5 21.287 4.97501 17.726 7.6005 15.1005C10.226 12.475 13.787 11 17.5 11Z" fill="#C2DDE7" stroke="#231F20" stroke-width="3.5" stroke-linecap="round" stroke-linejoin="round"></path><path d="M178.85 185.65C178.803 188.437 179.312 191.206 180.347 193.794C181.382 196.382 182.921 198.739 184.876 200.726C186.83 202.713 189.161 204.291 191.732 205.369C194.303 206.446 197.063 207 199.85 207H52.5C46.9305 207 41.5891 204.788 37.6509 200.849C33.7125 196.911 31.5 191.57 31.5 186V25C31.5 21.287 30.025 17.726 27.3995 15.1005C24.774 12.475 21.213 11 17.5 11H164.5C166.358 10.9998 168.197 11.3693 169.911 12.087C171.624 12.8048 173.178 13.8564 174.481 15.1806C175.784 16.5048 176.81 18.0751 177.5 19.8C178.19 21.525 178.53 23.3699 178.5 25.2275L178.85 185.65Z" fill="white" stroke="#231F20" stroke-width="3.5" stroke-linecap="round" stroke-linejoin="round"></path><path d="M52.5 110.75H157.5" stroke="#C2DDE7" stroke-width="3.5" stroke-linecap="round" stroke-linejoin="round"></path><path d="M52.5 124.75H157.5" stroke="#C2DDE7" stroke-width="3.5" stroke-linecap="round" stroke-linejoin="round"></path><path d="M52.5 96.75H157.5" stroke="#C2DDE7" stroke-width="3.5" stroke-linecap="round" stroke-linejoin="round"></path><path d="M73.5 172V186C73.5 191.57 71.2876 196.911 67.3491 200.849C63.4109 204.788 58.0696 207 52.5 207H199.5C205.07 207 210.411 204.788 214.349 200.849C218.288 196.911 220.5 191.57 220.5 186V172C220.5 170.144 219.763 168.363 218.45 167.05C217.137 165.737 215.356 165 213.5 165H80.5C78.6436 165 76.8631 165.737 75.5503 167.05C74.2375 168.363 73.5 170.144 73.5 172Z" fill="#C2DDE7" stroke="#231F20" stroke-width="3.5" stroke-linecap="round" stroke-linejoin="round"></path><path d="M52.5 149.601C52.837 148.7 53.3512 147.876 54.0127 147.177C54.6739 146.479 55.4687 145.92 56.35 145.534C56.538 145.431 56.756 145.398 56.966 145.439C57.19 145.546 57.3643 145.736 57.4525 145.968L58.835 148.572C59.4286 147.728 60.304 147.124 61.3036 146.867C62.3028 146.61 63.3612 146.719 64.288 147.172C64.8071 147.536 65.3797 147.816 65.9855 148.002C66.7625 148.135 77.0035 147.809 84.0035 147.809" stroke="#C2DDE7" stroke-width="3.5" stroke-linecap="round" stroke-linejoin="round"></path><path d="M201.039 214C199.294 213.999 197.621 213.306 196.387 212.073L177.314 193L158.241 212.073C157.006 213.306 155.333 213.999 153.589 214C152.632 214.001 151.687 213.793 150.819 213.391C149.951 212.99 149.181 212.404 148.562 211.674C147.944 210.945 147.491 210.089 147.237 209.167C146.982 208.245 146.932 207.279 147.09 206.335L159.814 151H194.814L207.538 206.335C207.695 207.279 207.645 208.245 207.39 209.167C207.136 210.089 206.684 210.945 206.065 211.674C205.446 212.404 204.676 212.99 203.808 213.391C202.94 213.793 201.995 214.001 201.039 214Z" fill="#FFA336" stroke="#231F20" stroke-width="3.5" stroke-linecap="round" stroke-linejoin="round"></path><path d="M220.5 119.488C220.5 123.104 216.851 126.192 215.959 129.524C215.026 132.976 216.627 137.455 214.877 140.487C213.127 143.52 208.399 144.411 205.912 146.897C203.425 149.384 202.566 154.087 199.5 155.878C196.434 157.67 191.982 156.037 188.533 156.96C185.201 157.852 182.112 161.5 178.495 161.5C174.879 161.5 171.789 157.852 168.457 156.96C165.004 156.027 160.524 157.628 157.491 155.878C154.457 154.129 153.566 149.403 151.079 146.916C148.591 144.429 143.892 143.548 142.123 140.482C140.355 137.417 141.965 132.967 141.041 129.519C140.149 126.192 136.5 123.104 136.5 119.488C136.5 115.873 140.149 112.784 141.041 109.453C141.974 106.001 140.373 101.522 142.123 98.4895C143.873 95.4571 148.601 94.566 151.088 92.0793C153.575 89.5925 154.434 84.8899 157.5 83.1217C160.566 81.3535 165.018 82.9632 168.467 82.0395C171.799 81.1484 174.888 77.5 178.505 77.5C182.121 77.5 185.211 81.1484 188.543 82.0395C191.996 82.9726 196.476 81.3724 199.509 83.1217C202.543 84.8713 203.434 89.5974 205.921 92.0838C208.409 94.5705 213.113 95.4291 214.881 98.4895C216.65 101.55 215.04 106.005 215.964 109.453C216.851 112.784 220.5 115.873 220.5 119.488Z" fill="#FFA336" stroke="#231F20" stroke-width="3.5" stroke-linecap="round" stroke-linejoin="round"></path><path d="M178.5 147.5C193.964 147.5 206.5 134.964 206.5 119.5C206.5 104.036 193.964 91.5 178.5 91.5C163.036 91.5 150.5 104.036 150.5 119.5C150.5 134.964 163.036 147.5 178.5 147.5Z" fill="white" stroke="white" stroke-width="3.5" stroke-linecap="round" stroke-linejoin="round"></path><path d="M178.5 140.5C190.098 140.5 199.5 131.098 199.5 119.5C199.5 107.902 190.098 98.5 178.5 98.5C166.902 98.5 157.5 107.902 157.5 119.5C157.5 131.098 166.902 140.5 178.5 140.5Z" fill="#FFA336" stroke="#FFA336" stroke-width="3.5" stroke-linecap="round" stroke-linejoin="round"></path><path d="M178.5 109L181.746 115.914L189 117.023L183.75 122.396L184.981 130L178.5 126.414L172.008 130L173.25 122.396L168 117.023L175.254 115.914L178.5 109Z" fill="white" stroke="white" stroke-width="3.5" stroke-miterlimit="10" stroke-linecap="round" stroke-linejoin="round"></path><path fill-rule="evenodd" clip-rule="evenodd" d="M81.9921 56.9338L80.5 67.6575C91 80.7825 112 80.7825 122.5 67.6575L121.008 56.9307L107.686 62.2979C105.716 63.0924 103.618 63.5009 101.5 63.5009C99.3797 63.5019 97.2783 63.0935 95.3057 62.2979L81.9921 56.9338Z" fill="#C2DDE7"></path><path d="M81.992 56.9328L82.6458 55.3098C82.146 55.1082 81.5815 55.1485 81.1153 55.4183C80.6488 55.6885 80.333 56.1582 80.2585 56.6916L81.992 56.9328ZM80.5 67.6564L78.7668 67.4149C78.7003 67.8913 78.8329 68.3739 79.1336 68.7495L80.5 67.6564ZM122.5 67.6564L123.866 68.7495C124.167 68.3739 124.3 67.8913 124.233 67.4149L122.5 67.6564ZM121.008 56.9296L122.741 56.6885C122.667 56.1547 122.351 55.685 121.884 55.4152C121.418 55.1453 120.853 55.1051 120.354 55.3063L121.008 56.9296ZM80.2585 56.6916L78.7668 67.4149L82.2332 67.8976L83.7252 57.1739L80.2585 56.6916ZM79.1336 68.7495C90.3339 82.7502 112.666 82.7502 123.866 68.7495L121.134 66.563C111.334 78.8123 91.666 78.8123 81.8664 66.563L79.1336 68.7495ZM124.233 67.4149L122.741 56.6885L119.274 57.1708L120.767 67.8976L124.233 67.4149ZM120.354 55.3063L107.032 60.6736L108.34 63.9202L121.661 58.5529L120.354 55.3063ZM107.032 60.6736C105.269 61.3844 103.392 61.7498 101.5 61.7498L101.5 65.2498C103.843 65.2495 106.163 64.7983 108.34 63.9202L107.032 60.6736ZM101.5 61.7498C99.6048 61.7505 97.7252 61.3858 95.9605 60.6739L94.6512 63.9198C96.831 64.7994 99.1546 65.2509 101.5 65.2498L101.5 61.7498ZM95.9605 60.6739L82.6458 55.3098L81.3379 58.5561L94.6512 63.9198L95.9605 60.6739Z" fill="#C2DDE7"></path><path d="M130.55 46.0875L106.561 55.5375C104.949 56.1731 103.232 56.4996 101.5 56.5C99.7651 56.5007 98.0459 56.1742 96.432 55.5375L72.443 46.0875C71.7224 45.8047 71.1036 45.3109 70.6678 44.6707C70.2321 44.0309 69.9993 43.2742 70 42.5C69.9997 41.7248 70.2335 40.9677 70.6706 40.3276C71.1078 39.6878 71.728 39.1943 72.45 38.9125L96.439 29.4625C98.0508 28.8268 99.7675 28.5002 101.5 28.5C103.235 28.4994 104.954 28.8259 106.568 29.4625L130.557 38.9125C131.278 39.1953 131.896 39.6891 132.332 40.3293C132.768 40.9691 133.001 41.7258 133 42.5C133 43.2753 132.767 44.0323 132.329 44.6725C131.892 45.3123 131.272 45.8057 130.55 46.0875Z" fill="#C2DDE7" stroke="#C2DDE7" stroke-width="3.5" stroke-linecap="round" stroke-linejoin="round"></path><path d="M101.5 42.5L91 53V67" stroke="white" stroke-width="3.5" stroke-linecap="round" stroke-linejoin="round"></path></svg>