<svg width="89" height="81" viewBox="0 0 89 81" fill="none" xmlns="http://www.w3.org/2000/svg">
<path d="M44.364 16.0702C52.1045 16.2698 52.1266 27.6033 44.364 27.8029C36.6013 27.6033 36.6235 16.2698 44.364 16.0702ZM26.3102 46.9878C8.63344 30.8636 20.1887 0.744435 44.364 0.766614C68.5613 0.744435 80.1167 30.8636 62.4399 46.9878C58.7582 40.6668 51.8605 36.5858 44.364 36.5858C36.8674 36.5858 29.9697 40.6668 26.3102 46.9878ZM44.364 32.2387C58.0041 31.7952 57.9819 12.078 44.364 11.6344C30.746 12.078 30.7238 31.7952 44.364 32.2387ZM29.8367 49.738C38.0651 55.4381 50.6628 55.4159 58.8913 49.7602C53.0582 38.2271 35.7363 38.2493 29.8367 49.738ZM69.4929 45.7015C57.5162 62.6463 31.1896 62.6463 19.2572 45.7015L0.382812 60.7389L17.616 64.8864L20.8541 80.7666L44.364 61.2046L67.8738 80.7666L71.1119 64.8864L88.3673 60.8054L69.4929 45.7236V45.7015Z" fill="white"/>
</svg>
