<svg width="1184" height="257" viewBox="0 0 1184 257" fill="none" xmlns="http://www.w3.org/2000/svg">
<path d="M73.2136 99.0921C73.1812 166.689 146.338 208.973 204.895 175.202C232.097 159.514 248.852 130.494 248.837 99.0921C248.869 31.4947 175.713 -10.7887 117.156 22.9821C89.9532 38.6701 73.1986 67.6901 73.2136 99.0921Z" fill="white"/>
<path d="M73.2136 99.0921C73.1812 166.689 146.338 208.973 204.895 175.202C232.097 159.514 248.852 130.494 248.837 99.0921C248.869 31.4947 175.713 -10.7887 117.156 22.9821C89.9532 38.6701 73.1986 67.6901 73.2136 99.0921Z" fill="url(#paint0_linear_2_1092)" fill-opacity="0.3"/>
<path d="M114.323 44.1307H205.675V129.389H114.323V44.1307Z" fill="#B0D9FF"/>
<path d="M114.323 44.1307H205.675V129.389H114.323V44.1307Z" fill="url(#paint1_linear_2_1092)"/>
<path d="M174.221 71.5127C174.22 72.9159 173.082 74.0527 171.679 74.0525H148.328C146.924 74.0537 145.785 72.9163 145.785 71.5127V44.1307H174.221V71.5127Z" fill="white"/>
<path d="M174.221 71.5127C174.22 72.9159 173.082 74.0527 171.679 74.0525H148.328C146.924 74.0537 145.785 72.9163 145.785 71.5127V44.1307H174.221V71.5127Z" stroke="#020064" stroke-linecap="round" stroke-linejoin="round"/>
<path d="M114.323 44.1307H205.675V129.389H114.323V44.1307Z" stroke="#020064" stroke-linecap="round" stroke-linejoin="round"/>
<path d="M63.0976 70.6981H104.198V109.057H63.0976V70.6981Z" fill="#B0D9FF"/>
<path d="M63.0976 70.6981H104.198V109.057H63.0976V70.6981Z" fill="url(#paint2_linear_2_1092)"/>
<path d="M87.7596 87.3341C87.7608 88.7385 86.6218 89.8775 85.2174 89.8763H82.0804C80.6766 89.8763 79.5392 88.7377 79.5404 87.3341V70.6981H87.7596V87.3341Z" fill="white" stroke="#020064" stroke-linecap="round" stroke-linejoin="round"/>
<path d="M63.0976 70.6981H104.198V109.057H63.0976V70.6981Z" stroke="#020064" stroke-linecap="round" stroke-linejoin="round"/>
<path d="M215.802 70.6981H256.902V109.057H215.802V70.6981Z" fill="#B0D9FF"/>
<path d="M215.802 70.6981H256.902V109.057H215.802V70.6981Z" fill="url(#paint3_linear_2_1092)"/>
<path d="M229 99.2739C229 104.279 234.418 107.407 238.752 104.904C240.764 103.743 242.003 101.597 242.003 99.2739C242.003 94.269 236.585 91.141 232.251 93.6434C230.239 94.8048 229 96.9511 229 99.2739Z" fill="white"/>
<path d="M229 99.2739C229 104.279 234.418 107.407 238.752 104.904C240.764 103.743 242.003 101.597 242.003 99.2739C242.003 94.269 236.585 91.141 232.251 93.6434C230.239 94.8048 229 96.9511 229 99.2739Z" stroke="#020064" stroke-linecap="round" stroke-linejoin="round"/>
<path d="M238.567 100.807L237.034 99.2739L238.567 97.7416C239.168 97.1633 238.918 96.1509 238.116 95.9193C237.73 95.8076 237.313 95.9192 237.034 96.2092L235.501 97.7416L233.969 96.2092C233.391 95.6079 232.379 95.8581 232.147 96.6596C232.035 97.046 232.147 97.4627 232.437 97.7416L233.969 99.2739L232.437 100.807C231.862 101.412 232.158 102.412 232.97 102.607C233.327 102.692 233.703 102.592 233.969 102.339L235.501 100.806L237.034 102.339C237.636 102.917 238.637 102.627 238.838 101.817C238.927 101.456 238.825 101.074 238.567 100.806L238.567 100.807Z" fill="#DD1537" stroke="#020064" stroke-linecap="round" stroke-linejoin="round"/>
<g filter="url(#filter0_d_2_1092)">
<path d="M135 84.3601C135 103.267 155.467 115.084 171.841 105.63C179.44 101.243 184.121 93.1348 184.121 84.3601C184.121 65.4532 163.654 53.6364 147.28 63.0899C139.681 67.4772 135 75.5854 135 84.3601Z" fill="white"/>
<path d="M135 84.3601C135 103.267 155.467 115.084 171.841 105.63C179.44 101.243 184.121 93.1348 184.121 84.3601C184.121 65.4532 163.654 53.6364 147.28 63.0899C139.681 67.4772 135 75.5854 135 84.3601Z" fill="url(#paint4_linear_2_1092)" fill-opacity="0.3"/>
</g>
<path d="M154.608 97.1593C153.663 97.1605 152.755 96.7848 152.088 96.1154L144.96 88.9859C143.018 87.0457 143.904 83.7312 146.556 83.0196C147.786 82.6895 149.099 83.0407 150 83.9411L154.605 88.5463L169.118 74.0331C171.062 72.0929 174.377 72.9841 175.085 75.6372C175.414 76.8684 175.061 78.1816 174.159 79.0819L157.134 96.1154C156.465 96.7864 155.556 97.1622 154.608 97.1593Z" fill="#DFF265" stroke="#020064" stroke-linejoin="round"/>
<path d="M240.462 87.3341C240.463 88.7335 239.332 89.8703 237.933 89.8763H234.785C233.381 89.8763 232.243 88.7381 232.243 87.3341V70.6981H240.462V87.3341Z" fill="white" stroke="#020064" stroke-linecap="round" stroke-linejoin="round"/>
<path d="M215.802 70.6981H256.902V109.057H215.802V70.6981Z" stroke="#020064" stroke-linecap="round" stroke-linejoin="round"/>
<path d="M144.66 130.661V92.6724C144.66 88.1299 149.591 85.2908 153.536 87.5621C155.367 88.6161 156.495 90.5642 156.495 92.6724V121.81C156.495 117.267 161.426 114.428 165.371 116.7C167.201 117.754 168.329 119.701 168.329 121.81V124.76C168.414 120.217 173.399 117.469 177.302 119.813C179.046 120.861 180.128 122.73 180.166 124.76V127.711C180.166 123.168 185.096 120.329 189.041 122.6C190.872 123.654 192 125.602 192 127.711V149.096C192 164.297 186.083 166.96 186.083 175.649V183.763H152.058C152.058 166.761 134 171.651 134 144.806C134 134.661 137.331 130.661 144.66 130.661Z" fill="white"/>
<path d="M171.96 132.812V125.967" stroke="#020064" stroke-linecap="round" stroke-linejoin="round"/>
<path d="M158.324 132.285V122.808" stroke="#020064" stroke-linecap="round" stroke-linejoin="round"/>
<path d="M184.598 132.812V129.126" stroke="#020064" stroke-linecap="round" stroke-linejoin="round"/>
<path d="M152.058 183.763C152.058 166.762 134 171.652 134 144.809C134 134.668 137.331 130.662 144.66 130.662V92.672C144.66 88.1298 149.591 85.2909 153.536 87.562C155.367 88.616 156.495 90.564 156.495 92.672V121.808C156.495 117.265 161.426 114.427 165.371 116.698C167.201 117.752 168.329 119.699 168.329 121.808V124.758C168.414 120.215 173.399 117.467 177.302 119.811C179.046 120.859 180.128 122.727 180.166 124.758V127.708C180.166 123.166 185.096 120.327 189.041 122.598C190.872 123.652 192 125.6 192 127.708V149.092C192 164.292 186.083 166.955 186.083 175.644V183.757" stroke="#020064" stroke-linecap="round" stroke-linejoin="round"/>
<path d="M144.688 146.502V132.285" stroke="#020064" stroke-linecap="round" stroke-linejoin="round"/>
<path d="M76.9985 99.2739C76.9985 104.279 82.4165 107.407 86.7508 104.904C88.7624 103.743 90.0015 101.597 90.0015 99.2739C90.0015 94.269 84.5836 91.141 80.2493 93.6434C78.2377 94.8048 76.9985 96.9511 76.9985 99.2739Z" fill="white"/>
<path d="M76.9985 99.2739C76.9985 104.279 82.4165 107.407 86.7508 104.904C88.7624 103.743 90.0015 101.597 90.0015 99.2739C90.0015 94.269 84.5836 91.141 80.2493 93.6434C78.2377 94.8048 76.9985 96.9511 76.9985 99.2739Z" stroke="#020064" stroke-linecap="round" stroke-linejoin="round"/>
<path d="M86.5651 100.807L85.0328 99.2739L86.5651 97.7416C87.1664 97.1633 86.9163 96.1509 86.1148 95.9193C85.7283 95.8076 85.3117 95.9192 85.0328 96.2092L83.5 97.7416L81.9677 96.2092C81.3894 95.6079 80.377 95.8581 80.1454 96.6596C80.0337 97.046 80.1453 97.4627 80.4353 97.7416L81.9677 99.2739L80.4353 100.807C79.8609 101.412 80.1569 102.412 80.968 102.607C81.3252 102.692 81.7014 102.592 81.9677 102.339L83.5 100.806L85.0328 102.339C85.6341 102.917 86.6359 102.627 86.8361 101.817C86.9253 101.456 86.8231 101.074 86.5651 100.806L86.5651 100.807Z" fill="#DD1537" stroke="#020064" stroke-linecap="round" stroke-linejoin="round"/>
<path d="M91.368 249.763L84.576 232.963H87.576L92.88 246.571H91.824L97.176 232.963H100.128L93.288 249.763H91.368ZM104.947 250.003C103.827 250.003 102.811 249.739 101.899 249.211C100.987 248.667 100.259 247.939 99.7151 247.027C99.1871 246.115 98.9231 245.099 98.9231 243.979C98.9231 242.859 99.1871 241.851 99.7151 240.955C100.259 240.059 100.987 239.347 101.899 238.819C102.811 238.275 103.827 238.003 104.947 238.003C106.083 238.003 107.107 238.267 108.019 238.795C108.931 239.323 109.651 240.043 110.179 240.955C110.723 241.851 110.995 242.859 110.995 243.979C110.995 245.099 110.723 246.115 110.179 247.027C109.651 247.939 108.931 248.667 108.019 249.211C107.107 249.739 106.083 250.003 104.947 250.003ZM104.947 247.459C105.603 247.459 106.179 247.315 106.675 247.027C107.187 246.723 107.579 246.307 107.851 245.779C108.139 245.251 108.283 244.651 108.283 243.979C108.283 243.307 108.139 242.715 107.851 242.203C107.563 241.691 107.171 241.291 106.675 241.003C106.179 240.699 105.603 240.547 104.947 240.547C104.307 240.547 103.731 240.699 103.219 241.003C102.723 241.291 102.331 241.691 102.043 242.203C101.771 242.715 101.635 243.307 101.635 243.979C101.635 244.651 101.771 245.251 102.043 245.779C102.331 246.307 102.723 246.723 103.219 247.027C103.731 247.315 104.307 247.459 104.947 247.459ZM114.614 249.763V233.443H117.254V249.763H114.614ZM111.854 240.643V238.243H120.014V240.643H111.854ZM121.957 249.763V238.243H124.597V249.763H121.957ZM123.277 236.131C122.829 236.131 122.453 235.979 122.149 235.675C121.861 235.371 121.717 234.995 121.717 234.547C121.717 234.099 121.861 233.723 122.149 233.419C122.453 233.115 122.829 232.963 123.277 232.963C123.741 232.963 124.117 233.115 124.405 233.419C124.693 233.723 124.837 234.099 124.837 234.547C124.837 234.995 124.693 235.371 124.405 235.675C124.117 235.979 123.741 236.131 123.277 236.131ZM135.454 249.763V243.115C135.454 242.347 135.206 241.715 134.71 241.219C134.23 240.723 133.606 240.475 132.838 240.475C132.326 240.475 131.87 240.587 131.47 240.811C131.07 241.035 130.758 241.347 130.534 241.747C130.31 242.147 130.198 242.603 130.198 243.115L129.166 242.539C129.166 241.659 129.358 240.883 129.742 240.211C130.126 239.523 130.654 238.987 131.326 238.603C132.014 238.203 132.782 238.003 133.63 238.003C134.494 238.003 135.262 238.227 135.934 238.675C136.606 239.107 137.134 239.675 137.518 240.379C137.902 241.067 138.094 241.787 138.094 242.539V249.763H135.454ZM127.558 249.763V238.243H130.198V249.763H127.558ZM145.577 254.803C144.361 254.803 143.297 254.579 142.385 254.131C141.473 253.699 140.737 253.083 140.177 252.283L141.905 250.555C142.369 251.131 142.897 251.563 143.489 251.851C144.081 252.139 144.793 252.283 145.625 252.283C146.665 252.283 147.489 252.011 148.097 251.467C148.705 250.939 149.009 250.211 149.009 249.283V246.451L149.465 243.907L149.009 241.339V238.243H151.648V249.283C151.648 250.387 151.393 251.347 150.881 252.163C150.369 252.995 149.657 253.643 148.745 254.107C147.833 254.571 146.777 254.803 145.577 254.803ZM145.457 249.523C144.433 249.523 143.505 249.275 142.673 248.779C141.857 248.267 141.209 247.571 140.729 246.691C140.265 245.811 140.033 244.827 140.033 243.739C140.033 242.651 140.265 241.675 140.729 240.811C141.209 239.947 141.857 239.267 142.673 238.771C143.505 238.259 144.433 238.003 145.457 238.003C146.369 238.003 147.169 238.187 147.857 238.555C148.545 238.923 149.081 239.435 149.465 240.091C149.849 240.731 150.041 241.483 150.041 242.347V245.179C150.041 246.027 149.841 246.779 149.441 247.435C149.057 248.091 148.521 248.603 147.833 248.971C147.145 249.339 146.353 249.523 145.457 249.523ZM145.985 247.027C146.625 247.027 147.185 246.891 147.665 246.619C148.145 246.347 148.513 245.971 148.769 245.491C149.041 244.995 149.177 244.419 149.177 243.763C149.177 243.107 149.041 242.539 148.769 242.059C148.513 241.563 148.145 241.179 147.665 240.907C147.185 240.635 146.625 240.499 145.985 240.499C145.345 240.499 144.777 240.635 144.281 240.907C143.801 241.179 143.425 241.563 143.153 242.059C142.881 242.539 142.745 243.107 142.745 243.763C142.745 244.403 142.881 244.971 143.153 245.467C143.425 245.963 143.801 246.347 144.281 246.619C144.777 246.891 145.345 247.027 145.985 247.027ZM159.746 249.763V232.963H162.506V249.763H159.746ZM170.426 249.763V232.963H173.186V249.763H170.426ZM161.642 242.323V239.803H171.026V242.323H161.642ZM176.496 249.763V238.243H179.136V249.763H176.496ZM177.816 236.131C177.368 236.131 176.992 235.979 176.688 235.675C176.4 235.371 176.256 234.995 176.256 234.547C176.256 234.099 176.4 233.723 176.688 233.419C176.992 233.115 177.368 232.963 177.816 232.963C178.28 232.963 178.656 233.115 178.944 233.419C179.232 233.723 179.376 234.099 179.376 234.547C179.376 234.995 179.232 235.371 178.944 235.675C178.656 235.979 178.28 236.131 177.816 236.131ZM185.865 250.003C185.225 250.003 184.609 249.923 184.017 249.763C183.425 249.587 182.881 249.347 182.385 249.043C181.889 248.723 181.457 248.339 181.089 247.891L182.769 246.211C183.169 246.675 183.625 247.027 184.137 247.267C184.665 247.491 185.257 247.603 185.913 247.603C186.505 247.603 186.953 247.515 187.257 247.339C187.561 247.163 187.713 246.907 187.713 246.571C187.713 246.219 187.569 245.947 187.281 245.755C186.993 245.563 186.617 245.403 186.153 245.275C185.705 245.131 185.225 244.987 184.713 244.843C184.217 244.699 183.737 244.507 183.273 244.267C182.825 244.011 182.457 243.667 182.169 243.235C181.881 242.803 181.737 242.243 181.737 241.555C181.737 240.819 181.905 240.187 182.241 239.659C182.593 239.131 183.081 238.723 183.705 238.435C184.345 238.147 185.105 238.003 185.985 238.003C186.913 238.003 187.729 238.171 188.433 238.507C189.153 238.827 189.753 239.315 190.233 239.971L188.553 241.651C188.217 241.235 187.833 240.923 187.401 240.715C186.969 240.507 186.473 240.403 185.913 240.403C185.385 240.403 184.977 240.483 184.689 240.643C184.401 240.803 184.257 241.035 184.257 241.339C184.257 241.659 184.401 241.907 184.689 242.083C184.977 242.259 185.345 242.411 185.793 242.539C186.257 242.667 186.737 242.811 187.233 242.971C187.745 243.115 188.225 243.323 188.673 243.595C189.137 243.851 189.513 244.203 189.801 244.651C190.089 245.083 190.233 245.651 190.233 246.355C190.233 247.475 189.841 248.363 189.057 249.019C188.273 249.675 187.209 250.003 185.865 250.003ZM194.161 249.763V233.443H196.801V249.763H194.161ZM191.401 240.643V238.243H199.561V240.643H191.401ZM206.432 250.003C205.312 250.003 204.296 249.739 203.384 249.211C202.472 248.667 201.744 247.939 201.2 247.027C200.672 246.115 200.408 245.099 200.408 243.979C200.408 242.859 200.672 241.851 201.2 240.955C201.744 240.059 202.472 239.347 203.384 238.819C204.296 238.275 205.312 238.003 206.432 238.003C207.568 238.003 208.592 238.267 209.504 238.795C210.416 239.323 211.136 240.043 211.664 240.955C212.208 241.851 212.48 242.859 212.48 243.979C212.48 245.099 212.208 246.115 211.664 247.027C211.136 247.939 210.416 248.667 209.504 249.211C208.592 249.739 207.568 250.003 206.432 250.003ZM206.432 247.459C207.088 247.459 207.664 247.315 208.16 247.027C208.672 246.723 209.064 246.307 209.336 245.779C209.624 245.251 209.768 244.651 209.768 243.979C209.768 243.307 209.624 242.715 209.336 242.203C209.048 241.691 208.656 241.291 208.16 241.003C207.664 240.699 207.088 240.547 206.432 240.547C205.792 240.547 205.216 240.699 204.704 241.003C204.208 241.291 203.816 241.691 203.528 242.203C203.256 242.715 203.12 243.307 203.12 243.979C203.12 244.651 203.256 245.251 203.528 245.779C203.816 246.307 204.208 246.723 204.704 247.027C205.216 247.315 205.792 247.459 206.432 247.459ZM214.675 249.763V238.243H217.315V249.763H214.675ZM217.315 243.355L216.403 242.899C216.403 241.443 216.723 240.267 217.363 239.371C218.019 238.459 219.003 238.003 220.315 238.003C220.891 238.003 221.411 238.107 221.875 238.315C222.339 238.523 222.771 238.859 223.171 239.323L221.443 241.099C221.235 240.875 221.003 240.715 220.747 240.619C220.491 240.523 220.195 240.475 219.859 240.475C219.123 240.475 218.515 240.707 218.035 241.171C217.555 241.635 217.315 242.363 217.315 243.355ZM228.004 249.883L223.084 238.243H225.988L229.348 246.787H228.508L232.06 238.243H234.988L229.636 249.883H228.004ZM224.572 254.563L228.148 247.195L229.636 249.883L227.5 254.563H224.572Z" fill="black"/>
<g clip-path="url(#clip0_2_1092)">
<path d="M355 106.661C355 178.915 433.333 224.073 496 187.946C525.084 171.18 543 140.194 543 106.661C543 34.4077 464.667 -10.7507 402 25.376C372.916 42.1425 355 73.1282 355 106.661Z" fill="white"/>
<path d="M355 106.661C355 178.915 433.333 224.073 496 187.946C525.084 171.18 543 140.194 543 106.661C543 34.4077 464.667 -10.7507 402 25.376C372.916 42.1425 355 73.1282 355 106.661Z" fill="url(#paint5_linear_2_1092)" fill-opacity="0.3"/>
<path d="M371.641 41.8279H524.357V54.6881H371.641V41.8279Z" fill="#DDD5F5"/>
<path d="M371.641 41.8279H524.357V54.6881H371.641V41.8279Z" fill="url(#paint6_linear_2_1092)"/>
<path d="M371.641 41.8279H524.357V54.6881H371.641V41.8279Z" stroke="#0D1528" stroke-linecap="round" stroke-linejoin="round"/>
<path d="M518.288 152.017C518.288 153.505 517.081 154.712 515.593 154.712H380.407C378.919 154.712 377.712 153.505 377.712 152.017V54.6855H518.288V152.017Z" fill="white"/>
<path d="M518.288 152.017C518.288 153.505 517.081 154.712 515.593 154.712H380.407C378.919 154.712 377.712 153.505 377.712 152.017V54.6855H518.288V152.017Z" stroke="#0D1528" stroke-linecap="round" stroke-linejoin="round"/>
<path d="M448 154.712V168.549" stroke="#6A7A20" stroke-linecap="round" stroke-linejoin="round"/>
<path d="M441.468 175.081C441.468 180.109 446.911 183.252 451.266 180.738C453.287 179.571 454.532 177.415 454.532 175.081C454.532 170.053 449.089 166.91 444.734 169.424C442.713 170.591 441.468 172.748 441.468 175.081Z" stroke="#6A7A20" stroke-linecap="round" stroke-linejoin="round"/>
<path d="M448 104.697L467.862 82.6597C477.767 91.6027 480.49 106.054 474.519 117.989L448 104.697Z" fill="#A6B649"/>
<path d="M448 104.697L467.862 82.6597C477.767 91.6027 480.49 106.054 474.519 117.989L448 104.697Z" fill="url(#paint7_linear_2_1092)"/>
<path d="M448 104.697L467.862 82.6597C477.767 91.6027 480.49 106.054 474.519 117.989L448 104.697Z" stroke="#6A7A20" stroke-linecap="round" stroke-linejoin="round"/>
<path d="M474.519 117.989C464.283 138.402 435.787 140.079 423.227 121.008C422.865 120.458 422.521 119.897 422.197 119.324L448 104.698L474.519 117.989Z" fill="white" stroke="#6A7A20" stroke-linecap="round" stroke-linejoin="round"/>
<path d="M422.197 119.324C410.937 99.4593 425.403 74.8547 448.236 75.0353C448.975 75.0413 449.714 75.0747 450.45 75.1357L448 104.697L422.197 119.324Z" fill="#A6B649"/>
<path d="M422.197 119.324C410.937 99.4593 425.403 74.8547 448.236 75.0353C448.975 75.0413 449.714 75.0747 450.45 75.1357L448 104.697L422.197 119.324Z" fill="url(#paint8_linear_2_1092)"/>
<path d="M422.197 119.324C410.937 99.4593 425.403 74.8547 448.236 75.0353C448.975 75.0413 449.714 75.0747 450.45 75.1357L448 104.697L422.197 119.324Z" stroke="#6A7A20" stroke-linecap="round" stroke-linejoin="round"/>
<path d="M450.45 75.1357C456.922 75.6749 463.04 78.3175 467.87 82.6597L448 104.698L450.45 75.1357Z" fill="white" stroke="#6A7A20" stroke-linecap="round" stroke-linejoin="round"/>
<path d="M487.077 68.6481H505.467" stroke="#6A7A20" stroke-linecap="round" stroke-linejoin="round"/>
<path d="M492.494 100.324H505.467" stroke="#6A7A20" stroke-linecap="round" stroke-linejoin="round"/>
<path d="M395.528 142.739H415.672" stroke="#6A7A20" stroke-linecap="round" stroke-linejoin="round"/>
<path d="M391.429 75.1357H411.233" stroke="#6A7A20" stroke-linecap="round" stroke-linejoin="round"/>
<path d="M401.332 82.6597V89.9165L425.916 98.6925" stroke="#6A7A20" stroke-linecap="round" stroke-linejoin="round"/>
<path d="M425.916 142.739H431.715C432.627 142.739 433.476 142.278 433.974 141.514L446.06 122.938" stroke="#6A7A20" stroke-linecap="round" stroke-linejoin="round"/>
<path d="M477.665 68.6481H467.862L457.93 82.6597" stroke="#6A7A20" stroke-linecap="round" stroke-linejoin="round"/>
<path d="M496.272 104.7L492.494 109.277H472.008" stroke="#6A7A20" stroke-linecap="round" stroke-linejoin="round"/>
</g>
<path d="M344.868 249.763L338.076 232.963H341.076L346.38 246.571H345.324L350.676 232.963H353.628L346.788 249.763H344.868ZM358.447 250.003C357.327 250.003 356.311 249.739 355.399 249.211C354.487 248.667 353.759 247.939 353.215 247.027C352.687 246.115 352.423 245.099 352.423 243.979C352.423 242.859 352.687 241.851 353.215 240.955C353.759 240.059 354.487 239.347 355.399 238.819C356.311 238.275 357.327 238.003 358.447 238.003C359.583 238.003 360.607 238.267 361.519 238.795C362.431 239.323 363.151 240.043 363.679 240.955C364.223 241.851 364.495 242.859 364.495 243.979C364.495 245.099 364.223 246.115 363.679 247.027C363.151 247.939 362.431 248.667 361.519 249.211C360.607 249.739 359.583 250.003 358.447 250.003ZM358.447 247.459C359.103 247.459 359.679 247.315 360.175 247.027C360.687 246.723 361.079 246.307 361.351 245.779C361.639 245.251 361.783 244.651 361.783 243.979C361.783 243.307 361.639 242.715 361.351 242.203C361.063 241.691 360.671 241.291 360.175 241.003C359.679 240.699 359.103 240.547 358.447 240.547C357.807 240.547 357.231 240.699 356.719 241.003C356.223 241.291 355.831 241.691 355.543 242.203C355.271 242.715 355.135 243.307 355.135 243.979C355.135 244.651 355.271 245.251 355.543 245.779C355.831 246.307 356.223 246.723 356.719 247.027C357.231 247.315 357.807 247.459 358.447 247.459ZM368.114 249.763V233.443H370.754V249.763H368.114ZM365.354 240.643V238.243H373.514V240.643H365.354ZM380.457 250.003C379.305 250.003 378.265 249.747 377.337 249.235C376.425 248.707 375.697 247.987 375.153 247.075C374.625 246.163 374.361 245.139 374.361 244.003C374.361 242.867 374.625 241.851 375.153 240.955C375.681 240.043 376.393 239.323 377.289 238.795C378.201 238.267 379.209 238.003 380.313 238.003C381.385 238.003 382.329 238.251 383.145 238.747C383.977 239.243 384.625 239.923 385.089 240.787C385.569 241.651 385.809 242.635 385.809 243.739C385.809 243.931 385.793 244.131 385.761 244.339C385.745 244.531 385.713 244.747 385.665 244.987H376.209V242.827H384.297L383.313 243.691C383.281 242.987 383.145 242.395 382.905 241.915C382.665 241.435 382.321 241.067 381.873 240.811C381.441 240.555 380.905 240.427 380.265 240.427C379.593 240.427 379.009 240.571 378.513 240.859C378.017 241.147 377.633 241.555 377.361 242.083C377.089 242.595 376.953 243.211 376.953 243.931C376.953 244.651 377.097 245.283 377.385 245.827C377.673 246.371 378.081 246.795 378.609 247.099C379.137 247.387 379.745 247.531 380.433 247.531C381.025 247.531 381.569 247.427 382.065 247.219C382.577 247.011 383.009 246.707 383.361 246.307L385.041 248.011C384.481 248.667 383.801 249.163 383.001 249.499C382.201 249.835 381.353 250.003 380.457 250.003ZM387.925 249.763V238.243H390.565V249.763H387.925ZM390.565 243.355L389.653 242.899C389.653 241.443 389.973 240.267 390.613 239.371C391.269 238.459 392.253 238.003 393.565 238.003C394.141 238.003 394.661 238.107 395.125 238.315C395.589 238.523 396.021 238.859 396.421 239.323L394.693 241.099C394.485 240.875 394.253 240.715 393.997 240.619C393.741 240.523 393.445 240.475 393.109 240.475C392.373 240.475 391.765 240.707 391.285 241.171C390.805 241.635 390.565 242.363 390.565 243.355ZM405.181 249.763V247.243H409.597C410.749 247.243 411.757 246.995 412.621 246.499C413.501 246.003 414.181 245.315 414.661 244.435C415.157 243.539 415.405 242.507 415.405 241.339C415.405 240.187 415.157 239.171 414.661 238.291C414.165 237.411 413.477 236.723 412.597 236.227C411.733 235.731 410.733 235.483 409.597 235.483H405.181V232.963H409.669C410.885 232.963 412.013 233.179 413.053 233.611C414.093 234.027 414.997 234.619 415.765 235.387C416.549 236.139 417.157 237.027 417.589 238.051C418.021 239.059 418.237 240.163 418.237 241.363C418.237 242.547 418.021 243.651 417.589 244.675C417.157 245.699 416.557 246.595 415.789 247.363C415.021 248.115 414.117 248.707 413.077 249.139C412.037 249.555 410.917 249.763 409.717 249.763H405.181ZM403.285 249.763V232.963H406.045V249.763H403.285ZM426.043 250.003C424.891 250.003 423.851 249.747 422.923 249.235C422.011 248.707 421.283 247.987 420.739 247.075C420.211 246.163 419.947 245.139 419.947 244.003C419.947 242.867 420.211 241.851 420.739 240.955C421.267 240.043 421.979 239.323 422.875 238.795C423.787 238.267 424.795 238.003 425.899 238.003C426.971 238.003 427.915 238.251 428.731 238.747C429.563 239.243 430.211 239.923 430.675 240.787C431.155 241.651 431.395 242.635 431.395 243.739C431.395 243.931 431.379 244.131 431.347 244.339C431.331 244.531 431.299 244.747 431.251 244.987H421.795V242.827H429.883L428.899 243.691C428.867 242.987 428.731 242.395 428.491 241.915C428.251 241.435 427.907 241.067 427.459 240.811C427.027 240.555 426.491 240.427 425.851 240.427C425.179 240.427 424.595 240.571 424.099 240.859C423.603 241.147 423.219 241.555 422.947 242.083C422.675 242.595 422.539 243.211 422.539 243.931C422.539 244.651 422.683 245.283 422.971 245.827C423.259 246.371 423.667 246.795 424.195 247.099C424.723 247.387 425.331 247.531 426.019 247.531C426.611 247.531 427.155 247.427 427.651 247.219C428.163 247.011 428.595 246.707 428.947 246.307L430.627 248.011C430.067 248.667 429.387 249.163 428.587 249.499C427.787 249.835 426.939 250.003 426.043 250.003ZM433.511 249.763V238.243H436.151V249.763H433.511ZM441.167 249.763V242.899C441.167 242.131 440.927 241.539 440.447 241.123C439.967 240.691 439.375 240.475 438.671 240.475C438.191 240.475 437.759 240.571 437.375 240.763C437.007 240.955 436.711 241.235 436.487 241.603C436.263 241.955 436.151 242.387 436.151 242.899L435.119 242.323C435.119 241.443 435.311 240.683 435.695 240.043C436.079 239.403 436.599 238.907 437.255 238.555C437.911 238.187 438.647 238.003 439.463 238.003C440.279 238.003 441.015 238.179 441.671 238.531C442.327 238.883 442.847 239.379 443.231 240.019C443.615 240.659 443.807 241.427 443.807 242.323V249.763H441.167ZM448.823 249.763V242.899C448.823 242.131 448.583 241.539 448.103 241.123C447.623 240.691 447.031 240.475 446.327 240.475C445.863 240.475 445.439 240.571 445.055 240.763C444.671 240.955 444.367 241.235 444.143 241.603C443.919 241.955 443.807 242.387 443.807 242.899L442.319 242.323C442.399 241.443 442.655 240.683 443.087 240.043C443.519 239.403 444.071 238.907 444.743 238.555C445.431 238.187 446.183 238.003 446.999 238.003C447.831 238.003 448.583 238.179 449.255 238.531C449.927 238.883 450.463 239.379 450.863 240.019C451.263 240.659 451.463 241.427 451.463 242.323V249.763H448.823ZM459.463 250.003C458.343 250.003 457.327 249.739 456.415 249.211C455.503 248.667 454.775 247.939 454.231 247.027C453.703 246.115 453.439 245.099 453.439 243.979C453.439 242.859 453.703 241.851 454.231 240.955C454.775 240.059 455.503 239.347 456.415 238.819C457.327 238.275 458.343 238.003 459.463 238.003C460.599 238.003 461.623 238.267 462.535 238.795C463.447 239.323 464.167 240.043 464.695 240.955C465.239 241.851 465.511 242.859 465.511 243.979C465.511 245.099 465.239 246.115 464.695 247.027C464.167 247.939 463.447 248.667 462.535 249.211C461.623 249.739 460.599 250.003 459.463 250.003ZM459.463 247.459C460.119 247.459 460.695 247.315 461.191 247.027C461.703 246.723 462.095 246.307 462.367 245.779C462.655 245.251 462.799 244.651 462.799 243.979C462.799 243.307 462.655 242.715 462.367 242.203C462.079 241.691 461.687 241.291 461.191 241.003C460.695 240.699 460.119 240.547 459.463 240.547C458.823 240.547 458.247 240.699 457.735 241.003C457.239 241.291 456.847 241.691 456.559 242.203C456.287 242.715 456.151 243.307 456.151 243.979C456.151 244.651 456.287 245.251 456.559 245.779C456.847 246.307 457.239 246.723 457.735 247.027C458.247 247.315 458.823 247.459 459.463 247.459ZM472.506 254.803C471.29 254.803 470.226 254.579 469.314 254.131C468.402 253.699 467.666 253.083 467.106 252.283L468.834 250.555C469.298 251.131 469.826 251.563 470.418 251.851C471.01 252.139 471.722 252.283 472.554 252.283C473.594 252.283 474.418 252.011 475.026 251.467C475.634 250.939 475.938 250.211 475.938 249.283V246.451L476.394 243.907L475.938 241.339V238.243H478.578V249.283C478.578 250.387 478.322 251.347 477.81 252.163C477.298 252.995 476.586 253.643 475.674 254.107C474.762 254.571 473.706 254.803 472.506 254.803ZM472.386 249.523C471.362 249.523 470.434 249.275 469.602 248.779C468.786 248.267 468.138 247.571 467.658 246.691C467.194 245.811 466.962 244.827 466.962 243.739C466.962 242.651 467.194 241.675 467.658 240.811C468.138 239.947 468.786 239.267 469.602 238.771C470.434 238.259 471.362 238.003 472.386 238.003C473.298 238.003 474.098 238.187 474.786 238.555C475.474 238.923 476.01 239.435 476.394 240.091C476.778 240.731 476.97 241.483 476.97 242.347V245.179C476.97 246.027 476.77 246.779 476.37 247.435C475.986 248.091 475.45 248.603 474.762 248.971C474.074 249.339 473.282 249.523 472.386 249.523ZM472.914 247.027C473.554 247.027 474.114 246.891 474.594 246.619C475.074 246.347 475.442 245.971 475.698 245.491C475.97 244.995 476.106 244.419 476.106 243.763C476.106 243.107 475.97 242.539 475.698 242.059C475.442 241.563 475.074 241.179 474.594 240.907C474.114 240.635 473.554 240.499 472.914 240.499C472.274 240.499 471.706 240.635 471.21 240.907C470.73 241.179 470.354 241.563 470.082 242.059C469.81 242.539 469.674 243.107 469.674 243.763C469.674 244.403 469.81 244.971 470.082 245.467C470.354 245.963 470.73 246.347 471.21 246.619C471.706 246.891 472.274 247.027 472.914 247.027ZM481.511 249.763V238.243H484.151V249.763H481.511ZM484.151 243.355L483.239 242.899C483.239 241.443 483.559 240.267 484.199 239.371C484.855 238.459 485.839 238.003 487.151 238.003C487.727 238.003 488.247 238.107 488.711 238.315C489.175 238.523 489.607 238.859 490.007 239.323L488.279 241.099C488.071 240.875 487.839 240.715 487.583 240.619C487.327 240.523 487.031 240.475 486.695 240.475C485.959 240.475 485.351 240.707 484.871 241.171C484.391 241.635 484.151 242.363 484.151 243.355ZM495.757 250.003C494.717 250.003 493.773 249.739 492.925 249.211C492.093 248.683 491.429 247.971 490.933 247.075C490.453 246.163 490.213 245.147 490.213 244.027C490.213 242.891 490.453 241.875 490.933 240.979C491.429 240.067 492.093 239.347 492.925 238.819C493.773 238.275 494.717 238.003 495.757 238.003C496.637 238.003 497.413 238.195 498.085 238.579C498.773 238.947 499.317 239.459 499.717 240.115C500.117 240.771 500.317 241.515 500.317 242.347V245.659C500.317 246.491 500.117 247.235 499.717 247.891C499.333 248.547 498.797 249.067 498.109 249.451C497.421 249.819 496.637 250.003 495.757 250.003ZM496.189 247.507C497.165 247.507 497.949 247.179 498.541 246.523C499.149 245.867 499.453 245.027 499.453 244.003C499.453 243.315 499.317 242.707 499.045 242.179C498.773 241.651 498.389 241.243 497.893 240.955C497.413 240.651 496.845 240.499 496.189 240.499C495.549 240.499 494.981 240.651 494.485 240.955C494.005 241.243 493.621 241.651 493.333 242.179C493.061 242.707 492.925 243.315 492.925 244.003C492.925 244.691 493.061 245.299 493.333 245.827C493.621 246.355 494.005 246.771 494.485 247.075C494.981 247.363 495.549 247.507 496.189 247.507ZM499.285 249.763V246.667L499.741 243.859L499.285 241.075V238.243H501.925V249.763H499.285ZM511.023 250.003C510.143 250.003 509.359 249.819 508.671 249.451C507.983 249.067 507.439 248.547 507.039 247.891C506.655 247.235 506.463 246.491 506.463 245.659V242.347C506.463 241.515 506.663 240.771 507.063 240.115C507.463 239.459 508.007 238.947 508.695 238.579C509.383 238.195 510.159 238.003 511.023 238.003C512.063 238.003 512.999 238.275 513.831 238.819C514.679 239.347 515.343 240.067 515.823 240.979C516.319 241.875 516.567 242.891 516.567 244.027C516.567 245.147 516.319 246.163 515.823 247.075C515.343 247.971 514.679 248.683 513.831 249.211C512.999 249.739 512.063 250.003 511.023 250.003ZM510.591 247.507C511.231 247.507 511.791 247.363 512.271 247.075C512.767 246.771 513.151 246.355 513.423 245.827C513.711 245.299 513.855 244.691 513.855 244.003C513.855 243.315 513.711 242.707 513.423 242.179C513.151 241.651 512.767 241.243 512.271 240.955C511.791 240.651 511.231 240.499 510.591 240.499C509.951 240.499 509.383 240.651 508.887 240.955C508.391 241.243 508.007 241.651 507.735 242.179C507.463 242.707 507.327 243.315 507.327 244.003C507.327 244.691 507.463 245.299 507.735 245.827C508.007 246.355 508.391 246.771 508.887 247.075C509.383 247.363 509.951 247.507 510.591 247.507ZM504.855 254.563V238.243H507.495V241.339L507.039 244.147L507.495 246.931V254.563H504.855ZM526.673 249.763V243.115C526.673 242.347 526.425 241.715 525.929 241.219C525.449 240.723 524.825 240.475 524.057 240.475C523.545 240.475 523.089 240.587 522.689 240.811C522.289 241.035 521.977 241.347 521.753 241.747C521.529 242.147 521.417 242.603 521.417 243.115L520.385 242.539C520.385 241.659 520.577 240.883 520.961 240.211C521.345 239.523 521.873 238.987 522.545 238.603C523.233 238.203 524.001 238.003 524.849 238.003C525.713 238.003 526.481 238.195 527.153 238.579C527.825 238.963 528.353 239.499 528.737 240.187C529.121 240.859 529.312 241.643 529.312 242.539V249.763H526.673ZM518.777 249.763V232.483H521.417V249.763H518.777ZM532.019 249.763V238.243H534.659V249.763H532.019ZM533.339 236.131C532.891 236.131 532.515 235.979 532.211 235.675C531.923 235.371 531.779 234.995 531.779 234.547C531.779 234.099 531.923 233.723 532.211 233.419C532.515 233.115 532.891 232.963 533.339 232.963C533.803 232.963 534.179 233.115 534.467 233.419C534.755 233.723 534.899 234.099 534.899 234.547C534.899 234.995 534.755 235.371 534.467 235.675C534.179 235.979 533.803 236.131 533.339 236.131ZM542.924 250.003C541.788 250.003 540.756 249.739 539.828 249.211C538.916 248.683 538.196 247.963 537.668 247.051C537.14 246.139 536.876 245.123 536.876 244.003C536.876 242.867 537.14 241.851 537.668 240.955C538.196 240.043 538.916 239.323 539.828 238.795C540.756 238.267 541.788 238.003 542.924 238.003C543.82 238.003 544.652 238.179 545.42 238.531C546.204 238.867 546.868 239.355 547.412 239.995L545.684 241.747C545.348 241.347 544.94 241.051 544.46 240.859C543.996 240.651 543.484 240.547 542.924 240.547C542.268 240.547 541.684 240.699 541.172 241.003C540.676 241.291 540.284 241.691 539.996 242.203C539.724 242.715 539.588 243.315 539.588 244.003C539.588 244.675 539.724 245.275 539.996 245.803C540.284 246.315 540.676 246.723 541.172 247.027C541.684 247.315 542.268 247.459 542.924 247.459C543.484 247.459 543.996 247.363 544.46 247.171C544.94 246.963 545.348 246.659 545.684 246.259L547.412 248.011C546.868 248.651 546.204 249.147 545.42 249.499C544.652 249.835 543.82 250.003 542.924 250.003ZM553.084 250.003C552.444 250.003 551.828 249.923 551.236 249.763C550.644 249.587 550.1 249.347 549.604 249.043C549.108 248.723 548.676 248.339 548.308 247.891L549.988 246.211C550.388 246.675 550.844 247.027 551.356 247.267C551.884 247.491 552.476 247.603 553.132 247.603C553.724 247.603 554.172 247.515 554.476 247.339C554.78 247.163 554.932 246.907 554.932 246.571C554.932 246.219 554.788 245.947 554.5 245.755C554.212 245.563 553.836 245.403 553.372 245.275C552.924 245.131 552.444 244.987 551.932 244.843C551.436 244.699 550.956 244.507 550.492 244.267C550.044 244.011 549.676 243.667 549.388 243.235C549.1 242.803 548.956 242.243 548.956 241.555C548.956 240.819 549.124 240.187 549.46 239.659C549.812 239.131 550.3 238.723 550.924 238.435C551.564 238.147 552.324 238.003 553.204 238.003C554.132 238.003 554.948 238.171 555.652 238.507C556.372 238.827 556.972 239.315 557.452 239.971L555.772 241.651C555.436 241.235 555.052 240.923 554.62 240.715C554.188 240.507 553.692 240.403 553.132 240.403C552.604 240.403 552.196 240.483 551.908 240.643C551.62 240.803 551.476 241.035 551.476 241.339C551.476 241.659 551.62 241.907 551.908 242.083C552.196 242.259 552.564 242.411 553.012 242.539C553.476 242.667 553.956 242.811 554.452 242.971C554.964 243.115 555.444 243.323 555.892 243.595C556.356 243.851 556.732 244.203 557.02 244.651C557.308 245.083 557.452 245.651 557.452 246.355C557.452 247.475 557.06 248.363 556.276 249.019C555.492 249.675 554.428 250.003 553.084 250.003Z" fill="black"/>
<path d="M638 100.763C638 176.203 719.667 223.353 785 185.633C815.321 168.127 834 135.775 834 100.763C834 25.3223 752.333 -21.8281 687 15.8923C656.679 33.3983 638 65.7507 638 100.763Z" fill="white"/>
<path d="M638 100.763C638 176.203 719.667 223.353 785 185.633C815.321 168.127 834 135.775 834 100.763C834 25.3223 752.333 -21.8281 687 15.8923C656.679 33.3983 638 65.7507 638 100.763Z" fill="url(#paint9_linear_2_1092)" fill-opacity="0.3"/>
<path d="M775.759 65.2376H761.97V44.5573H770.545C773.431 44.5559 775.771 46.8949 775.771 49.7807L775.759 65.2376Z" fill="#B0D9FF"/>
<path d="M775.759 65.2376H761.97V44.5573H770.545C773.431 44.5559 775.771 46.8949 775.771 49.7807L775.759 65.2376Z" fill="#DDD5F5"/>
<path d="M775.759 65.2376H761.97V44.5573H770.545C773.431 44.5559 775.771 46.8949 775.771 49.7807L775.759 65.2376Z" fill="url(#paint10_linear_2_1092)"/>
<path d="M679.209 34.2109H761.965V144.554H679.209V34.2109Z" fill="white"/>
<path d="M761.965 85.9353H775.759V106.626H761.965V85.9353Z" fill="#B0D9FF"/>
<path d="M761.965 85.9353H775.759V106.626H761.965V85.9353Z" fill="#DDD5F5"/>
<path d="M761.965 85.9353H775.759V106.626H761.965V85.9353Z" fill="url(#paint11_linear_2_1092)"/>
<path d="M761.965 65.2451H775.759V85.9353H761.965V65.2451Z" fill="white"/>
<path d="M679.209 34.2109H761.965V144.554H679.209V34.2109Z" stroke="#020064" stroke-linejoin="round"/>
<path d="M775.759 65.2376H761.97V44.5573H770.545C773.431 44.5559 775.771 46.8949 775.771 49.7807L775.759 65.2376Z" stroke="#020064" stroke-linejoin="round"/>
<path d="M761.965 65.2451H775.759V85.9353H761.965V65.2451Z" stroke="#020064" stroke-linejoin="round"/>
<path d="M761.965 85.9353H775.759V106.626H761.965V85.9353Z" stroke="#020064" stroke-linejoin="round"/>
<path d="M770.545 127.313H761.97V106.625H775.763V122.078C775.769 124.965 773.432 127.309 770.545 127.313Z" fill="white" stroke="#020064" stroke-linejoin="round"/>
<path d="M687.828 48.0043C687.828 49.9091 686.283 51.4529 684.378 51.4515H675.759C673.106 51.4451 671.454 48.5685 672.787 46.2737C673.402 45.2137 674.534 44.5603 675.759 44.5573H684.378C686.283 44.5559 687.828 46.0995 687.828 48.0043Z" fill="#B0D9FF"/>
<path d="M687.828 48.0043C687.828 49.9091 686.283 51.4529 684.378 51.4515H675.759C673.106 51.4451 671.454 48.5685 672.787 46.2737C673.402 45.2137 674.534 44.5603 675.759 44.5573H684.378C686.283 44.5559 687.828 46.0995 687.828 48.0043Z" fill="#B0D9FF"/>
<path d="M687.828 48.0043C687.828 49.9091 686.283 51.4529 684.378 51.4515H675.759C673.106 51.4451 671.454 48.5685 672.787 46.2737C673.402 45.2137 674.534 44.5603 675.759 44.5573H684.378C686.283 44.5559 687.828 46.0995 687.828 48.0043Z" fill="#DDD5F5"/>
<path d="M687.828 48.0043C687.828 49.9091 686.283 51.4529 684.378 51.4515H675.759C673.106 51.4451 671.454 48.5685 672.787 46.2737C673.402 45.2137 674.534 44.5603 675.759 44.5573H684.378C686.283 44.5559 687.828 46.0995 687.828 48.0043Z" fill="url(#paint12_linear_2_1092)"/>
<path d="M687.828 48.0043C687.828 49.9091 686.283 51.4529 684.378 51.4515H675.759C673.106 51.4451 671.454 48.5685 672.787 46.2737C673.402 45.2137 674.534 44.5603 675.759 44.5573H684.378C686.283 44.5559 687.828 46.0995 687.828 48.0043Z" stroke="#020064" stroke-linecap="round" stroke-linejoin="round"/>
<path d="M687.828 68.6921C687.828 70.5973 686.284 72.1417 684.378 72.1417H675.759C673.105 72.0709 671.523 69.1529 672.911 66.8895C673.521 65.8949 674.593 65.2763 675.759 65.2451H684.378C686.283 65.2437 687.828 66.7873 687.828 68.6921Z" fill="#B0D9FF"/>
<path d="M687.828 68.6921C687.828 70.5973 686.284 72.1417 684.378 72.1417H675.759C673.105 72.0709 671.523 69.1529 672.911 66.8895C673.521 65.8949 674.593 65.2763 675.759 65.2451H684.378C686.283 65.2437 687.828 66.7873 687.828 68.6921Z" fill="#B0D9FF"/>
<path d="M687.828 68.6921C687.828 70.5973 686.284 72.1417 684.378 72.1417H675.759C673.105 72.0709 671.523 69.1529 672.911 66.8895C673.521 65.8949 674.593 65.2763 675.759 65.2451H684.378C686.283 65.2437 687.828 66.7873 687.828 68.6921Z" fill="#DDD5F5"/>
<path d="M687.828 68.6921C687.828 70.5973 686.284 72.1417 684.378 72.1417H675.759C673.105 72.0709 671.523 69.1529 672.911 66.8895C673.521 65.8949 674.593 65.2763 675.759 65.2451H684.378C686.283 65.2437 687.828 66.7873 687.828 68.6921Z" fill="url(#paint13_linear_2_1092)"/>
<path d="M687.828 68.6921C687.828 70.5973 686.284 72.1417 684.378 72.1417H675.759C673.105 72.0709 671.523 69.1529 672.911 66.8895C673.521 65.8949 674.593 65.2763 675.759 65.2451H684.378C686.283 65.2437 687.828 66.7873 687.828 68.6921Z" stroke="#020064" stroke-linecap="round" stroke-linejoin="round"/>
<path d="M687.828 89.3825C687.828 91.2877 686.284 92.8321 684.378 92.8321H675.759C673.105 92.7611 671.523 89.8431 672.911 87.5797C673.521 86.5851 674.593 85.9665 675.759 85.9353H684.378C686.283 85.9339 687.828 87.4777 687.828 89.3825Z" fill="#B0D9FF"/>
<path d="M687.828 89.3825C687.828 91.2877 686.284 92.8321 684.378 92.8321H675.759C673.105 92.7611 671.523 89.8431 672.911 87.5797C673.521 86.5851 674.593 85.9665 675.759 85.9353H684.378C686.283 85.9339 687.828 87.4777 687.828 89.3825Z" fill="#B0D9FF"/>
<path d="M687.828 89.3825C687.828 91.2877 686.284 92.8321 684.378 92.8321H675.759C673.105 92.7611 671.523 89.8431 672.911 87.5797C673.521 86.5851 674.593 85.9665 675.759 85.9353H684.378C686.283 85.9339 687.828 87.4777 687.828 89.3825Z" fill="#DDD5F5"/>
<path d="M687.828 89.3825C687.828 91.2877 686.284 92.8321 684.378 92.8321H675.759C673.105 92.7611 671.523 89.8431 672.911 87.5797C673.521 86.5851 674.593 85.9665 675.759 85.9353H684.378C686.283 85.9339 687.828 87.4777 687.828 89.3825Z" fill="url(#paint14_linear_2_1092)"/>
<path d="M687.828 89.3825C687.828 91.2877 686.284 92.8321 684.378 92.8321H675.759C673.105 92.7611 671.523 89.8431 672.911 87.5797C673.521 86.5851 674.593 85.9665 675.759 85.9353H684.378C686.283 85.9339 687.828 87.4777 687.828 89.3825Z" stroke="#020064" stroke-linecap="round" stroke-linejoin="round"/>
<path d="M687.828 110.281C687.828 112.186 686.284 113.73 684.378 113.73H675.759C673.105 113.66 671.523 110.742 672.911 108.478C673.521 107.484 674.593 106.865 675.759 106.834H684.378C686.283 106.832 687.828 108.376 687.828 110.281Z" fill="#B0D9FF"/>
<path d="M687.828 110.281C687.828 112.186 686.284 113.73 684.378 113.73H675.759C673.105 113.66 671.523 110.742 672.911 108.478C673.521 107.484 674.593 106.865 675.759 106.834H684.378C686.283 106.832 687.828 108.376 687.828 110.281Z" fill="#B0D9FF"/>
<path d="M687.828 110.281C687.828 112.186 686.284 113.73 684.378 113.73H675.759C673.105 113.66 671.523 110.742 672.911 108.478C673.521 107.484 674.593 106.865 675.759 106.834H684.378C686.283 106.832 687.828 108.376 687.828 110.281Z" fill="#DDD5F5"/>
<path d="M687.828 110.281C687.828 112.186 686.284 113.73 684.378 113.73H675.759C673.105 113.66 671.523 110.742 672.911 108.478C673.521 107.484 674.593 106.865 675.759 106.834H684.378C686.283 106.832 687.828 108.376 687.828 110.281Z" fill="url(#paint15_linear_2_1092)"/>
<path d="M687.828 110.281C687.828 112.186 686.284 113.73 684.378 113.73H675.759C673.105 113.66 671.523 110.742 672.911 108.478C673.521 107.484 674.593 106.865 675.759 106.834H684.378C686.283 106.832 687.828 108.376 687.828 110.281Z" stroke="#020064" stroke-linecap="round" stroke-linejoin="round"/>
<path d="M687.828 130.76C687.828 132.666 686.284 134.21 684.378 134.21H675.759C673.105 134.139 671.523 131.221 672.911 128.958C673.521 127.963 674.593 127.344 675.759 127.313H684.378C686.283 127.312 687.828 128.856 687.828 130.76Z" fill="#B0D9FF"/>
<path d="M687.828 130.76C687.828 132.666 686.284 134.21 684.378 134.21H675.759C673.105 134.139 671.523 131.221 672.911 128.958C673.521 127.963 674.593 127.344 675.759 127.313H684.378C686.283 127.312 687.828 128.856 687.828 130.76Z" fill="#B0D9FF"/>
<path d="M687.828 130.76C687.828 132.666 686.284 134.21 684.378 134.21H675.759C673.105 134.139 671.523 131.221 672.911 128.958C673.521 127.963 674.593 127.344 675.759 127.313H684.378C686.283 127.312 687.828 128.856 687.828 130.76Z" fill="#DDD5F5"/>
<path d="M687.828 130.76C687.828 132.666 686.284 134.21 684.378 134.21H675.759C673.105 134.139 671.523 131.221 672.911 128.958C673.521 127.963 674.593 127.344 675.759 127.313H684.378C686.283 127.312 687.828 128.856 687.828 130.76Z" fill="url(#paint16_linear_2_1092)"/>
<path d="M687.828 130.76C687.828 132.666 686.284 134.21 684.378 134.21H675.759C673.105 134.139 671.523 131.221 672.911 128.958C673.521 127.963 674.593 127.344 675.759 127.313H684.378C686.283 127.312 687.828 128.856 687.828 130.76Z" stroke="#020064" stroke-linecap="round" stroke-linejoin="round"/>
<path d="M788.675 87.1873L797.137 104.337C797.816 105.714 799.129 106.668 800.648 106.888L819.567 109.639C823.128 110.156 824.794 114.335 822.565 117.16C822.44 117.319 822.304 117.47 822.159 117.611L808.469 130.957C807.366 132.03 806.864 133.578 807.126 135.095L810.357 153.928C810.963 157.477 807.5 160.351 804.123 159.101C803.934 159.031 803.75 158.948 803.571 158.855L786.651 149.961C785.29 149.241 783.661 149.241 782.3 149.961L765.38 158.855C762.196 160.53 758.392 158.13 758.533 154.534C758.541 154.331 758.562 154.128 758.596 153.928L761.828 135.085C762.09 133.568 761.588 132.02 760.485 130.947L746.795 117.601C744.217 115.093 745.322 110.735 748.783 109.757C748.98 109.701 749.181 109.659 749.384 109.629L768.306 106.888C769.828 106.668 771.144 105.712 771.824 104.332L780.284 87.1823C781.872 83.9535 786.361 83.6551 788.363 86.6453C788.479 86.8189 788.583 86.9999 788.675 87.1873Z" fill="#B0D9FF"/>
<path d="M788.675 87.1873L797.137 104.337C797.816 105.714 799.129 106.668 800.648 106.888L819.567 109.639C823.128 110.156 824.794 114.335 822.565 117.16C822.44 117.319 822.304 117.47 822.159 117.611L808.469 130.957C807.366 132.03 806.864 133.578 807.126 135.095L810.357 153.928C810.963 157.477 807.5 160.351 804.123 159.101C803.934 159.031 803.75 158.948 803.571 158.855L786.651 149.961C785.29 149.241 783.661 149.241 782.3 149.961L765.38 158.855C762.196 160.53 758.392 158.13 758.533 154.534C758.541 154.331 758.562 154.128 758.596 153.928L761.828 135.085C762.09 133.568 761.588 132.02 760.485 130.947L746.795 117.601C744.217 115.093 745.322 110.735 748.783 109.757C748.98 109.701 749.181 109.659 749.384 109.629L768.306 106.888C769.828 106.668 771.144 105.712 771.824 104.332L780.284 87.1823C781.872 83.9535 786.361 83.6551 788.363 86.6453C788.479 86.8189 788.583 86.9999 788.675 87.1873Z" fill="#DDD5F5"/>
<path d="M788.675 87.1873L797.137 104.337C797.816 105.714 799.129 106.668 800.648 106.888L819.567 109.639C823.128 110.156 824.794 114.335 822.565 117.16C822.44 117.319 822.304 117.47 822.159 117.611L808.469 130.957C807.366 132.03 806.864 133.578 807.126 135.095L810.357 153.928C810.963 157.477 807.5 160.351 804.123 159.101C803.934 159.031 803.75 158.948 803.571 158.855L786.651 149.961C785.29 149.241 783.661 149.241 782.3 149.961L765.38 158.855C762.196 160.53 758.392 158.13 758.533 154.534C758.541 154.331 758.562 154.128 758.596 153.928L761.828 135.085C762.09 133.568 761.588 132.02 760.485 130.947L746.795 117.601C744.217 115.093 745.322 110.735 748.783 109.757C748.98 109.701 749.181 109.659 749.384 109.629L768.306 106.888C769.828 106.668 771.144 105.712 771.824 104.332L780.284 87.1823C781.872 83.9535 786.361 83.6551 788.363 86.6453C788.479 86.8189 788.583 86.9999 788.675 87.1873Z" fill="url(#paint17_linear_2_1092)"/>
<path d="M788.675 87.1873L797.137 104.337C797.816 105.714 799.129 106.668 800.648 106.888L819.567 109.639C823.128 110.156 824.794 114.335 822.565 117.16C822.44 117.319 822.304 117.47 822.159 117.611L808.469 130.957C807.366 132.03 806.864 133.578 807.126 135.095L810.357 153.928C810.963 157.477 807.5 160.351 804.123 159.101C803.934 159.031 803.75 158.948 803.571 158.855L786.651 149.961C785.29 149.241 783.661 149.241 782.3 149.961L765.38 158.855C762.196 160.53 758.392 158.13 758.533 154.534C758.541 154.331 758.562 154.128 758.596 153.928L761.828 135.085C762.09 133.568 761.588 132.02 760.485 130.947L746.795 117.601C744.217 115.093 745.322 110.735 748.783 109.757C748.98 109.701 749.181 109.659 749.384 109.629L768.306 106.888C769.828 106.668 771.144 105.712 771.824 104.332L780.284 87.1823C781.872 83.9535 786.361 83.6551 788.363 86.6453C788.479 86.8189 788.583 86.9999 788.675 87.1873Z" stroke="#020064" stroke-linecap="round" stroke-linejoin="round"/>
<path opacity="0.1" d="M677.741 171.124C677.741 174.71 716.562 176.95 747.618 175.158C762.031 174.326 770.91 172.788 770.91 171.124C770.91 167.539 732.09 165.298 701.034 167.091C686.62 167.923 677.741 169.46 677.741 171.124Z" fill="#DDD5F5"/>
<path d="M704.182 52.8113H740.753V89.3825H704.182V52.8113Z" fill="#B0D9FF"/>
<path d="M704.182 52.8113H740.753V89.3825H704.182V52.8113Z" fill="#DDD5F5"/>
<path d="M704.182 52.8113H740.753V89.3825H704.182V52.8113Z" fill="url(#paint18_linear_2_1092)"/>
<path d="M704.182 52.8113H740.753V89.3825H704.182V52.8113Z" stroke="#020064" stroke-linejoin="round"/>
<path d="M705.532 102.446H739.403V125.956H705.532V102.446Z" fill="#B0D9FF"/>
<path d="M705.532 102.446H739.403V125.956H705.532V102.446Z" fill="#DDD5F5"/>
<path d="M705.532 102.446H739.403V125.956H705.532V102.446Z" fill="url(#paint19_linear_2_1092)"/>
<path d="M705.532 102.446H739.403V125.956H705.532V102.446Z" stroke="#020064" stroke-linejoin="round"/>
<path d="M712.019 110.281H732.915" stroke="#020064" stroke-linecap="round" stroke-linejoin="round"/>
<path d="M712.019 118.119H732.915" stroke="#020064" stroke-linecap="round" stroke-linejoin="round"/>
<path d="M716.459 69.1063C716.552 73.7317 721.618 76.5213 725.577 74.1275C727.34 73.0613 728.434 71.1663 728.476 69.1063V66.1025C728.57 61.4771 723.622 58.4845 719.569 60.7159C717.611 61.7935 716.413 63.8685 716.459 66.1025V69.1063Z" fill="white" stroke="#020064"/>
<path d="M708.95 89.3825V88.6327C708.81 78.2267 719.987 71.5715 729.069 76.6535C733.397 79.0755 736.052 83.6733 735.985 88.6327V89.3825H708.95Z" fill="white" stroke="#020064" stroke-linejoin="round"/>
<path d="M635.956 250.003C634.74 250.003 633.612 249.787 632.572 249.355C631.548 248.907 630.652 248.291 629.884 247.507C629.116 246.707 628.524 245.787 628.108 244.747C627.692 243.691 627.484 242.563 627.484 241.363C627.484 240.163 627.692 239.043 628.108 238.003C628.524 236.947 629.116 236.027 629.884 235.243C630.652 234.459 631.548 233.843 632.572 233.395C633.612 232.947 634.74 232.723 635.956 232.723C637.316 232.723 638.492 232.947 639.484 233.395C640.476 233.843 641.356 234.451 642.124 235.219L640.252 237.091C639.756 236.547 639.148 236.123 638.428 235.819C637.724 235.515 636.9 235.363 635.956 235.363C635.124 235.363 634.364 235.507 633.676 235.795C632.988 236.083 632.388 236.499 631.876 237.043C631.38 237.571 630.996 238.203 630.724 238.939C630.452 239.675 630.316 240.483 630.316 241.363C630.316 242.243 630.452 243.051 630.724 243.787C630.996 244.523 631.38 245.163 631.876 245.707C632.388 246.235 632.988 246.643 633.676 246.931C634.364 247.219 635.124 247.363 635.956 247.363C636.98 247.363 637.844 247.211 638.548 246.907C639.268 246.587 639.876 246.155 640.372 245.611L642.244 247.483C641.476 248.267 640.572 248.883 639.532 249.331C638.492 249.779 637.3 250.003 635.956 250.003ZM649.275 250.003C648.155 250.003 647.139 249.739 646.227 249.211C645.315 248.667 644.587 247.939 644.043 247.027C643.515 246.115 643.251 245.099 643.251 243.979C643.251 242.859 643.515 241.851 644.043 240.955C644.587 240.059 645.315 239.347 646.227 238.819C647.139 238.275 648.155 238.003 649.275 238.003C650.411 238.003 651.435 238.267 652.347 238.795C653.259 239.323 653.979 240.043 654.507 240.955C655.051 241.851 655.323 242.859 655.323 243.979C655.323 245.099 655.051 246.115 654.507 247.027C653.979 247.939 653.259 248.667 652.347 249.211C651.435 249.739 650.411 250.003 649.275 250.003ZM649.275 247.459C649.931 247.459 650.507 247.315 651.003 247.027C651.515 246.723 651.907 246.307 652.179 245.779C652.467 245.251 652.611 244.651 652.611 243.979C652.611 243.307 652.467 242.715 652.179 242.203C651.891 241.691 651.499 241.291 651.003 241.003C650.507 240.699 649.931 240.547 649.275 240.547C648.635 240.547 648.059 240.699 647.547 241.003C647.051 241.291 646.659 241.691 646.371 242.203C646.099 242.715 645.963 243.307 645.963 243.979C645.963 244.651 646.099 245.251 646.371 245.779C646.659 246.307 647.051 246.723 647.547 247.027C648.059 247.315 648.635 247.459 649.275 247.459ZM665.415 249.763V243.115C665.415 242.347 665.167 241.715 664.671 241.219C664.191 240.723 663.567 240.475 662.799 240.475C662.287 240.475 661.831 240.587 661.431 240.811C661.031 241.035 660.719 241.347 660.495 241.747C660.271 242.147 660.159 242.603 660.159 243.115L659.127 242.539C659.127 241.659 659.319 240.883 659.703 240.211C660.087 239.523 660.615 238.987 661.287 238.603C661.975 238.203 662.743 238.003 663.591 238.003C664.455 238.003 665.223 238.227 665.895 238.675C666.567 239.107 667.095 239.675 667.479 240.379C667.863 241.067 668.055 241.787 668.055 242.539V249.763H665.415ZM657.519 249.763V238.243H660.159V249.763H657.519ZM672.349 249.763V233.443H674.989V249.763H672.349ZM669.589 240.643V238.243H677.749V240.643H669.589ZM684.163 250.003C683.123 250.003 682.179 249.739 681.331 249.211C680.499 248.683 679.835 247.971 679.339 247.075C678.859 246.163 678.619 245.147 678.619 244.027C678.619 242.891 678.859 241.875 679.339 240.979C679.835 240.067 680.499 239.347 681.331 238.819C682.179 238.275 683.123 238.003 684.163 238.003C685.043 238.003 685.819 238.195 686.491 238.579C687.179 238.947 687.723 239.459 688.123 240.115C688.523 240.771 688.723 241.515 688.723 242.347V245.659C688.723 246.491 688.523 247.235 688.123 247.891C687.739 248.547 687.203 249.067 686.515 249.451C685.827 249.819 685.043 250.003 684.163 250.003ZM684.595 247.507C685.571 247.507 686.355 247.179 686.947 246.523C687.555 245.867 687.859 245.027 687.859 244.003C687.859 243.315 687.723 242.707 687.451 242.179C687.179 241.651 686.795 241.243 686.299 240.955C685.819 240.651 685.251 240.499 684.595 240.499C683.955 240.499 683.387 240.651 682.891 240.955C682.411 241.243 682.027 241.651 681.739 242.179C681.467 242.707 681.331 243.315 681.331 244.003C681.331 244.691 681.467 245.299 681.739 245.827C682.027 246.355 682.411 246.771 682.891 247.075C683.387 247.363 683.955 247.507 684.595 247.507ZM687.691 249.763V246.667L688.147 243.859L687.691 241.075V238.243H690.331V249.763H687.691ZM698.565 250.003C697.429 250.003 696.397 249.739 695.469 249.211C694.557 248.683 693.837 247.963 693.309 247.051C692.781 246.139 692.517 245.123 692.517 244.003C692.517 242.867 692.781 241.851 693.309 240.955C693.837 240.043 694.557 239.323 695.469 238.795C696.397 238.267 697.429 238.003 698.565 238.003C699.461 238.003 700.293 238.179 701.061 238.531C701.845 238.867 702.509 239.355 703.053 239.995L701.325 241.747C700.989 241.347 700.581 241.051 700.101 240.859C699.637 240.651 699.125 240.547 698.565 240.547C697.909 240.547 697.325 240.699 696.813 241.003C696.317 241.291 695.925 241.691 695.637 242.203C695.365 242.715 695.229 243.315 695.229 244.003C695.229 244.675 695.365 245.275 695.637 245.803C695.925 246.315 696.317 246.723 696.813 247.027C697.325 247.315 697.909 247.459 698.565 247.459C699.125 247.459 699.637 247.363 700.101 247.171C700.581 246.963 700.989 246.659 701.325 246.259L703.053 248.011C702.509 248.651 701.845 249.147 701.061 249.499C700.293 249.835 699.461 250.003 698.565 250.003ZM706.521 249.763V233.443H709.161V249.763H706.521ZM703.761 240.643V238.243H711.921V240.643H703.761ZM719.004 249.763V232.963H721.764V249.763H719.004ZM732.938 249.763V243.115C732.938 242.347 732.69 241.715 732.194 241.219C731.714 240.723 731.09 240.475 730.322 240.475C729.81 240.475 729.354 240.587 728.954 240.811C728.554 241.035 728.242 241.347 728.018 241.747C727.794 242.147 727.682 242.603 727.682 243.115L726.65 242.539C726.65 241.659 726.842 240.883 727.226 240.211C727.61 239.523 728.138 238.987 728.81 238.603C729.498 238.203 730.266 238.003 731.114 238.003C731.978 238.003 732.746 238.227 733.418 238.675C734.09 239.107 734.618 239.675 735.002 240.379C735.386 241.067 735.578 241.787 735.578 242.539V249.763H732.938ZM725.042 249.763V238.243H727.682V249.763H725.042ZM739.704 249.763V236.731C739.704 235.851 739.896 235.075 740.28 234.403C740.68 233.731 741.224 233.203 741.912 232.819C742.616 232.435 743.424 232.243 744.336 232.243C745.04 232.243 745.64 232.363 746.136 232.603C746.632 232.843 747.096 233.187 747.528 233.635L745.824 235.339C745.632 235.147 745.424 234.995 745.2 234.883C744.976 234.771 744.688 234.715 744.336 234.715C743.696 234.715 743.2 234.891 742.848 235.243C742.512 235.579 742.344 236.067 742.344 236.707V249.763H739.704ZM736.944 240.643V238.243H745.824V240.643H736.944ZM752.494 250.003C751.374 250.003 750.358 249.739 749.446 249.211C748.534 248.667 747.806 247.939 747.262 247.027C746.734 246.115 746.47 245.099 746.47 243.979C746.47 242.859 746.734 241.851 747.262 240.955C747.806 240.059 748.534 239.347 749.446 238.819C750.358 238.275 751.374 238.003 752.494 238.003C753.63 238.003 754.654 238.267 755.566 238.795C756.478 239.323 757.198 240.043 757.726 240.955C758.27 241.851 758.542 242.859 758.542 243.979C758.542 245.099 758.27 246.115 757.726 247.027C757.198 247.939 756.478 248.667 755.566 249.211C754.654 249.739 753.63 250.003 752.494 250.003ZM752.494 247.459C753.15 247.459 753.726 247.315 754.222 247.027C754.734 246.723 755.126 246.307 755.398 245.779C755.686 245.251 755.83 244.651 755.83 243.979C755.83 243.307 755.686 242.715 755.398 242.203C755.11 241.691 754.718 241.291 754.222 241.003C753.726 240.699 753.15 240.547 752.494 240.547C751.854 240.547 751.278 240.699 750.766 241.003C750.27 241.291 749.878 241.691 749.59 242.203C749.318 242.715 749.182 243.307 749.182 243.979C749.182 244.651 749.318 245.251 749.59 245.779C749.878 246.307 750.27 246.723 750.766 247.027C751.278 247.315 751.854 247.459 752.494 247.459ZM760.737 249.763V238.243H763.377V249.763H760.737ZM763.377 243.355L762.465 242.899C762.465 241.443 762.785 240.267 763.425 239.371C764.081 238.459 765.065 238.003 766.377 238.003C766.953 238.003 767.473 238.107 767.937 238.315C768.401 238.523 768.833 238.859 769.233 239.323L767.505 241.099C767.297 240.875 767.065 240.715 766.809 240.619C766.553 240.523 766.257 240.475 765.921 240.475C765.185 240.475 764.577 240.707 764.097 241.171C763.617 241.635 763.377 242.363 763.377 243.355ZM770.511 249.763V238.243H773.151V249.763H770.511ZM778.167 249.763V242.899C778.167 242.131 777.927 241.539 777.447 241.123C776.967 240.691 776.375 240.475 775.671 240.475C775.191 240.475 774.759 240.571 774.375 240.763C774.007 240.955 773.711 241.235 773.487 241.603C773.263 241.955 773.151 242.387 773.151 242.899L772.119 242.323C772.119 241.443 772.311 240.683 772.695 240.043C773.079 239.403 773.599 238.907 774.255 238.555C774.911 238.187 775.647 238.003 776.463 238.003C777.279 238.003 778.015 238.179 778.671 238.531C779.327 238.883 779.847 239.379 780.231 240.019C780.615 240.659 780.807 241.427 780.807 242.323V249.763H778.167ZM785.823 249.763V242.899C785.823 242.131 785.583 241.539 785.103 241.123C784.623 240.691 784.031 240.475 783.327 240.475C782.863 240.475 782.439 240.571 782.055 240.763C781.671 240.955 781.367 241.235 781.143 241.603C780.919 241.955 780.807 242.387 780.807 242.899L779.319 242.323C779.399 241.443 779.655 240.683 780.087 240.043C780.519 239.403 781.071 238.907 781.743 238.555C782.431 238.187 783.183 238.003 783.999 238.003C784.831 238.003 785.583 238.179 786.255 238.531C786.927 238.883 787.463 239.379 787.863 240.019C788.263 240.659 788.463 241.427 788.463 242.323V249.763H785.823ZM796.007 250.003C794.967 250.003 794.023 249.739 793.175 249.211C792.343 248.683 791.679 247.971 791.183 247.075C790.703 246.163 790.463 245.147 790.463 244.027C790.463 242.891 790.703 241.875 791.183 240.979C791.679 240.067 792.343 239.347 793.175 238.819C794.023 238.275 794.967 238.003 796.007 238.003C796.887 238.003 797.663 238.195 798.335 238.579C799.023 238.947 799.567 239.459 799.967 240.115C800.367 240.771 800.567 241.515 800.567 242.347V245.659C800.567 246.491 800.367 247.235 799.967 247.891C799.583 248.547 799.047 249.067 798.359 249.451C797.671 249.819 796.887 250.003 796.007 250.003ZM796.439 247.507C797.415 247.507 798.199 247.179 798.791 246.523C799.399 245.867 799.703 245.027 799.703 244.003C799.703 243.315 799.567 242.707 799.295 242.179C799.023 241.651 798.639 241.243 798.143 240.955C797.663 240.651 797.095 240.499 796.439 240.499C795.799 240.499 795.231 240.651 794.735 240.955C794.255 241.243 793.871 241.651 793.583 242.179C793.311 242.707 793.175 243.315 793.175 244.003C793.175 244.691 793.311 245.299 793.583 245.827C793.871 246.355 794.255 246.771 794.735 247.075C795.231 247.363 795.799 247.507 796.439 247.507ZM799.535 249.763V246.667L799.991 243.859L799.535 241.075V238.243H802.175V249.763H799.535ZM806.857 249.763V233.443H809.497V249.763H806.857ZM804.097 240.643V238.243H812.257V240.643H804.097ZM814.199 249.763V238.243H816.839V249.763H814.199ZM815.519 236.131C815.071 236.131 814.695 235.979 814.391 235.675C814.103 235.371 813.959 234.995 813.959 234.547C813.959 234.099 814.103 233.723 814.391 233.419C814.695 233.115 815.071 232.963 815.519 232.963C815.983 232.963 816.359 233.115 816.647 233.419C816.935 233.723 817.079 234.099 817.079 234.547C817.079 234.995 816.935 235.371 816.647 235.675C816.359 235.979 815.983 236.131 815.519 236.131ZM825.08 250.003C823.96 250.003 822.944 249.739 822.032 249.211C821.12 248.667 820.392 247.939 819.848 247.027C819.32 246.115 819.056 245.099 819.056 243.979C819.056 242.859 819.32 241.851 819.848 240.955C820.392 240.059 821.12 239.347 822.032 238.819C822.944 238.275 823.96 238.003 825.08 238.003C826.216 238.003 827.24 238.267 828.152 238.795C829.064 239.323 829.784 240.043 830.312 240.955C830.856 241.851 831.128 242.859 831.128 243.979C831.128 245.099 830.856 246.115 830.312 247.027C829.784 247.939 829.064 248.667 828.152 249.211C827.24 249.739 826.216 250.003 825.08 250.003ZM825.08 247.459C825.736 247.459 826.312 247.315 826.808 247.027C827.32 246.723 827.712 246.307 827.984 245.779C828.272 245.251 828.416 244.651 828.416 243.979C828.416 243.307 828.272 242.715 827.984 242.203C827.696 241.691 827.304 241.291 826.808 241.003C826.312 240.699 825.736 240.547 825.08 240.547C824.44 240.547 823.864 240.699 823.352 241.003C822.856 241.291 822.464 241.691 822.176 242.203C821.904 242.715 821.768 243.307 821.768 243.979C821.768 244.651 821.904 245.251 822.176 245.779C822.464 246.307 822.856 246.723 823.352 247.027C823.864 247.315 824.44 247.459 825.08 247.459ZM841.219 249.763V243.115C841.219 242.347 840.971 241.715 840.475 241.219C839.995 240.723 839.371 240.475 838.603 240.475C838.091 240.475 837.635 240.587 837.235 240.811C836.835 241.035 836.523 241.347 836.299 241.747C836.075 242.147 835.963 242.603 835.963 243.115L834.931 242.539C834.931 241.659 835.123 240.883 835.507 240.211C835.891 239.523 836.419 238.987 837.091 238.603C837.779 238.203 838.547 238.003 839.395 238.003C840.259 238.003 841.027 238.227 841.699 238.675C842.371 239.107 842.899 239.675 843.283 240.379C843.667 241.067 843.859 241.787 843.859 242.539V249.763H841.219ZM833.323 249.763V238.243H835.963V249.763H833.323Z" fill="black"/>
<path d="M926 100.763C926 176.203 1007.67 223.353 1073 185.633C1103.32 168.127 1122 135.775 1122 100.763C1122 25.3223 1040.33 -21.8281 975 15.8923C944.679 33.3983 926 65.7507 926 100.763Z" fill="white"/>
<path d="M926 100.763C926 176.203 1007.67 223.353 1073 185.633C1103.32 168.127 1122 135.775 1122 100.763C1122 25.3223 1040.33 -21.8281 975 15.8923C944.679 33.3983 926 65.7507 926 100.763Z" fill="url(#paint20_linear_2_1092)" fill-opacity="0.3"/>
<path d="M950.284 55.4867H1097.72V148.981H950.284V55.4867Z" fill="white"/>
<path d="M950.284 55.4867H1097.72V148.981H950.284V55.4867Z" stroke="#020064" stroke-linecap="round" stroke-linejoin="round"/>
<path d="M951.066 59.4165L1020.14 106.503C1022.49 108.002 1025.51 108.002 1027.86 106.503L1096.93 59.4165C1095.7 57.0085 1093.23 55.4939 1090.52 55.4965H957.475C954.772 55.4939 952.295 57.0085 951.066 59.4165Z" fill="white" stroke="#020064" stroke-linecap="round" stroke-linejoin="round"/>
<path d="M955.728 148.758L1003.32 105.837" stroke="#020064" stroke-linecap="round" stroke-linejoin="round"/>
<path d="M1092.28 148.763L1042.62 103.977" stroke="#020064" stroke-linecap="round" stroke-linejoin="round"/>
<path d="M1023.91 86.1826C1010.65 77.0246 1000.12 86.4032 1001.5 96.3992C1002.66 104.805 1015.01 112.917 1022.68 120.088C1023.37 120.731 1024.44 120.731 1025.13 120.088C1032.81 112.915 1045.16 104.803 1046.32 96.3969C1047.7 86.4033 1037.17 77.0246 1023.91 86.1826Z" fill="#B0D9FF"/>
<path d="M1023.91 86.1826C1010.65 77.0246 1000.12 86.4032 1001.5 96.3992C1002.66 104.805 1015.01 112.917 1022.68 120.088C1023.37 120.731 1024.44 120.731 1025.13 120.088C1032.81 112.915 1045.16 104.803 1046.32 96.3969C1047.7 86.4033 1037.17 77.0246 1023.91 86.1826Z" fill="#B0D9FF"/>
<path d="M1023.91 86.1826C1010.65 77.0246 1000.12 86.4032 1001.5 96.3992C1002.66 104.805 1015.01 112.917 1022.68 120.088C1023.37 120.731 1024.44 120.731 1025.13 120.088C1032.81 112.915 1045.16 104.803 1046.32 96.3969C1047.7 86.4033 1037.17 77.0246 1023.91 86.1826Z" fill="#DDD5F5"/>
<path d="M1023.91 86.1826C1010.65 77.0246 1000.12 86.4032 1001.5 96.3992C1002.66 104.805 1015.01 112.917 1022.68 120.088C1023.37 120.731 1024.44 120.731 1025.13 120.088C1032.81 112.915 1045.16 104.803 1046.32 96.3969C1047.7 86.4033 1037.17 77.0246 1023.91 86.1826Z" fill="url(#paint21_linear_2_1092)"/>
<path d="M1023.91 86.1826C1010.65 77.0246 1000.12 86.4032 1001.5 96.3992C1002.66 104.805 1015.01 112.917 1022.68 120.088C1023.37 120.731 1024.44 120.731 1025.13 120.088C1032.81 112.915 1045.16 104.803 1046.32 96.3969C1047.7 86.4033 1037.17 77.0246 1023.91 86.1826Z" stroke="#020064" stroke-linecap="round" stroke-linejoin="round"/>
<path d="M982.552 250.003C981.352 250.003 980.232 249.779 979.192 249.331C978.152 248.883 977.24 248.267 976.456 247.483C975.672 246.683 975.056 245.763 974.608 244.723C974.176 243.667 973.96 242.539 973.96 241.339C973.96 240.139 974.176 239.019 974.608 237.979C975.056 236.939 975.664 236.027 976.432 235.243C977.216 234.443 978.12 233.827 979.144 233.395C980.184 232.947 981.304 232.723 982.504 232.723C983.704 232.723 984.816 232.947 985.84 233.395C986.88 233.827 987.792 234.443 988.576 235.243C989.36 236.027 989.968 236.947 990.4 238.003C990.848 239.043 991.072 240.163 991.072 241.363C991.072 242.563 990.848 243.691 990.4 244.747C989.968 245.787 989.36 246.699 988.576 247.483C987.808 248.267 986.904 248.883 985.864 249.331C984.84 249.779 983.736 250.003 982.552 250.003ZM982.504 247.363C983.64 247.363 984.632 247.107 985.48 246.595C986.344 246.083 987.016 245.379 987.496 244.483C987.992 243.571 988.24 242.523 988.24 241.339C988.24 240.459 988.096 239.659 987.808 238.939C987.536 238.203 987.144 237.571 986.632 237.043C986.12 236.499 985.512 236.083 984.808 235.795C984.12 235.507 983.352 235.363 982.504 235.363C981.384 235.363 980.392 235.619 979.528 236.131C978.68 236.627 978.008 237.323 977.512 238.219C977.032 239.115 976.792 240.155 976.792 241.339C976.792 242.219 976.928 243.035 977.2 243.787C977.488 244.523 977.88 245.155 978.376 245.683C978.888 246.211 979.496 246.627 980.2 246.931C980.904 247.219 981.672 247.363 982.504 247.363ZM998.247 250.003C997.271 250.003 996.399 249.787 995.631 249.355C994.879 248.923 994.287 248.331 993.855 247.579C993.439 246.811 993.231 245.931 993.231 244.939V238.243H995.871V244.819C995.871 245.379 995.959 245.859 996.135 246.259C996.327 246.643 996.599 246.939 996.951 247.147C997.319 247.355 997.751 247.459 998.247 247.459C999.015 247.459 999.599 247.235 999.999 246.787C1000.41 246.323 1000.62 245.667 1000.62 244.819V238.243H1003.26V244.939C1003.26 245.947 1003.05 246.835 1002.61 247.603C1002.2 248.355 1001.61 248.947 1000.86 249.379C1000.11 249.795 999.239 250.003 998.247 250.003ZM1007.67 249.763V233.443H1010.31V249.763H1007.67ZM1004.91 240.643V238.243H1013.07V240.643H1004.91ZM1014.99 249.763V238.243H1017.63V249.763H1014.99ZM1017.63 243.355L1016.72 242.899C1016.72 241.443 1017.04 240.267 1017.68 239.371C1018.33 238.459 1019.32 238.003 1020.63 238.003C1021.2 238.003 1021.72 238.107 1022.19 238.315C1022.65 238.523 1023.08 238.859 1023.48 239.323L1021.76 241.099C1021.55 240.875 1021.32 240.715 1021.06 240.619C1020.8 240.523 1020.51 240.475 1020.17 240.475C1019.44 240.475 1018.83 240.707 1018.35 241.171C1017.87 241.635 1017.63 242.363 1017.63 243.355ZM1029.76 250.003C1028.61 250.003 1027.57 249.747 1026.64 249.235C1025.73 248.707 1025 247.987 1024.46 247.075C1023.93 246.163 1023.67 245.139 1023.67 244.003C1023.67 242.867 1023.93 241.851 1024.46 240.955C1024.99 240.043 1025.7 239.323 1026.59 238.795C1027.51 238.267 1028.51 238.003 1029.62 238.003C1030.69 238.003 1031.63 238.251 1032.45 238.747C1033.28 239.243 1033.93 239.923 1034.39 240.787C1034.87 241.651 1035.11 242.635 1035.11 243.739C1035.11 243.931 1035.1 244.131 1035.07 244.339C1035.05 244.531 1035.02 244.747 1034.97 244.987H1025.51V242.827H1033.6L1032.62 243.691C1032.59 242.987 1032.45 242.395 1032.21 241.915C1031.97 241.435 1031.63 241.067 1031.18 240.811C1030.75 240.555 1030.21 240.427 1029.57 240.427C1028.9 240.427 1028.31 240.571 1027.82 240.859C1027.32 241.147 1026.94 241.555 1026.67 242.083C1026.39 242.595 1026.26 243.211 1026.26 243.931C1026.26 244.651 1026.4 245.283 1026.69 245.827C1026.98 246.371 1027.39 246.795 1027.91 247.099C1028.44 247.387 1029.05 247.531 1029.74 247.531C1030.33 247.531 1030.87 247.427 1031.37 247.219C1031.88 247.011 1032.31 246.707 1032.67 246.307L1034.35 248.011C1033.79 248.667 1033.11 249.163 1032.31 249.499C1031.51 249.835 1030.66 250.003 1029.76 250.003ZM1042.05 250.003C1041.01 250.003 1040.07 249.739 1039.22 249.211C1038.39 248.683 1037.73 247.971 1037.23 247.075C1036.75 246.163 1036.51 245.147 1036.51 244.027C1036.51 242.891 1036.75 241.875 1037.23 240.979C1037.73 240.067 1038.39 239.347 1039.22 238.819C1040.07 238.275 1041.01 238.003 1042.05 238.003C1042.93 238.003 1043.71 238.195 1044.38 238.579C1045.07 238.947 1045.61 239.459 1046.01 240.115C1046.41 240.771 1046.61 241.515 1046.61 242.347V245.659C1046.61 246.491 1046.41 247.235 1046.01 247.891C1045.63 248.547 1045.09 249.067 1044.41 249.451C1043.72 249.819 1042.93 250.003 1042.05 250.003ZM1042.49 247.507C1043.46 247.507 1044.25 247.179 1044.84 246.523C1045.45 245.867 1045.75 245.027 1045.75 244.003C1045.75 243.315 1045.61 242.707 1045.34 242.179C1045.07 241.651 1044.69 241.243 1044.19 240.955C1043.71 240.651 1043.14 240.499 1042.49 240.499C1041.85 240.499 1041.28 240.651 1040.78 240.955C1040.3 241.243 1039.92 241.651 1039.63 242.179C1039.36 242.707 1039.22 243.315 1039.22 244.003C1039.22 244.691 1039.36 245.299 1039.63 245.827C1039.92 246.355 1040.3 246.771 1040.78 247.075C1041.28 247.363 1041.85 247.507 1042.49 247.507ZM1045.58 249.763V246.667L1046.04 243.859L1045.58 241.075V238.243H1048.22V249.763H1045.58ZM1056.46 250.003C1055.32 250.003 1054.29 249.739 1053.36 249.211C1052.45 248.683 1051.73 247.963 1051.2 247.051C1050.67 246.139 1050.41 245.123 1050.41 244.003C1050.41 242.867 1050.67 241.851 1051.2 240.955C1051.73 240.043 1052.45 239.323 1053.36 238.795C1054.29 238.267 1055.32 238.003 1056.46 238.003C1057.35 238.003 1058.18 238.179 1058.95 238.531C1059.74 238.867 1060.4 239.355 1060.94 239.995L1059.22 241.747C1058.88 241.347 1058.47 241.051 1057.99 240.859C1057.53 240.651 1057.02 240.547 1056.46 240.547C1055.8 240.547 1055.22 240.699 1054.7 241.003C1054.21 241.291 1053.82 241.691 1053.53 242.203C1053.26 242.715 1053.12 243.315 1053.12 244.003C1053.12 244.675 1053.26 245.275 1053.53 245.803C1053.82 246.315 1054.21 246.723 1054.7 247.027C1055.22 247.315 1055.8 247.459 1056.46 247.459C1057.02 247.459 1057.53 247.363 1057.99 247.171C1058.47 246.963 1058.88 246.659 1059.22 246.259L1060.94 248.011C1060.4 248.651 1059.74 249.147 1058.95 249.499C1058.18 249.835 1057.35 250.003 1056.46 250.003ZM1070.74 249.763V243.115C1070.74 242.347 1070.49 241.715 1070 241.219C1069.52 240.723 1068.89 240.475 1068.13 240.475C1067.61 240.475 1067.16 240.587 1066.76 240.811C1066.36 241.035 1066.05 241.347 1065.82 241.747C1065.6 242.147 1065.49 242.603 1065.49 243.115L1064.45 242.539C1064.45 241.659 1064.65 240.883 1065.03 240.211C1065.41 239.523 1065.94 238.987 1066.61 238.603C1067.3 238.203 1068.07 238.003 1068.92 238.003C1069.78 238.003 1070.55 238.195 1071.22 238.579C1071.89 238.963 1072.42 239.499 1072.81 240.187C1073.19 240.859 1073.38 241.643 1073.38 242.539V249.763H1070.74ZM1062.85 249.763V232.483H1065.49V249.763H1062.85Z" fill="black"/>
<defs>
<filter id="filter0_d_2_1092" x="131" y="59.7627" width="57.1215" height="57.1948" filterUnits="userSpaceOnUse" color-interpolation-filters="sRGB">
<feFlood flood-opacity="0" result="BackgroundImageFix"/>
<feColorMatrix in="SourceAlpha" type="matrix" values="0 0 0 0 0 0 0 0 0 0 0 0 0 0 0 0 0 0 127 0" result="hardAlpha"/>
<feOffset dy="4"/>
<feGaussianBlur stdDeviation="2"/>
<feComposite in2="hardAlpha" operator="out"/>
<feColorMatrix type="matrix" values="0 0 0 0 0 0 0 0 0 0 0 0 0 0 0 0 0 0 0.25 0"/>
<feBlend mode="normal" in2="BackgroundImageFix" result="effect1_dropShadow_2_1092"/>
<feBlend mode="normal" in="SourceGraphic" in2="effect1_dropShadow_2_1092" result="shape"/>
</filter>
<linearGradient id="paint0_linear_2_1092" x1="89.6782" y1="29.5304" x2="223.351" y2="120.285" gradientUnits="userSpaceOnUse">
<stop stop-color="#1AFFFF"/>
<stop offset="1" stop-color="#ECF015" stop-opacity="0.5"/>
</linearGradient>
<linearGradient id="paint1_linear_2_1092" x1="131.882" y1="55.9937" x2="189.401" y2="128.788" gradientUnits="userSpaceOnUse">
<stop stop-color="#99FBDB"/>
<stop offset="0.286458" stop-color="#D7ED53"/>
<stop offset="0.635417" stop-color="#EB88E5"/>
<stop offset="1" stop-color="#A584FF"/>
</linearGradient>
<linearGradient id="paint2_linear_2_1092" x1="70.9976" y1="76.0353" x2="96.8756" y2="108.786" gradientUnits="userSpaceOnUse">
<stop stop-color="#99FBDB"/>
<stop offset="0.286458" stop-color="#D7ED53"/>
<stop offset="0.635417" stop-color="#EB88E5"/>
<stop offset="1" stop-color="#A584FF"/>
</linearGradient>
<linearGradient id="paint3_linear_2_1092" x1="223.702" y1="76.0353" x2="249.58" y2="108.786" gradientUnits="userSpaceOnUse">
<stop stop-color="#99FBDB"/>
<stop offset="0.286458" stop-color="#D7ED53"/>
<stop offset="0.635417" stop-color="#EB88E5"/>
<stop offset="1" stop-color="#A584FF"/>
</linearGradient>
<linearGradient id="paint4_linear_2_1092" x1="139.605" y1="64.9131" x2="176.982" y2="90.3016" gradientUnits="userSpaceOnUse">
<stop stop-color="#1AFFFF"/>
<stop offset="1" stop-color="#ECF015" stop-opacity="0.5"/>
</linearGradient>
<linearGradient id="paint5_linear_2_1092" x1="372.625" y1="32.3436" x2="515.54" y2="129.565" gradientUnits="userSpaceOnUse">
<stop stop-color="#1AFFFF"/>
<stop offset="1" stop-color="#ECF015" stop-opacity="0.5"/>
</linearGradient>
<linearGradient id="paint6_linear_2_1092" x1="400.995" y1="43.6173" x2="402.26" y2="61.3626" gradientUnits="userSpaceOnUse">
<stop stop-color="#99FBDB"/>
<stop offset="0.286458" stop-color="#D7ED53"/>
<stop offset="0.635417" stop-color="#EB88E5"/>
<stop offset="1" stop-color="#A584FF"/>
</linearGradient>
<linearGradient id="paint7_linear_2_1092" x1="453.701" y1="87.5754" x2="478.198" y2="111.867" gradientUnits="userSpaceOnUse">
<stop stop-color="#99FBDB"/>
<stop offset="0.286458" stop-color="#D7ED53"/>
<stop offset="0.635417" stop-color="#EB88E5"/>
<stop offset="1" stop-color="#A584FF"/>
</linearGradient>
<linearGradient id="paint8_linear_2_1092" x1="424.475" y1="81.1968" x2="454.828" y2="107.226" gradientUnits="userSpaceOnUse">
<stop stop-color="#99FBDB"/>
<stop offset="0.286458" stop-color="#D7ED53"/>
<stop offset="0.635417" stop-color="#EB88E5"/>
<stop offset="1" stop-color="#A584FF"/>
</linearGradient>
<linearGradient id="paint9_linear_2_1092" x1="656.375" y1="23.1671" x2="805.512" y2="124.47" gradientUnits="userSpaceOnUse">
<stop stop-color="#1AFFFF"/>
<stop offset="1" stop-color="#ECF015" stop-opacity="0.5"/>
</linearGradient>
<linearGradient id="paint10_linear_2_1092" x1="764.623" y1="47.4347" x2="778.567" y2="58.4257" gradientUnits="userSpaceOnUse">
<stop stop-color="#99FBDB"/>
<stop offset="0.286458" stop-color="#D7ED53"/>
<stop offset="0.635417" stop-color="#EB88E5"/>
<stop offset="1" stop-color="#A584FF"/>
</linearGradient>
<linearGradient id="paint11_linear_2_1092" x1="764.616" y1="88.8142" x2="778.564" y2="99.7967" gradientUnits="userSpaceOnUse">
<stop stop-color="#99FBDB"/>
<stop offset="0.286458" stop-color="#D7ED53"/>
<stop offset="0.635417" stop-color="#EB88E5"/>
<stop offset="1" stop-color="#A584FF"/>
</linearGradient>
<linearGradient id="paint12_linear_2_1092" x1="675.297" y1="45.5165" x2="678.449" y2="53.8921" gradientUnits="userSpaceOnUse">
<stop stop-color="#99FBDB"/>
<stop offset="0.286458" stop-color="#D7ED53"/>
<stop offset="0.635417" stop-color="#EB88E5"/>
<stop offset="1" stop-color="#A584FF"/>
</linearGradient>
<linearGradient id="paint13_linear_2_1092" x1="675.363" y1="66.2047" x2="678.529" y2="74.5715" gradientUnits="userSpaceOnUse">
<stop stop-color="#99FBDB"/>
<stop offset="0.286458" stop-color="#D7ED53"/>
<stop offset="0.635417" stop-color="#EB88E5"/>
<stop offset="1" stop-color="#A584FF"/>
</linearGradient>
<linearGradient id="paint14_linear_2_1092" x1="675.363" y1="86.8949" x2="678.529" y2="95.2619" gradientUnits="userSpaceOnUse">
<stop stop-color="#99FBDB"/>
<stop offset="0.286458" stop-color="#D7ED53"/>
<stop offset="0.635417" stop-color="#EB88E5"/>
<stop offset="1" stop-color="#A584FF"/>
</linearGradient>
<linearGradient id="paint15_linear_2_1092" x1="675.363" y1="107.793" x2="678.529" y2="116.16" gradientUnits="userSpaceOnUse">
<stop stop-color="#99FBDB"/>
<stop offset="0.286458" stop-color="#D7ED53"/>
<stop offset="0.635417" stop-color="#EB88E5"/>
<stop offset="1" stop-color="#A584FF"/>
</linearGradient>
<linearGradient id="paint16_linear_2_1092" x1="675.363" y1="128.273" x2="678.529" y2="136.64" gradientUnits="userSpaceOnUse">
<stop stop-color="#99FBDB"/>
<stop offset="0.286458" stop-color="#D7ED53"/>
<stop offset="0.635417" stop-color="#EB88E5"/>
<stop offset="1" stop-color="#A584FF"/>
</linearGradient>
<linearGradient id="paint17_linear_2_1092" x1="760.409" y1="94.9828" x2="811.169" y2="157.637" gradientUnits="userSpaceOnUse">
<stop stop-color="#99FBDB"/>
<stop offset="0.286458" stop-color="#D7ED53"/>
<stop offset="0.635417" stop-color="#EB88E5"/>
<stop offset="1" stop-color="#A584FF"/>
</linearGradient>
<linearGradient id="paint18_linear_2_1092" x1="711.211" y1="57.8998" x2="736.224" y2="87.4434" gradientUnits="userSpaceOnUse">
<stop stop-color="#99FBDB"/>
<stop offset="0.286458" stop-color="#D7ED53"/>
<stop offset="0.635417" stop-color="#EB88E5"/>
<stop offset="1" stop-color="#A584FF"/>
</linearGradient>
<linearGradient id="paint19_linear_2_1092" x1="712.042" y1="105.717" x2="726.285" y2="129.953" gradientUnits="userSpaceOnUse">
<stop stop-color="#99FBDB"/>
<stop offset="0.286458" stop-color="#D7ED53"/>
<stop offset="0.635417" stop-color="#EB88E5"/>
<stop offset="1" stop-color="#A584FF"/>
</linearGradient>
<linearGradient id="paint20_linear_2_1092" x1="944.375" y1="23.1671" x2="1093.51" y2="124.47" gradientUnits="userSpaceOnUse">
<stop stop-color="#1AFFFF"/>
<stop offset="1" stop-color="#ECF015" stop-opacity="0.5"/>
</linearGradient>
<linearGradient id="paint21_linear_2_1092" x1="1010.04" y1="87.7579" x2="1035.06" y2="122.699" gradientUnits="userSpaceOnUse">
<stop stop-color="#99FBDB"/>
<stop offset="0.286458" stop-color="#D7ED53"/>
<stop offset="0.635417" stop-color="#EB88E5"/>
<stop offset="1" stop-color="#A584FF"/>
</linearGradient>
<clipPath id="clip0_2_1092">
<rect width="200" height="200" fill="white" transform="translate(348 0.762695)"/>
</clipPath>
</defs>
</svg>
