<svg width="640" height="639" viewBox="0 0 640 639" fill="none" xmlns="http://www.w3.org/2000/svg">
<g filter="url(#filter0_d_19_1723)">
<circle cx="320.119" cy="203.055" r="160.055" fill="#F6F3FF"/>
<circle cx="320.119" cy="203.055" r="159.294" stroke="#6E37FF" stroke-width="1.52268"/>
</g>
<path d="M307.256 94.01C307.256 92.6084 308.392 91.4722 309.794 91.4722C311.896 91.4722 313.601 93.1765 313.601 95.2789V100.354C313.601 102.457 311.896 104.161 309.794 104.161C308.392 104.161 307.256 103.025 307.256 101.623V94.01Z" stroke="#6E37FF" stroke-width="1.90335" stroke-linecap="round" stroke-linejoin="round"/>
<path d="M324.359 88.0538L324.021 89.1452C323.745 90.0395 323.606 90.4866 323.713 90.8397C323.799 91.1254 323.988 91.3717 324.246 91.5337C324.564 91.734 325.046 91.734 326.009 91.734H326.522C329.783 91.734 331.414 91.734 332.184 92.6993C332.272 92.8096 332.35 92.9269 332.418 93.05C333.01 94.1266 332.337 95.577 330.99 98.4776C329.753 101.14 329.135 102.47 327.988 103.254C327.876 103.33 327.762 103.401 327.645 103.468C326.437 104.161 324.94 104.161 321.946 104.161H321.296C317.668 104.161 315.855 104.161 314.728 103.069C313.601 101.977 313.601 100.22 313.601 96.7048V95.4694C313.601 93.6222 313.601 92.6987 313.929 91.8533C314.256 91.008 314.884 90.3129 316.139 88.9228L321.331 83.174C321.461 83.0298 321.526 82.9577 321.584 82.9078C322.12 82.4415 322.946 82.494 323.415 83.024C323.465 83.0808 323.52 83.1605 323.63 83.3199C323.801 83.5693 323.887 83.6939 323.962 83.8175C324.631 84.9233 324.834 86.2369 324.527 87.4839C324.493 87.6232 324.448 87.7668 324.359 88.0538Z" stroke="#6E37FF" stroke-width="1.90335" stroke-linecap="round" stroke-linejoin="round"/>
<g filter="url(#filter1_d_19_1723)">
<circle cx="425.945" cy="308.881" r="160.055" transform="rotate(90 425.945 308.881)" fill="#FDFFF4"/>
<circle cx="425.945" cy="308.881" r="159.294" transform="rotate(90 425.945 308.881)" stroke="#DFF265" stroke-width="1.52268"/>
</g>
<path d="M494.637 267.595C494.637 263.408 494.637 261.315 495.937 260.014C497.238 258.713 499.332 258.713 503.519 258.713C507.706 258.713 509.8 258.713 511.1 260.014C512.401 261.315 512.401 263.408 512.401 267.595V275.209C512.401 279.396 512.401 281.49 511.1 282.79C509.8 284.091 507.706 284.091 503.519 284.091C499.332 284.091 497.238 284.091 495.937 282.79C494.637 281.49 494.637 279.396 494.637 275.209V267.595Z" stroke="#A9BF1F" stroke-width="1.90335" stroke-linecap="round"/>
<path d="M502.25 280.284H504.788" stroke="#A9BF1F" stroke-width="1.90335" stroke-linecap="round" stroke-linejoin="round"/>
<path d="M499.712 258.713L499.825 259.391C500.07 260.859 500.192 261.593 500.696 262.04C501.221 262.506 501.966 262.52 503.519 262.52C505.072 262.52 505.817 262.506 506.342 262.04C506.846 261.593 506.968 260.859 507.213 259.391L507.326 258.713" stroke="#A9BF1F" stroke-width="1.90335" stroke-linejoin="round"/>
<g filter="url(#filter2_d_19_1723)">
<circle cx="320.119" cy="414.708" r="160.055" fill="#FFFCF7"/>
<circle cx="320.119" cy="414.708" r="159.294" stroke="#FF9800" stroke-width="1.52268"/>
</g>
<path d="M314.604 498.789C314.19 498.622 313.962 498.541 313.834 498.556C313.676 498.576 313.448 498.743 312.992 499.078C312.188 499.668 311.174 500.092 309.671 500.056C308.911 500.038 308.531 500.028 308.361 499.74C308.191 499.451 308.403 499.051 308.827 498.252C309.414 497.144 309.787 495.875 309.222 494.858C308.251 493.406 307.425 491.687 307.305 489.829C307.24 488.831 307.24 487.798 307.305 486.8C307.636 481.7 311.661 477.638 316.713 477.303C318.433 477.19 320.233 477.189 321.957 477.303C326.988 477.636 331 481.665 331.361 486.735" stroke="#FF9800" stroke-width="1.90335" stroke-linecap="round" stroke-linejoin="round"/>
<path d="M323.368 502.148C320.183 501.944 317.647 499.461 317.438 496.345C317.397 495.735 317.397 495.103 317.438 494.494C317.647 491.377 320.183 488.895 323.368 488.69C324.455 488.621 325.589 488.621 326.673 488.69C329.858 488.895 332.395 491.377 332.603 494.494C332.644 495.103 332.644 495.735 332.603 496.345C332.527 497.48 332.007 498.531 331.395 499.418C331.039 500.04 331.274 500.815 331.644 501.492C331.911 501.981 332.045 502.225 331.938 502.401C331.83 502.578 331.591 502.583 331.112 502.595C330.165 502.617 329.526 502.358 329.019 501.997C328.731 501.792 328.587 501.69 328.488 501.678C328.389 501.667 328.194 501.744 327.804 501.899C327.454 502.038 327.047 502.124 326.673 502.148C325.589 502.218 324.455 502.218 323.368 502.148Z" stroke="#FF9800" stroke-width="1.90335" stroke-linejoin="round"/>
<g filter="url(#filter3_d_19_1723)">
<circle cx="214.292" cy="308.881" r="160.055" transform="rotate(90 214.292 308.881)" fill="#F4F8FF"/>
<circle cx="214.292" cy="308.881" r="159.294" transform="rotate(90 214.292 308.881)" stroke="#1B6AFC" stroke-width="1.52268"/>
</g>
<rect x="127.833" y="258.713" width="22.2058" height="25.378" rx="3.04536" stroke="#1B6AFC" stroke-width="1.90335"/>
<path d="M136.196 273.611C135.398 274.145 133.306 275.237 134.58 276.602C135.202 277.27 135.896 277.747 136.767 277.747H141.74C142.612 277.747 143.305 277.27 143.927 276.602C145.202 275.237 143.11 274.145 142.312 273.611C140.441 272.358 138.067 272.358 136.196 273.611Z" stroke="#1B6AFC" stroke-width="1.90335"/>
<path d="M141.792 267.595C141.792 268.997 140.655 270.133 139.254 270.133C137.852 270.133 136.716 268.997 136.716 267.595C136.716 266.194 137.852 265.058 139.254 265.058C140.655 265.058 141.792 266.194 141.792 267.595Z" stroke="#1B6AFC" stroke-width="1.90335"/>
<path d="M129.102 263.789L125.93 263.789M129.102 271.402L125.93 271.402M129.102 279.015H125.93" stroke="#1B6AFC" stroke-width="1.90335" stroke-linecap="round" stroke-linejoin="round"/>
<path d="M407.5 308.5C407.5 356.546 368.328 395.5 320 395.5C271.672 395.5 232.5 356.546 232.5 308.5C232.5 260.454 271.672 221.5 320 221.5C368.328 221.5 407.5 260.454 407.5 308.5Z" fill="white"/>
<path d="M407.5 308.5C407.5 356.546 368.328 395.5 320 395.5C271.672 395.5 232.5 356.546 232.5 308.5C232.5 260.454 271.672 221.5 320 221.5C368.328 221.5 407.5 260.454 407.5 308.5Z" fill="url(#paint0_linear_19_1723)" fill-opacity="0.3"/>
<path d="M407.5 308.5C407.5 356.546 368.328 395.5 320 395.5C271.672 395.5 232.5 356.546 232.5 308.5C232.5 260.454 271.672 221.5 320 221.5C368.328 221.5 407.5 260.454 407.5 308.5Z" stroke="black"/>
<path d="M275.525 131.282L270.354 118.491H272.638L276.676 128.852H275.872L279.947 118.491H282.194L276.986 131.282H275.525ZM285.863 131.465C285.01 131.465 284.237 131.264 283.542 130.862C282.848 130.448 282.294 129.893 281.88 129.199C281.478 128.505 281.277 127.731 281.277 126.878C281.277 126.026 281.478 125.258 281.88 124.576C282.294 123.894 282.848 123.352 283.542 122.95C284.237 122.536 285.01 122.329 285.863 122.329C286.728 122.329 287.507 122.53 288.202 122.932C288.896 123.334 289.444 123.882 289.846 124.576C290.26 125.258 290.468 126.026 290.468 126.878C290.468 127.731 290.26 128.505 289.846 129.199C289.444 129.893 288.896 130.448 288.202 130.862C287.507 131.264 286.728 131.465 285.863 131.465ZM285.863 129.528C286.362 129.528 286.801 129.418 287.179 129.199C287.568 128.968 287.867 128.651 288.074 128.249C288.293 127.847 288.403 127.39 288.403 126.878C288.403 126.367 288.293 125.916 288.074 125.526C287.855 125.136 287.556 124.832 287.179 124.613C286.801 124.381 286.362 124.265 285.863 124.265C285.376 124.265 284.937 124.381 284.547 124.613C284.17 124.832 283.871 125.136 283.652 125.526C283.445 125.916 283.341 126.367 283.341 126.878C283.341 127.39 283.445 127.847 283.652 128.249C283.871 128.651 284.17 128.968 284.547 129.199C284.937 129.418 285.376 129.528 285.863 129.528ZM293.223 131.282V118.857H295.233V131.282H293.223ZM291.122 124.339V122.511H297.334V124.339H291.122ZM302.62 131.465C301.743 131.465 300.951 131.27 300.244 130.88C299.55 130.478 298.996 129.93 298.582 129.235C298.18 128.541 297.979 127.762 297.979 126.897C297.979 126.032 298.18 125.258 298.582 124.576C298.984 123.882 299.526 123.334 300.208 122.932C300.902 122.53 301.67 122.329 302.51 122.329C303.326 122.329 304.045 122.517 304.666 122.895C305.3 123.273 305.793 123.79 306.146 124.448C306.512 125.106 306.694 125.855 306.694 126.696C306.694 126.842 306.682 126.994 306.658 127.152C306.646 127.299 306.621 127.463 306.585 127.646H299.386V126.001H305.543L304.794 126.659C304.77 126.123 304.666 125.672 304.483 125.307C304.301 124.942 304.039 124.661 303.698 124.466C303.369 124.272 302.961 124.174 302.474 124.174C301.962 124.174 301.517 124.284 301.14 124.503C300.762 124.722 300.47 125.033 300.263 125.435C300.056 125.825 299.952 126.294 299.952 126.842C299.952 127.39 300.062 127.871 300.281 128.285C300.5 128.7 300.811 129.022 301.213 129.254C301.615 129.473 302.078 129.583 302.601 129.583C303.052 129.583 303.466 129.503 303.844 129.345C304.234 129.187 304.563 128.955 304.831 128.651L306.11 129.948C305.683 130.448 305.166 130.825 304.557 131.081C303.947 131.337 303.302 131.465 302.62 131.465ZM308.306 131.282V122.511H310.316V131.282H308.306ZM310.316 126.403L309.621 126.056C309.621 124.948 309.865 124.052 310.352 123.37C310.852 122.676 311.601 122.329 312.6 122.329C313.038 122.329 313.434 122.408 313.787 122.566C314.141 122.725 314.469 122.98 314.774 123.334L313.458 124.686C313.3 124.515 313.123 124.393 312.928 124.32C312.734 124.247 312.508 124.211 312.252 124.211C311.692 124.211 311.229 124.387 310.864 124.741C310.498 125.094 310.316 125.648 310.316 126.403ZM320 131.282V118.491H322.101V131.282H320ZM328.131 131.282V118.491H330.232V131.282H328.131ZM321.443 125.618V123.699H328.588V125.618H321.443ZM332.752 131.282V122.511H334.762V131.282H332.752ZM333.757 120.903C333.416 120.903 333.13 120.788 332.898 120.556C332.679 120.325 332.57 120.039 332.57 119.697C332.57 119.356 332.679 119.07 332.898 118.839C333.13 118.607 333.416 118.491 333.757 118.491C334.11 118.491 334.397 118.607 334.616 118.839C334.835 119.07 334.945 119.356 334.945 119.697C334.945 120.039 334.835 120.325 334.616 120.556C334.397 120.788 334.11 120.903 333.757 120.903ZM339.885 131.465C339.398 131.465 338.929 131.404 338.478 131.282C338.028 131.148 337.613 130.965 337.236 130.734C336.858 130.49 336.529 130.198 336.249 129.857L337.528 128.578C337.833 128.931 338.18 129.199 338.57 129.382C338.972 129.552 339.422 129.637 339.922 129.637C340.372 129.637 340.714 129.57 340.945 129.436C341.176 129.302 341.292 129.108 341.292 128.852C341.292 128.584 341.183 128.377 340.963 128.231C340.744 128.084 340.458 127.963 340.105 127.865C339.763 127.755 339.398 127.646 339.008 127.536C338.631 127.427 338.265 127.28 337.912 127.098C337.571 126.903 337.291 126.641 337.071 126.312C336.852 125.983 336.742 125.557 336.742 125.033C336.742 124.473 336.87 123.991 337.126 123.589C337.394 123.187 337.766 122.877 338.241 122.658C338.728 122.438 339.307 122.329 339.977 122.329C340.683 122.329 341.304 122.457 341.84 122.712C342.389 122.956 342.845 123.327 343.211 123.827L341.932 125.106C341.676 124.789 341.384 124.552 341.055 124.393C340.726 124.235 340.348 124.156 339.922 124.156C339.52 124.156 339.209 124.217 338.99 124.339C338.771 124.46 338.661 124.637 338.661 124.868C338.661 125.112 338.771 125.301 338.99 125.435C339.209 125.569 339.489 125.685 339.83 125.782C340.184 125.88 340.549 125.989 340.927 126.111C341.317 126.221 341.682 126.379 342.023 126.586C342.376 126.781 342.663 127.049 342.882 127.39C343.101 127.719 343.211 128.151 343.211 128.687C343.211 129.54 342.912 130.216 342.315 130.716C341.719 131.215 340.908 131.465 339.885 131.465ZM346.202 131.282V118.857H348.212V131.282H346.202ZM344.1 124.339V122.511H350.313V124.339H344.1ZM355.543 131.465C354.691 131.465 353.917 131.264 353.223 130.862C352.529 130.448 351.974 129.893 351.56 129.199C351.158 128.505 350.957 127.731 350.957 126.878C350.957 126.026 351.158 125.258 351.56 124.576C351.974 123.894 352.529 123.352 353.223 122.95C353.917 122.536 354.691 122.329 355.543 122.329C356.408 122.329 357.188 122.53 357.882 122.932C358.577 123.334 359.125 123.882 359.527 124.576C359.941 125.258 360.148 126.026 360.148 126.878C360.148 127.731 359.941 128.505 359.527 129.199C359.125 129.893 358.577 130.448 357.882 130.862C357.188 131.264 356.408 131.465 355.543 131.465ZM355.543 129.528C356.043 129.528 356.481 129.418 356.859 129.199C357.249 128.968 357.547 128.651 357.754 128.249C357.974 127.847 358.083 127.39 358.083 126.878C358.083 126.367 357.974 125.916 357.754 125.526C357.535 125.136 357.237 124.832 356.859 124.613C356.481 124.381 356.043 124.265 355.543 124.265C355.056 124.265 354.618 124.381 354.228 124.613C353.85 124.832 353.552 125.136 353.333 125.526C353.125 125.916 353.022 126.367 353.022 126.878C353.022 127.39 353.125 127.847 353.333 128.249C353.552 128.651 353.85 128.968 354.228 129.199C354.618 129.418 355.056 129.528 355.543 129.528ZM361.82 131.282V122.511H363.829V131.282H361.82ZM363.829 126.403L363.135 126.056C363.135 124.948 363.379 124.052 363.866 123.37C364.365 122.676 365.115 122.329 366.114 122.329C366.552 122.329 366.948 122.408 367.301 122.566C367.654 122.725 367.983 122.98 368.288 123.334L366.972 124.686C366.814 124.515 366.637 124.393 366.442 124.32C366.247 124.247 366.022 124.211 365.766 124.211C365.206 124.211 364.743 124.387 364.378 124.741C364.012 125.094 363.829 125.648 363.829 126.403ZM371.968 131.373L368.222 122.511H370.433L372.991 129.016H372.351L375.056 122.511H377.285L373.21 131.373H371.968ZM369.355 134.936L372.077 129.327L373.21 131.373L371.584 134.936H369.355Z" fill="black"/>
<path d="M112.113 308.857C111.188 308.857 110.329 308.693 109.537 308.364C108.757 308.023 108.075 307.554 107.49 306.957C106.906 306.348 106.455 305.647 106.138 304.855C105.822 304.051 105.663 303.193 105.663 302.279C105.663 301.365 105.822 300.513 106.138 299.721C106.455 298.917 106.906 298.217 107.49 297.62C108.075 297.023 108.757 296.554 109.537 296.213C110.329 295.872 111.188 295.701 112.113 295.701C113.149 295.701 114.044 295.872 114.799 296.213C115.555 296.554 116.225 297.017 116.809 297.601L115.384 299.027C115.006 298.612 114.543 298.29 113.995 298.058C113.459 297.827 112.832 297.711 112.113 297.711C111.48 297.711 110.901 297.821 110.377 298.04C109.854 298.259 109.397 298.576 109.007 298.99C108.629 299.392 108.337 299.873 108.13 300.434C107.923 300.994 107.819 301.609 107.819 302.279C107.819 302.949 107.923 303.564 108.13 304.125C108.337 304.685 108.629 305.172 109.007 305.586C109.397 305.988 109.854 306.299 110.377 306.518C110.901 306.737 111.48 306.847 112.113 306.847C112.893 306.847 113.551 306.731 114.087 306.5C114.635 306.256 115.098 305.927 115.475 305.513L116.901 306.938C116.316 307.535 115.628 308.004 114.836 308.345C114.044 308.686 113.137 308.857 112.113 308.857ZM122.254 308.857C121.401 308.857 120.628 308.656 119.933 308.254C119.239 307.84 118.685 307.286 118.27 306.591C117.868 305.897 117.667 305.123 117.667 304.271C117.667 303.418 117.868 302.651 118.27 301.968C118.685 301.286 119.239 300.744 119.933 300.342C120.628 299.928 121.401 299.721 122.254 299.721C123.119 299.721 123.898 299.922 124.593 300.324C125.287 300.726 125.835 301.274 126.237 301.968C126.651 302.651 126.858 303.418 126.858 304.271C126.858 305.123 126.651 305.897 126.237 306.591C125.835 307.286 125.287 307.84 124.593 308.254C123.898 308.656 123.119 308.857 122.254 308.857ZM122.254 306.92C122.753 306.92 123.192 306.811 123.569 306.591C123.959 306.36 124.258 306.043 124.465 305.641C124.684 305.239 124.794 304.782 124.794 304.271C124.794 303.759 124.684 303.308 124.465 302.919C124.245 302.529 123.947 302.224 123.569 302.005C123.192 301.774 122.753 301.658 122.254 301.658C121.767 301.658 121.328 301.774 120.938 302.005C120.561 302.224 120.262 302.529 120.043 302.919C119.836 303.308 119.732 303.759 119.732 304.271C119.732 304.782 119.836 305.239 120.043 305.641C120.262 306.043 120.561 306.36 120.938 306.591C121.328 306.811 121.767 306.92 122.254 306.92ZM134.541 308.674V303.613C134.541 303.028 134.353 302.547 133.975 302.169C133.61 301.792 133.134 301.603 132.55 301.603C132.16 301.603 131.813 301.688 131.508 301.859C131.204 302.029 130.966 302.267 130.796 302.571C130.625 302.876 130.54 303.223 130.54 303.613L129.754 303.174C129.754 302.504 129.9 301.914 130.193 301.402C130.485 300.878 130.887 300.47 131.399 300.178C131.922 299.873 132.507 299.721 133.153 299.721C133.81 299.721 134.395 299.891 134.907 300.233C135.418 300.561 135.82 300.994 136.113 301.53C136.405 302.054 136.551 302.602 136.551 303.174V308.674H134.541ZM128.53 308.674V299.904H130.54V308.674H128.53ZM139.821 308.674V296.249H141.831V308.674H139.821ZM137.719 301.731V299.904H143.932V301.731H137.719ZM148.815 308.857C148.023 308.857 147.305 308.656 146.659 308.254C146.026 307.852 145.52 307.31 145.143 306.628C144.777 305.933 144.594 305.16 144.594 304.307C144.594 303.442 144.777 302.669 145.143 301.987C145.52 301.292 146.026 300.744 146.659 300.342C147.305 299.928 148.023 299.721 148.815 299.721C149.485 299.721 150.076 299.867 150.588 300.159C151.111 300.44 151.526 300.829 151.83 301.329C152.135 301.828 152.287 302.395 152.287 303.028V305.55C152.287 306.183 152.135 306.75 151.83 307.249C151.538 307.749 151.13 308.144 150.606 308.437C150.082 308.717 149.485 308.857 148.815 308.857ZM149.144 306.957C149.887 306.957 150.484 306.707 150.935 306.208C151.398 305.708 151.629 305.069 151.629 304.289C151.629 303.765 151.526 303.302 151.319 302.9C151.111 302.498 150.819 302.188 150.441 301.968C150.076 301.737 149.644 301.621 149.144 301.621C148.657 301.621 148.224 301.737 147.847 301.968C147.481 302.188 147.189 302.498 146.97 302.9C146.763 303.302 146.659 303.765 146.659 304.289C146.659 304.813 146.763 305.276 146.97 305.678C147.189 306.08 147.481 306.396 147.847 306.628C148.224 306.847 148.657 306.957 149.144 306.957ZM151.501 308.674V306.317L151.848 304.179L151.501 302.06V299.904H153.511V308.674H151.501ZM159.78 308.857C158.915 308.857 158.129 308.656 157.423 308.254C156.729 307.852 156.18 307.304 155.778 306.61C155.376 305.915 155.175 305.142 155.175 304.289C155.175 303.424 155.376 302.651 155.778 301.968C156.18 301.274 156.729 300.726 157.423 300.324C158.129 299.922 158.915 299.721 159.78 299.721C160.462 299.721 161.096 299.855 161.68 300.123C162.277 300.379 162.783 300.75 163.197 301.238L161.881 302.571C161.625 302.267 161.315 302.042 160.949 301.895C160.596 301.737 160.206 301.658 159.78 301.658C159.281 301.658 158.836 301.774 158.446 302.005C158.068 302.224 157.77 302.529 157.551 302.919C157.344 303.308 157.24 303.765 157.24 304.289C157.24 304.801 157.344 305.257 157.551 305.659C157.77 306.049 158.068 306.36 158.446 306.591C158.836 306.811 159.281 306.92 159.78 306.92C160.206 306.92 160.596 306.847 160.949 306.701C161.315 306.543 161.625 306.311 161.881 306.007L163.197 307.34C162.783 307.828 162.277 308.205 161.68 308.473C161.096 308.729 160.462 308.857 159.78 308.857ZM165.837 308.674V296.249H167.847V308.674H165.837ZM163.736 301.731V299.904H169.948V301.731H163.736ZM90.3057 332.674V319.884H92.407V332.674H90.3057ZM100.915 332.674V327.613C100.915 327.028 100.726 326.547 100.348 326.169C99.9826 325.792 99.5076 325.603 98.9229 325.603C98.533 325.603 98.1859 325.688 97.8813 325.859C97.5768 326.029 97.3393 326.267 97.1687 326.571C96.9982 326.876 96.9129 327.223 96.9129 327.613L96.1272 327.174C96.1272 326.504 96.2734 325.914 96.5657 325.402C96.8581 324.878 97.2601 324.47 97.7717 324.178C98.2955 323.873 98.8802 323.721 99.5258 323.721C100.184 323.721 100.768 323.891 101.28 324.233C101.792 324.561 102.194 324.994 102.486 325.53C102.778 326.054 102.924 326.602 102.924 327.174V332.674H100.915ZM94.903 332.674V323.904H96.9129V332.674H94.903ZM106.066 332.674V322.753C106.066 322.083 106.212 321.492 106.504 320.98C106.809 320.469 107.223 320.067 107.747 319.774C108.283 319.482 108.898 319.336 109.592 319.336C110.128 319.336 110.585 319.427 110.963 319.61C111.34 319.792 111.694 320.054 112.023 320.395L110.725 321.693C110.579 321.547 110.421 321.431 110.25 321.346C110.08 321.26 109.86 321.218 109.592 321.218C109.105 321.218 108.727 321.352 108.459 321.62C108.204 321.875 108.076 322.247 108.076 322.734V332.674H106.066ZM103.965 325.731V323.904H110.725V325.731H103.965ZM115.803 332.857C114.95 332.857 114.177 332.656 113.483 332.254C112.788 331.84 112.234 331.286 111.82 330.591C111.418 329.897 111.217 329.123 111.217 328.271C111.217 327.418 111.418 326.651 111.82 325.968C112.234 325.286 112.788 324.744 113.483 324.342C114.177 323.928 114.95 323.721 115.803 323.721C116.668 323.721 117.448 323.922 118.142 324.324C118.836 324.726 119.385 325.274 119.787 325.968C120.201 326.651 120.408 327.418 120.408 328.271C120.408 329.123 120.201 329.897 119.787 330.591C119.385 331.286 118.836 331.84 118.142 332.254C117.448 332.656 116.668 332.857 115.803 332.857ZM115.803 330.92C116.303 330.92 116.741 330.811 117.119 330.591C117.509 330.36 117.807 330.043 118.014 329.641C118.233 329.239 118.343 328.782 118.343 328.271C118.343 327.759 118.233 327.308 118.014 326.919C117.795 326.529 117.496 326.224 117.119 326.005C116.741 325.774 116.303 325.658 115.803 325.658C115.316 325.658 114.877 325.774 114.488 326.005C114.11 326.224 113.812 326.529 113.592 326.919C113.385 327.308 113.282 327.759 113.282 328.271C113.282 328.782 113.385 329.239 113.592 329.641C113.812 330.043 114.11 330.36 114.488 330.591C114.877 330.811 115.316 330.92 115.803 330.92ZM122.079 332.674V323.904H124.089V332.674H122.079ZM124.089 327.796L123.395 327.448C123.395 326.34 123.638 325.445 124.126 324.762C124.625 324.068 125.374 323.721 126.373 323.721C126.812 323.721 127.208 323.8 127.561 323.958C127.914 324.117 128.243 324.373 128.548 324.726L127.232 326.078C127.074 325.908 126.897 325.786 126.702 325.713C126.507 325.64 126.282 325.603 126.026 325.603C125.466 325.603 125.003 325.78 124.637 326.133C124.272 326.486 124.089 327.04 124.089 327.796ZM129.52 332.674V323.904H131.53V332.674H129.52ZM135.349 332.674V327.448C135.349 326.864 135.166 326.413 134.801 326.096C134.435 325.767 133.985 325.603 133.449 325.603C133.083 325.603 132.754 325.676 132.462 325.822C132.182 325.968 131.956 326.182 131.786 326.462C131.615 326.73 131.53 327.059 131.53 327.448L130.744 327.01C130.744 326.34 130.891 325.761 131.183 325.274C131.475 324.787 131.871 324.409 132.371 324.141C132.87 323.861 133.43 323.721 134.052 323.721C134.673 323.721 135.233 323.855 135.733 324.123C136.232 324.391 136.628 324.769 136.92 325.256C137.213 325.743 137.359 326.328 137.359 327.01V332.674H135.349ZM141.178 332.674V327.448C141.178 326.864 140.995 326.413 140.63 326.096C140.264 325.767 139.813 325.603 139.278 325.603C138.924 325.603 138.601 325.676 138.309 325.822C138.017 325.968 137.785 326.182 137.615 326.462C137.444 326.73 137.359 327.059 137.359 327.448L136.226 327.01C136.287 326.34 136.482 325.761 136.811 325.274C137.14 324.787 137.56 324.409 138.072 324.141C138.595 323.861 139.168 323.721 139.789 323.721C140.423 323.721 140.995 323.855 141.507 324.123C142.018 324.391 142.426 324.769 142.731 325.256C143.035 325.743 143.188 326.328 143.188 327.01V332.674H141.178ZM148.931 332.857C148.139 332.857 147.421 332.656 146.775 332.254C146.142 331.852 145.636 331.31 145.259 330.628C144.893 329.933 144.71 329.16 144.71 328.307C144.71 327.442 144.893 326.669 145.259 325.987C145.636 325.292 146.142 324.744 146.775 324.342C147.421 323.928 148.139 323.721 148.931 323.721C149.601 323.721 150.192 323.867 150.704 324.159C151.227 324.44 151.642 324.829 151.946 325.329C152.251 325.828 152.403 326.395 152.403 327.028V329.55C152.403 330.183 152.251 330.75 151.946 331.249C151.654 331.749 151.246 332.144 150.722 332.437C150.198 332.717 149.601 332.857 148.931 332.857ZM149.26 330.957C150.003 330.957 150.6 330.707 151.051 330.208C151.514 329.708 151.745 329.069 151.745 328.289C151.745 327.765 151.642 327.302 151.435 326.9C151.227 326.498 150.935 326.188 150.557 325.968C150.192 325.737 149.76 325.621 149.26 325.621C148.773 325.621 148.34 325.737 147.963 325.968C147.597 326.188 147.305 326.498 147.086 326.9C146.879 327.302 146.775 327.765 146.775 328.289C146.775 328.813 146.879 329.276 147.086 329.678C147.305 330.08 147.597 330.396 147.963 330.628C148.34 330.847 148.773 330.957 149.26 330.957ZM151.617 332.674V330.317L151.964 328.179L151.617 326.06V323.904H153.627V332.674H151.617ZM157.192 332.674V320.249H159.202V332.674H157.192ZM155.09 325.731V323.904H161.303V325.731H155.09ZM162.782 332.674V323.904H164.792V332.674H162.782ZM163.787 322.296C163.446 322.296 163.159 322.18 162.928 321.949C162.709 321.717 162.599 321.431 162.599 321.09C162.599 320.749 162.709 320.462 162.928 320.231C163.159 320 163.446 319.884 163.787 319.884C164.14 319.884 164.426 320 164.645 320.231C164.865 320.462 164.974 320.749 164.974 321.09C164.974 321.431 164.865 321.717 164.645 321.949C164.426 322.18 164.14 322.296 163.787 322.296ZM171.066 332.857C170.213 332.857 169.44 332.656 168.745 332.254C168.051 331.84 167.497 331.286 167.082 330.591C166.68 329.897 166.479 329.123 166.479 328.271C166.479 327.418 166.68 326.651 167.082 325.968C167.497 325.286 168.051 324.744 168.745 324.342C169.44 323.928 170.213 323.721 171.066 323.721C171.931 323.721 172.71 323.922 173.405 324.324C174.099 324.726 174.647 325.274 175.049 325.968C175.463 326.651 175.67 327.418 175.67 328.271C175.67 329.123 175.463 329.897 175.049 330.591C174.647 331.286 174.099 331.84 173.405 332.254C172.71 332.656 171.931 332.857 171.066 332.857ZM171.066 330.92C171.565 330.92 172.004 330.811 172.381 330.591C172.771 330.36 173.07 330.043 173.277 329.641C173.496 329.239 173.606 328.782 173.606 328.271C173.606 327.759 173.496 327.308 173.277 326.919C173.057 326.529 172.759 326.224 172.381 326.005C172.004 325.774 171.565 325.658 171.066 325.658C170.579 325.658 170.14 325.774 169.75 326.005C169.373 326.224 169.074 326.529 168.855 326.919C168.648 327.308 168.544 327.759 168.544 328.271C168.544 328.782 168.648 329.239 168.855 329.641C169.074 330.043 169.373 330.36 169.75 330.591C170.14 330.811 170.579 330.92 171.066 330.92ZM183.353 332.674V327.613C183.353 327.028 183.165 326.547 182.787 326.169C182.422 325.792 181.946 325.603 181.362 325.603C180.972 325.603 180.625 325.688 180.32 325.859C180.016 326.029 179.778 326.267 179.608 326.571C179.437 326.876 179.352 327.223 179.352 327.613L178.566 327.174C178.566 326.504 178.712 325.914 179.005 325.402C179.297 324.878 179.699 324.47 180.211 324.178C180.734 323.873 181.319 323.721 181.965 323.721C182.623 323.721 183.207 323.891 183.719 324.233C184.23 324.561 184.632 324.994 184.925 325.53C185.217 326.054 185.363 326.602 185.363 327.174V332.674H183.353ZM177.342 332.674V323.904H179.352V332.674H177.342Z" fill="black"/>
<path d="M463.818 308.857C462.893 308.857 462.034 308.693 461.242 308.364C460.462 308.023 459.78 307.554 459.196 306.957C458.611 306.348 458.16 305.647 457.843 304.855C457.527 304.051 457.368 303.193 457.368 302.279C457.368 301.365 457.527 300.513 457.843 299.721C458.16 298.917 458.611 298.217 459.196 297.62C459.78 297.023 460.462 296.554 461.242 296.213C462.034 295.872 462.893 295.701 463.818 295.701C464.854 295.701 465.749 295.872 466.504 296.213C467.26 296.554 467.93 297.017 468.514 297.601L467.089 299.027C466.711 298.612 466.249 298.29 465.7 298.058C465.164 297.827 464.537 297.711 463.818 297.711C463.185 297.711 462.606 297.821 462.083 298.04C461.559 298.259 461.102 298.576 460.712 298.99C460.334 299.392 460.042 299.873 459.835 300.434C459.628 300.994 459.524 301.609 459.524 302.279C459.524 302.949 459.628 303.564 459.835 304.125C460.042 304.685 460.334 305.172 460.712 305.586C461.102 305.988 461.559 306.299 462.083 306.518C462.606 306.737 463.185 306.847 463.818 306.847C464.598 306.847 465.256 306.731 465.792 306.5C466.34 306.256 466.803 305.927 467.18 305.513L468.606 306.938C468.021 307.535 467.333 308.004 466.541 308.345C465.749 308.686 464.842 308.857 463.818 308.857ZM473.612 308.857C472.82 308.857 472.101 308.656 471.456 308.254C470.822 307.852 470.317 307.31 469.939 306.628C469.574 305.933 469.391 305.16 469.391 304.307C469.391 303.442 469.574 302.669 469.939 301.987C470.317 301.292 470.822 300.744 471.456 300.342C472.101 299.928 472.82 299.721 473.612 299.721C474.282 299.721 474.872 299.867 475.384 300.159C475.908 300.44 476.322 300.829 476.627 301.329C476.931 301.828 477.083 302.395 477.083 303.028V305.55C477.083 306.183 476.931 306.75 476.627 307.249C476.334 307.749 475.926 308.144 475.402 308.437C474.879 308.717 474.282 308.857 473.612 308.857ZM473.941 306.957C474.684 306.957 475.281 306.707 475.731 306.208C476.194 305.708 476.426 305.069 476.426 304.289C476.426 303.765 476.322 303.302 476.115 302.9C475.908 302.498 475.616 302.188 475.238 301.968C474.872 301.737 474.44 301.621 473.941 301.621C473.453 301.621 473.021 301.737 472.643 301.968C472.278 302.188 471.985 302.498 471.766 302.9C471.559 303.302 471.456 303.765 471.456 304.289C471.456 304.813 471.559 305.276 471.766 305.678C471.985 306.08 472.278 306.396 472.643 306.628C473.021 306.847 473.453 306.957 473.941 306.957ZM476.298 308.674V306.317L476.645 304.179L476.298 302.06V299.904H478.308V308.674H476.298ZM486.55 308.674V303.613C486.55 303.028 486.361 302.547 485.983 302.169C485.618 301.792 485.143 301.603 484.558 301.603C484.168 301.603 483.821 301.688 483.517 301.859C483.212 302.029 482.975 302.267 482.804 302.571C482.633 302.876 482.548 303.223 482.548 303.613L481.763 303.174C481.763 302.504 481.909 301.914 482.201 301.402C482.493 300.878 482.895 300.47 483.407 300.178C483.931 299.873 484.516 299.721 485.161 299.721C485.819 299.721 486.404 299.891 486.915 300.233C487.427 300.561 487.829 300.994 488.121 301.53C488.414 302.054 488.56 302.602 488.56 303.174V308.674H486.55ZM480.538 308.674V299.904H482.548V308.674H480.538ZM493.562 308.674L489.561 299.904H491.79L494.841 307.048H493.526L496.596 299.904H498.733L494.732 308.674H493.562ZM503.286 308.857C502.494 308.857 501.776 308.656 501.13 308.254C500.497 307.852 499.991 307.31 499.613 306.628C499.248 305.933 499.065 305.16 499.065 304.307C499.065 303.442 499.248 302.669 499.613 301.987C499.991 301.292 500.497 300.744 501.13 300.342C501.776 299.928 502.494 299.721 503.286 299.721C503.956 299.721 504.547 299.867 505.059 300.159C505.582 300.44 505.997 300.829 506.301 301.329C506.606 301.828 506.758 302.395 506.758 303.028V305.55C506.758 306.183 506.606 306.75 506.301 307.249C506.009 307.749 505.601 308.144 505.077 308.437C504.553 308.717 503.956 308.857 503.286 308.857ZM503.615 306.957C504.358 306.957 504.955 306.707 505.406 306.208C505.869 305.708 506.1 305.069 506.1 304.289C506.1 303.765 505.997 303.302 505.789 302.9C505.582 302.498 505.29 302.188 504.912 301.968C504.547 301.737 504.114 301.621 503.615 301.621C503.128 301.621 502.695 301.737 502.318 301.968C501.952 302.188 501.66 302.498 501.441 302.9C501.234 303.302 501.13 303.765 501.13 304.289C501.13 304.813 501.234 305.276 501.441 305.678C501.66 306.08 501.952 306.396 502.318 306.628C502.695 306.847 503.128 306.957 503.615 306.957ZM505.972 308.674V306.317L506.319 304.179L505.972 302.06V299.904H507.982V308.674H505.972ZM513.081 308.857C512.594 308.857 512.125 308.796 511.674 308.674C511.224 308.54 510.81 308.358 510.432 308.126C510.054 307.883 509.725 307.59 509.445 307.249L510.724 305.97C511.029 306.323 511.376 306.591 511.766 306.774C512.168 306.945 512.619 307.03 513.118 307.03C513.569 307.03 513.91 306.963 514.141 306.829C514.373 306.695 514.488 306.5 514.488 306.244C514.488 305.976 514.379 305.769 514.16 305.623C513.94 305.477 513.654 305.355 513.301 305.257C512.96 305.148 512.594 305.038 512.204 304.929C511.827 304.819 511.461 304.673 511.108 304.49C510.767 304.295 510.487 304.033 510.268 303.704C510.048 303.375 509.939 302.949 509.939 302.425C509.939 301.865 510.067 301.384 510.322 300.982C510.59 300.58 510.962 300.269 511.437 300.05C511.924 299.831 512.503 299.721 513.173 299.721C513.879 299.721 514.501 299.849 515.037 300.105C515.585 300.348 516.042 300.72 516.407 301.219L515.128 302.498C514.872 302.182 514.58 301.944 514.251 301.786C513.922 301.627 513.544 301.548 513.118 301.548C512.716 301.548 512.405 301.609 512.186 301.731C511.967 301.853 511.857 302.029 511.857 302.261C511.857 302.504 511.967 302.693 512.186 302.827C512.405 302.961 512.686 303.077 513.027 303.174C513.38 303.272 513.745 303.381 514.123 303.503C514.513 303.613 514.878 303.771 515.219 303.978C515.573 304.173 515.859 304.441 516.078 304.782C516.297 305.111 516.407 305.544 516.407 306.08C516.407 306.932 516.109 307.608 515.512 308.108C514.915 308.607 514.105 308.857 513.081 308.857ZM520.933 308.857C520.446 308.857 519.977 308.796 519.526 308.674C519.075 308.54 518.661 308.358 518.283 308.126C517.906 307.883 517.577 307.59 517.297 307.249L518.576 305.97C518.88 306.323 519.227 306.591 519.617 306.774C520.019 306.945 520.47 307.03 520.969 307.03C521.42 307.03 521.761 306.963 521.993 306.829C522.224 306.695 522.34 306.5 522.34 306.244C522.34 305.976 522.23 305.769 522.011 305.623C521.792 305.477 521.505 305.355 521.152 305.257C520.811 305.148 520.446 305.038 520.056 304.929C519.678 304.819 519.313 304.673 518.959 304.49C518.618 304.295 518.338 304.033 518.119 303.704C517.9 303.375 517.79 302.949 517.79 302.425C517.79 301.865 517.918 301.384 518.174 300.982C518.442 300.58 518.813 300.269 519.288 300.05C519.776 299.831 520.354 299.721 521.024 299.721C521.731 299.721 522.352 299.849 522.888 300.105C523.436 300.348 523.893 300.72 524.258 301.219L522.979 302.498C522.723 302.182 522.431 301.944 522.102 301.786C521.773 301.627 521.396 301.548 520.969 301.548C520.567 301.548 520.257 301.609 520.037 301.731C519.818 301.853 519.709 302.029 519.709 302.261C519.709 302.504 519.818 302.693 520.037 302.827C520.257 302.961 520.537 303.077 520.878 303.174C521.231 303.272 521.597 303.381 521.974 303.503C522.364 303.613 522.73 303.771 523.071 303.978C523.424 304.173 523.71 304.441 523.929 304.782C524.149 305.111 524.258 305.544 524.258 306.08C524.258 306.932 523.96 307.608 523.363 308.108C522.766 308.607 521.956 308.857 520.933 308.857ZM525.934 308.674V299.904H527.944V308.674H525.934ZM526.939 298.296C526.598 298.296 526.311 298.18 526.08 297.949C525.861 297.717 525.751 297.431 525.751 297.09C525.751 296.749 525.861 296.462 526.08 296.231C526.311 296 526.598 295.884 526.939 295.884C527.292 295.884 527.578 296 527.797 296.231C528.017 296.462 528.126 296.749 528.126 297.09C528.126 297.431 528.017 297.717 527.797 297.949C527.578 298.18 527.292 298.296 526.939 298.296ZM536.209 308.674V303.613C536.209 303.028 536.021 302.547 535.643 302.169C535.278 301.792 534.802 301.603 534.218 301.603C533.828 301.603 533.481 301.688 533.176 301.859C532.872 302.029 532.634 302.267 532.464 302.571C532.293 302.876 532.208 303.223 532.208 303.613L531.422 303.174C531.422 302.504 531.568 301.914 531.861 301.402C532.153 300.878 532.555 300.47 533.067 300.178C533.59 299.873 534.175 299.721 534.821 299.721C535.479 299.721 536.063 299.891 536.575 300.233C537.087 300.561 537.489 300.994 537.781 301.53C538.073 302.054 538.219 302.602 538.219 303.174V308.674H536.209ZM530.198 308.674V299.904H532.208V308.674H530.198ZM543.916 312.511C542.991 312.511 542.18 312.341 541.486 312C540.792 311.671 540.231 311.202 539.805 310.593L541.121 309.277C541.474 309.716 541.876 310.045 542.327 310.264C542.777 310.483 543.319 310.593 543.953 310.593C544.745 310.593 545.372 310.386 545.835 309.972C546.298 309.57 546.529 309.015 546.529 308.309V306.153L546.876 304.216L546.529 302.261V299.904H548.539V308.309C548.539 309.149 548.344 309.88 547.954 310.502C547.565 311.135 547.023 311.628 546.328 311.982C545.634 312.335 544.83 312.511 543.916 312.511ZM543.825 308.492C543.045 308.492 542.339 308.303 541.705 307.925C541.084 307.535 540.591 307.005 540.225 306.335C539.872 305.665 539.695 304.916 539.695 304.088C539.695 303.26 539.872 302.517 540.225 301.859C540.591 301.201 541.084 300.683 541.705 300.306C542.339 299.916 543.045 299.721 543.825 299.721C544.519 299.721 545.128 299.861 545.652 300.141C546.176 300.421 546.584 300.811 546.876 301.311C547.169 301.798 547.315 302.37 547.315 303.028V305.184C547.315 305.83 547.163 306.402 546.858 306.902C546.566 307.401 546.158 307.791 545.634 308.071C545.11 308.352 544.507 308.492 543.825 308.492ZM544.227 306.591C544.714 306.591 545.141 306.488 545.506 306.281C545.871 306.074 546.152 305.787 546.347 305.422C546.554 305.044 546.657 304.606 546.657 304.106C546.657 303.607 546.554 303.174 546.347 302.809C546.152 302.431 545.871 302.139 545.506 301.932C545.141 301.725 544.714 301.621 544.227 301.621C543.74 301.621 543.307 301.725 542.93 301.932C542.564 302.139 542.278 302.431 542.071 302.809C541.864 303.174 541.76 303.607 541.76 304.106C541.76 304.594 541.864 305.026 542.071 305.404C542.278 305.781 542.564 306.074 542.93 306.281C543.307 306.488 543.74 306.591 544.227 306.591ZM486.563 332.674L491.825 319.884H493.287L498.513 332.674H496.247L492.154 322.314H492.921L488.792 332.674H486.563ZM489.157 330.208V328.38H495.936V330.208H489.157ZM504.764 332.857C504.094 332.857 503.498 332.717 502.974 332.437C502.45 332.144 502.036 331.749 501.731 331.249C501.439 330.75 501.293 330.183 501.293 329.55V327.028C501.293 326.395 501.445 325.828 501.749 325.329C502.054 324.829 502.468 324.44 502.992 324.159C503.516 323.867 504.107 323.721 504.764 323.721C505.556 323.721 506.269 323.928 506.902 324.342C507.548 324.744 508.053 325.292 508.419 325.987C508.796 326.669 508.985 327.442 508.985 328.307C508.985 329.16 508.796 329.933 508.419 330.628C508.053 331.31 507.548 331.852 506.902 332.254C506.269 332.656 505.556 332.857 504.764 332.857ZM504.436 330.957C504.923 330.957 505.349 330.847 505.715 330.628C506.092 330.396 506.385 330.08 506.592 329.678C506.811 329.276 506.921 328.813 506.921 328.289C506.921 327.765 506.811 327.302 506.592 326.9C506.385 326.498 506.092 326.188 505.715 325.968C505.349 325.737 504.923 325.621 504.436 325.621C503.948 325.621 503.516 325.737 503.138 325.968C502.761 326.188 502.468 326.498 502.261 326.9C502.054 327.302 501.95 327.765 501.95 328.289C501.95 328.813 502.054 329.276 502.261 329.678C502.468 330.08 502.761 330.396 503.138 330.628C503.516 330.847 503.948 330.957 504.436 330.957ZM500.068 336.329V323.904H502.078V326.261L501.731 328.399L502.078 330.518V336.329H500.068ZM515.364 332.857C514.694 332.857 514.097 332.717 513.573 332.437C513.049 332.144 512.635 331.749 512.331 331.249C512.038 330.75 511.892 330.183 511.892 329.55V327.028C511.892 326.395 512.044 325.828 512.349 325.329C512.653 324.829 513.067 324.44 513.591 324.159C514.115 323.867 514.706 323.721 515.364 323.721C516.155 323.721 516.868 323.928 517.502 324.342C518.147 324.744 518.653 325.292 519.018 325.987C519.396 326.669 519.585 327.442 519.585 328.307C519.585 329.16 519.396 329.933 519.018 330.628C518.653 331.31 518.147 331.852 517.502 332.254C516.868 332.656 516.155 332.857 515.364 332.857ZM515.035 330.957C515.522 330.957 515.948 330.847 516.314 330.628C516.691 330.396 516.984 330.08 517.191 329.678C517.41 329.276 517.52 328.813 517.52 328.289C517.52 327.765 517.41 327.302 517.191 326.9C516.984 326.498 516.691 326.188 516.314 325.968C515.948 325.737 515.522 325.621 515.035 325.621C514.548 325.621 514.115 325.737 513.737 325.968C513.36 326.188 513.067 326.498 512.86 326.9C512.653 327.302 512.55 327.765 512.55 328.289C512.55 328.813 512.653 329.276 512.86 329.678C513.067 330.08 513.36 330.396 513.737 330.628C514.115 330.847 514.548 330.957 515.035 330.957ZM510.668 336.329V323.904H512.678V326.261L512.331 328.399L512.678 330.518V336.329H510.668Z" fill="black"/>
<path d="M270.334 527.179V514.754H272.435V527.179H270.334ZM266.168 516.307V514.389H276.601V516.307H266.168ZM279.966 527.362C279.088 527.362 278.297 527.167 277.59 526.777C276.896 526.375 276.342 525.827 275.927 525.133C275.525 524.438 275.324 523.659 275.324 522.794C275.324 521.929 275.525 521.155 275.927 520.473C276.329 519.779 276.871 519.231 277.554 518.829C278.248 518.427 279.015 518.226 279.856 518.226C280.672 518.226 281.391 518.415 282.012 518.792C282.645 519.17 283.139 519.687 283.492 520.345C283.857 521.003 284.04 521.752 284.04 522.593C284.04 522.739 284.028 522.891 284.004 523.05C283.991 523.196 283.967 523.36 283.931 523.543H276.731V521.898H282.889L282.14 522.556C282.116 522.02 282.012 521.57 281.829 521.204C281.647 520.839 281.385 520.558 281.044 520.364C280.715 520.169 280.307 520.071 279.819 520.071C279.308 520.071 278.863 520.181 278.485 520.4C278.108 520.619 277.815 520.93 277.608 521.332C277.401 521.722 277.298 522.191 277.298 522.739C277.298 523.287 277.407 523.768 277.627 524.182C277.846 524.597 278.157 524.919 278.559 525.151C278.961 525.37 279.423 525.48 279.947 525.48C280.398 525.48 280.812 525.401 281.19 525.242C281.58 525.084 281.908 524.852 282.176 524.548L283.455 525.845C283.029 526.345 282.511 526.722 281.902 526.978C281.293 527.234 280.648 527.362 279.966 527.362ZM290.956 527.179L288.435 523.47L288.069 523.141L284.671 518.408H287.101L289.348 521.661L289.696 521.972L293.368 527.179H290.956ZM284.506 527.179L288.051 522.264L289.221 523.707L286.845 527.179H284.506ZM289.878 523.104L288.691 521.679L290.883 518.408H293.204L289.878 523.104ZM295.693 527.179V514.754H297.703V527.179H295.693ZM293.592 520.236V518.408H299.804V520.236H293.592ZM300.962 523.47V521.57H307.156V523.47H300.962ZM314.08 527.362C313.41 527.362 312.813 527.222 312.289 526.942C311.765 526.649 311.351 526.253 311.047 525.754C310.754 525.254 310.608 524.688 310.608 524.055V521.533C310.608 520.9 310.76 520.333 311.065 519.834C311.369 519.334 311.784 518.944 312.307 518.664C312.831 518.372 313.422 518.226 314.08 518.226C314.872 518.226 315.584 518.433 316.218 518.847C316.863 519.249 317.369 519.797 317.734 520.491C318.112 521.174 318.301 521.947 318.301 522.812C318.301 523.665 318.112 524.438 317.734 525.133C317.369 525.815 316.863 526.357 316.218 526.759C315.584 527.161 314.872 527.362 314.08 527.362ZM313.751 525.461C314.238 525.461 314.664 525.352 315.03 525.133C315.408 524.901 315.7 524.584 315.907 524.182C316.126 523.78 316.236 523.318 316.236 522.794C316.236 522.27 316.126 521.807 315.907 521.405C315.7 521.003 315.408 520.692 315.03 520.473C314.664 520.242 314.238 520.126 313.751 520.126C313.264 520.126 312.831 520.242 312.454 520.473C312.076 520.692 311.784 521.003 311.577 521.405C311.369 521.807 311.266 522.27 311.266 522.794C311.266 523.318 311.369 523.78 311.577 524.182C311.784 524.584 312.076 524.901 312.454 525.133C312.831 525.352 313.264 525.461 313.751 525.461ZM309.384 527.179V514.023H311.394V520.565L311.047 522.684L311.394 524.822V527.179H309.384ZM323.656 527.362C322.864 527.362 322.145 527.161 321.5 526.759C320.866 526.357 320.361 525.815 319.983 525.133C319.618 524.438 319.435 523.665 319.435 522.812C319.435 521.947 319.618 521.174 319.983 520.491C320.361 519.797 320.866 519.249 321.5 518.847C322.145 518.433 322.864 518.226 323.656 518.226C324.326 518.226 324.917 518.372 325.428 518.664C325.952 518.944 326.366 519.334 326.671 519.834C326.975 520.333 327.128 520.9 327.128 521.533V524.055C327.128 524.688 326.975 525.254 326.671 525.754C326.378 526.253 325.97 526.649 325.447 526.942C324.923 527.222 324.326 527.362 323.656 527.362ZM323.985 525.461C324.728 525.461 325.325 525.212 325.775 524.712C326.238 524.213 326.47 523.573 326.47 522.794C326.47 522.27 326.366 521.807 326.159 521.405C325.952 521.003 325.66 520.692 325.282 520.473C324.917 520.242 324.484 520.126 323.985 520.126C323.497 520.126 323.065 520.242 322.687 520.473C322.322 520.692 322.03 521.003 321.81 521.405C321.603 521.807 321.5 522.27 321.5 522.794C321.5 523.318 321.603 523.78 321.81 524.182C322.03 524.584 322.322 524.901 322.687 525.133C323.065 525.352 323.497 525.461 323.985 525.461ZM326.342 527.179V524.822L326.689 522.684L326.342 520.565V518.408H328.352V527.179H326.342ZM336.594 527.179V522.118C336.594 521.533 336.405 521.052 336.028 520.674C335.662 520.297 335.187 520.108 334.602 520.108C334.212 520.108 333.865 520.193 333.561 520.364C333.256 520.534 333.019 520.772 332.848 521.076C332.678 521.381 332.592 521.728 332.592 522.118L331.807 521.679C331.807 521.009 331.953 520.418 332.245 519.907C332.538 519.383 332.94 518.975 333.451 518.683C333.975 518.378 334.56 518.226 335.205 518.226C335.863 518.226 336.448 518.396 336.959 518.737C337.471 519.066 337.873 519.499 338.165 520.035C338.458 520.558 338.604 521.107 338.604 521.679V527.179H336.594ZM330.582 527.179V518.408H332.592V527.179H330.582ZM346.219 527.179L342.51 522.702L346.201 518.408H348.595L344.356 523.232L344.447 522.081L348.778 527.179H346.219ZM340.646 527.179V514.023H342.656V527.179H340.646ZM349.676 527.179V518.408H351.686V527.179H349.676ZM350.681 516.8C350.34 516.8 350.053 516.685 349.822 516.453C349.603 516.222 349.493 515.936 349.493 515.595C349.493 515.253 349.603 514.967 349.822 514.736C350.053 514.504 350.34 514.389 350.681 514.389C351.034 514.389 351.32 514.504 351.54 514.736C351.759 514.967 351.868 515.253 351.868 515.595C351.868 515.936 351.759 516.222 351.54 516.453C351.32 516.685 351.034 516.8 350.681 516.8ZM359.952 527.179V522.118C359.952 521.533 359.763 521.052 359.385 520.674C359.02 520.297 358.545 520.108 357.96 520.108C357.57 520.108 357.223 520.193 356.918 520.364C356.614 520.534 356.376 520.772 356.206 521.076C356.035 521.381 355.95 521.728 355.95 522.118L355.164 521.679C355.164 521.009 355.311 520.418 355.603 519.907C355.895 519.383 356.297 518.975 356.809 518.683C357.333 518.378 357.917 518.226 358.563 518.226C359.221 518.226 359.805 518.396 360.317 518.737C360.829 519.066 361.231 519.499 361.523 520.035C361.815 520.558 361.962 521.107 361.962 521.679V527.179H359.952ZM353.94 527.179V518.408H355.95V527.179H353.94ZM367.659 531.016C366.733 531.016 365.923 530.846 365.228 530.505C364.534 530.176 363.974 529.707 363.547 529.098L364.863 527.782C365.216 528.221 365.618 528.549 366.069 528.769C366.52 528.988 367.062 529.098 367.695 529.098C368.487 529.098 369.114 528.891 369.577 528.476C370.04 528.074 370.271 527.52 370.271 526.814V524.658L370.619 522.721L370.271 520.766V518.408H372.281V526.814C372.281 527.654 372.086 528.385 371.697 529.006C371.307 529.64 370.765 530.133 370.07 530.486C369.376 530.84 368.572 531.016 367.659 531.016ZM367.567 526.996C366.788 526.996 366.081 526.808 365.448 526.43C364.826 526.04 364.333 525.51 363.968 524.84C363.614 524.17 363.438 523.421 363.438 522.593C363.438 521.764 363.614 521.021 363.968 520.364C364.333 519.706 364.826 519.188 365.448 518.81C366.081 518.421 366.788 518.226 367.567 518.226C368.261 518.226 368.871 518.366 369.394 518.646C369.918 518.926 370.326 519.316 370.619 519.815C370.911 520.303 371.057 520.875 371.057 521.533V523.689C371.057 524.335 370.905 524.907 370.6 525.407C370.308 525.906 369.9 526.296 369.376 526.576C368.852 526.856 368.249 526.996 367.567 526.996ZM367.969 525.096C368.456 525.096 368.883 524.993 369.248 524.785C369.614 524.578 369.894 524.292 370.089 523.927C370.296 523.549 370.399 523.11 370.399 522.611C370.399 522.112 370.296 521.679 370.089 521.314C369.894 520.936 369.614 520.644 369.248 520.437C368.883 520.23 368.456 520.126 367.969 520.126C367.482 520.126 367.049 520.23 366.672 520.437C366.306 520.644 366.02 520.936 365.813 521.314C365.606 521.679 365.502 522.112 365.502 522.611C365.502 523.098 365.606 523.531 365.813 523.908C366.02 524.286 366.306 524.578 366.672 524.785C367.049 524.993 367.482 525.096 367.969 525.096Z" fill="black"/>
<path d="M313.346 285.222L319.84 290.417L330.554 282.95H341.268L351.982 285.222L360.424 295.936V308.923L351.982 321.585L342.891 331.001L329.58 342.04L319.84 346.26L311.398 343.014L298.412 335.222L284.775 318.663L282.827 310.871L279.581 299.833L286.074 285.222L299.386 280.352L313.346 285.222Z" fill="white"/>
<path d="M320.164 346.263C338.222 337.461 350.216 327.59 356.326 317.451C361.501 308.864 362.145 300.493 358.896 293.605C355.946 287.352 349.953 282.887 343.049 281.736C335.68 280.508 328.181 283.133 322.236 289.632L320.164 291.897L318.092 289.632C312.147 283.133 304.648 280.508 297.279 281.736C290.375 282.887 284.382 287.352 281.432 293.605C278.183 300.493 278.827 308.864 284.002 317.451C290.113 327.59 302.107 337.461 320.164 346.263Z" fill="url(#paint1_linear_19_1723)" fill-opacity="0.3"/>
<path fill-rule="evenodd" clip-rule="evenodd" d="M320.164 286.815C313.581 279.898 305.148 276.936 296.716 278.341C288.734 279.671 281.774 284.832 278.329 292.134C274.485 300.283 275.432 309.885 281.064 319.231C287.659 330.174 300.317 340.416 318.664 349.359L320.164 350.09L321.664 349.359C340.011 340.416 352.669 330.174 359.264 319.231C364.896 309.885 365.843 300.283 361.999 292.134C358.555 284.832 351.595 279.671 343.612 278.341C335.18 276.936 326.747 279.898 320.164 286.815ZM315.563 291.959C310.319 286.227 303.951 284.114 297.842 285.132C292.017 286.102 286.99 289.872 284.535 295.077C281.881 300.702 282.223 307.844 286.939 315.67C292.406 324.741 303.256 333.966 320.164 342.426C337.072 333.966 347.922 324.741 353.389 315.67C358.105 307.844 358.447 300.702 355.794 295.077C353.338 289.872 348.311 286.102 342.487 285.132C336.378 284.114 330.009 286.227 324.765 291.959L320.164 296.989L315.563 291.959Z" fill="#DD1537"/>
<path d="M318.326 321.526L313.414 324.07C312.911 324.33 312.29 324.14 312.026 323.645C311.921 323.448 311.885 323.223 311.923 323.004L312.862 317.614C313.081 316.352 312.657 315.066 311.726 314.172L307.75 310.355C307.344 309.965 307.335 309.325 307.731 308.925C307.889 308.766 308.096 308.662 308.319 308.63L313.813 307.844C315.1 307.66 316.212 306.864 316.787 305.716L319.244 300.814C319.495 300.313 320.111 300.107 320.62 300.354C320.822 300.453 320.986 300.614 321.086 300.814L323.543 305.716C324.118 306.864 325.231 307.66 326.517 307.844L332.011 308.63C332.572 308.711 332.961 309.224 332.88 309.776C332.847 309.996 332.742 310.2 332.58 310.355L328.604 314.172C327.673 315.066 327.249 316.352 327.468 317.614L328.407 323.004C328.503 323.554 328.127 324.077 327.568 324.171C327.346 324.209 327.117 324.173 326.917 324.07L322.004 321.526C320.853 320.93 319.477 320.93 318.326 321.526Z" fill="#2D52FF"/>
<defs>
<filter id="filter0_d_19_1723" x="106.77" y="0.36493" width="426.698" height="426.698" filterUnits="userSpaceOnUse" color-interpolation-filters="sRGB">
<feFlood flood-opacity="0" result="BackgroundImageFix"/>
<feColorMatrix in="SourceAlpha" type="matrix" values="0 0 0 0 0 0 0 0 0 0 0 0 0 0 0 0 0 0 127 0" result="hardAlpha"/>
<feMorphology radius="7.61341" operator="dilate" in="SourceAlpha" result="effect1_dropShadow_19_1723"/>
<feOffset dy="10.6588"/>
<feGaussianBlur stdDeviation="22.8402"/>
<feComposite in2="hardAlpha" operator="out"/>
<feColorMatrix type="matrix" values="0 0 0 0 0.702897 0 0 0 0 0.784317 0 0 0 0 0.924951 0 0 0 0.25 0"/>
<feBlend mode="normal" in2="BackgroundImageFix" result="effect1_dropShadow_19_1723"/>
<feBlend mode="normal" in="SourceGraphic" in2="effect1_dropShadow_19_1723" result="shape"/>
</filter>
<filter id="filter1_d_19_1723" x="212.596" y="106.191" width="426.698" height="426.698" filterUnits="userSpaceOnUse" color-interpolation-filters="sRGB">
<feFlood flood-opacity="0" result="BackgroundImageFix"/>
<feColorMatrix in="SourceAlpha" type="matrix" values="0 0 0 0 0 0 0 0 0 0 0 0 0 0 0 0 0 0 127 0" result="hardAlpha"/>
<feMorphology radius="7.61341" operator="dilate" in="SourceAlpha" result="effect1_dropShadow_19_1723"/>
<feOffset dy="10.6588"/>
<feGaussianBlur stdDeviation="22.8402"/>
<feComposite in2="hardAlpha" operator="out"/>
<feColorMatrix type="matrix" values="0 0 0 0 0.702897 0 0 0 0 0.784317 0 0 0 0 0.924951 0 0 0 0.25 0"/>
<feBlend mode="normal" in2="BackgroundImageFix" result="effect1_dropShadow_19_1723"/>
<feBlend mode="normal" in="SourceGraphic" in2="effect1_dropShadow_19_1723" result="shape"/>
</filter>
<filter id="filter2_d_19_1723" x="106.77" y="212.018" width="426.698" height="426.698" filterUnits="userSpaceOnUse" color-interpolation-filters="sRGB">
<feFlood flood-opacity="0" result="BackgroundImageFix"/>
<feColorMatrix in="SourceAlpha" type="matrix" values="0 0 0 0 0 0 0 0 0 0 0 0 0 0 0 0 0 0 127 0" result="hardAlpha"/>
<feMorphology radius="7.61341" operator="dilate" in="SourceAlpha" result="effect1_dropShadow_19_1723"/>
<feOffset dy="10.6588"/>
<feGaussianBlur stdDeviation="22.8402"/>
<feComposite in2="hardAlpha" operator="out"/>
<feColorMatrix type="matrix" values="0 0 0 0 0.702897 0 0 0 0 0.784317 0 0 0 0 0.924951 0 0 0 0.25 0"/>
<feBlend mode="normal" in2="BackgroundImageFix" result="effect1_dropShadow_19_1723"/>
<feBlend mode="normal" in="SourceGraphic" in2="effect1_dropShadow_19_1723" result="shape"/>
</filter>
<filter id="filter3_d_19_1723" x="0.943468" y="106.191" width="426.698" height="426.698" filterUnits="userSpaceOnUse" color-interpolation-filters="sRGB">
<feFlood flood-opacity="0" result="BackgroundImageFix"/>
<feColorMatrix in="SourceAlpha" type="matrix" values="0 0 0 0 0 0 0 0 0 0 0 0 0 0 0 0 0 0 127 0" result="hardAlpha"/>
<feMorphology radius="7.61341" operator="dilate" in="SourceAlpha" result="effect1_dropShadow_19_1723"/>
<feOffset dy="10.6588"/>
<feGaussianBlur stdDeviation="22.8402"/>
<feComposite in2="hardAlpha" operator="out"/>
<feColorMatrix type="matrix" values="0 0 0 0 0.702897 0 0 0 0 0.784317 0 0 0 0 0.924951 0 0 0 0.25 0"/>
<feBlend mode="normal" in2="BackgroundImageFix" result="effect1_dropShadow_19_1723"/>
<feBlend mode="normal" in="SourceGraphic" in2="effect1_dropShadow_19_1723" result="shape"/>
</filter>
<linearGradient id="paint0_linear_19_1723" x1="248.5" y1="239.321" x2="381.81" y2="330.526" gradientUnits="userSpaceOnUse">
<stop stop-color="#1AFFFF"/>
<stop offset="1" stop-color="#ECF015" stop-opacity="0.5"/>
</linearGradient>
<linearGradient id="paint1_linear_19_1723" x1="284.288" y1="285.547" x2="342.242" y2="333.842" gradientUnits="userSpaceOnUse">
<stop stop-color="#1AFFFF"/>
<stop offset="1" stop-color="#ECF015" stop-opacity="0.5"/>
</linearGradient>
</defs>
</svg>
