<svg width="84" height="81" viewBox="0 0 84 81" fill="none" xmlns="http://www.w3.org/2000/svg">
<path d="M41.8719 14.4273C32.4368 14.1377 32.4161 0.440247 41.8719 0.129883C51.307 0.419556 51.307 14.117 41.8719 14.4273ZM9.69749 25.6625C0.655545 22.9727 -3.60679 36.1321 5.26963 39.2565C14.2909 41.9049 18.6153 28.8903 9.69749 25.6625ZM25.0088 67.1479C17.2497 61.7889 9.11814 72.9827 16.6083 78.7141C24.3674 84.073 32.4989 72.8999 25.0088 67.1479ZM64.5285 65.6995C55.1762 64.458 53.0243 78.1141 62.2939 79.8107C71.6255 81.0522 73.798 67.3961 64.5285 65.6995ZM83.2124 29.9662C80.0674 21.0691 66.9286 25.3521 69.6185 34.3734C72.7635 43.2705 85.9022 38.9875 83.2124 29.9662ZM41.934 42.6291C46.7343 42.5049 46.7343 35.47 41.934 35.3459C37.1337 35.47 37.1337 42.5049 41.934 42.6291ZM55.6107 62.5545C50.8104 50.264 33.0783 50.264 28.278 62.5545C35.7681 68.5755 48.1206 68.5755 55.6107 62.5545ZM25.0502 59.637C11.6631 45.381 22.1948 21.1933 41.934 21.3381C61.6731 21.1933 72.2048 45.381 58.8178 59.637C55.7348 53.4091 49.3413 49.126 41.934 49.126C34.5266 49.126 28.1331 53.4298 25.0502 59.637ZM41.934 46.7673C52.2174 46.4362 52.2174 31.5387 41.934 31.2077C31.6506 31.5387 31.6506 46.4362 41.934 46.7673Z" fill="white"/>
</svg>
