<svg width="333" height="333" viewBox="0 0 333 333" fill="none" xmlns="http://www.w3.org/2000/svg">
<path d="M154.942 287.603C222.812 287.603 277.833 232.584 277.833 164.713C277.833 96.8424 222.812 41.8223 154.942 41.8223C87.0709 41.8223 32.0508 96.8424 32.0508 164.713C32.0508 232.584 87.0709 287.603 154.942 287.603Z" fill="url(#paint0_linear_7475_1683)"/>
<path d="M151.942 288.235C151.572 288.235 151.201 288.215 150.835 288.202L150.877 286.874L151.984 286.905L151.942 288.235ZM158.615 288.213L158.575 286.885C158.943 286.874 159.31 286.863 159.682 286.847L159.735 288.175L158.615 288.213ZM144.169 287.806L143.062 287.704L143.191 286.376C143.557 286.411 143.925 286.444 144.297 286.475L144.169 287.806ZM166.388 287.735L166.265 286.407L167.36 286.3L167.495 287.628L166.388 287.735ZM136.438 286.889C136.07 286.834 135.705 286.779 135.331 286.719L135.541 285.409L136.628 285.577L136.438 286.889ZM174.115 286.772L173.909 285.459C174.272 285.404 174.635 285.344 174.996 285.285L175.217 286.595L174.115 286.772ZM128.788 285.488C128.425 285.411 128.065 285.331 127.702 285.249L127.994 283.954L129.067 284.191L128.788 285.488ZM181.776 285.327L181.488 284.03C181.846 283.95 182.205 283.87 182.561 283.786L182.86 285.081C182.494 285.165 182.13 285.247 181.767 285.327H181.776ZM121.234 283.609L120.156 283.301L120.528 282.027L121.584 282.33L121.234 283.609ZM189.321 283.403L188.953 282.128L190.011 281.818L190.39 283.091L189.321 283.403ZM113.806 281.265C113.459 281.141 113.109 281.017 112.762 280.889L113.204 279.641C113.55 279.769 113.895 279.893 114.24 280.012L113.806 281.265ZM196.724 281.022L196.282 279.771L197.318 279.395L197.778 280.641L196.724 281.022ZM106.553 278.443C106.212 278.299 105.874 278.153 105.533 278L106.064 276.783C106.401 276.929 106.728 277.075 107.073 277.226L106.553 278.443ZM203.969 278.164L203.444 276.945L204.453 276.502L204.991 277.717L203.969 278.164ZM99.4994 275.17C99.1674 275.006 98.8376 274.838 98.51 274.667L99.1164 273.485C99.4418 273.653 99.7694 273.819 100.095 273.983L99.4994 275.17ZM211.02 274.846L210.418 273.662C210.746 273.496 211.082 273.328 211.399 273.158L212.01 274.335C211.682 274.506 211.346 274.676 211.02 274.846ZM92.6579 271.445C92.3392 271.259 92.0205 271.071 91.7018 270.88L92.3835 269.74L93.3286 270.3L92.6579 271.445ZM217.846 271.084L217.182 269.942L218.127 269.375L218.816 270.513C218.486 270.714 218.165 270.905 217.846 271.084ZM86.0711 267.306C85.7634 267.098 85.458 266.892 85.1525 266.681L85.9051 265.586C86.2061 265.794 86.5093 266 86.8103 266.203L86.0711 267.306ZM224.423 266.918L223.674 265.812C223.98 265.606 224.281 265.398 224.584 265.187L225.341 266.279L224.423 266.918ZM79.7564 262.762C79.4614 262.536 79.1664 262.31 78.8711 262.08L79.69 261.033C79.9778 261.254 80.2677 261.476 80.5577 261.708L79.7564 262.762ZM230.719 262.332L229.905 261.283L230.773 260.601L231.598 261.642C231.306 261.874 231.014 262.102 230.719 262.332ZM236.715 257.355L235.83 256.361C236.105 256.117 236.381 255.872 236.653 255.626L237.539 256.611C237.271 256.861 236.992 257.109 236.715 257.361V257.355ZM242.384 252.012L241.443 251.075L242.216 250.292L243.165 251.219C242.906 251.485 242.645 251.75 242.384 252.012ZM247.696 246.328L246.7 245.442L247.424 244.612L248.428 245.48C248.189 245.768 247.948 246.051 247.702 246.328H247.696ZM252.656 240.325L251.604 239.511C251.826 239.221 252.047 238.933 252.268 238.641L253.326 239.446L252.656 240.325ZM257.226 234.03L256.12 233.285C256.326 232.981 256.531 232.678 256.733 232.375L257.839 233.112C257.647 233.417 257.441 233.725 257.233 234.03H257.226ZM261.392 227.461L260.25 226.786C260.436 226.472 260.622 226.155 260.803 225.839L261.952 226.503C261.773 226.824 261.587 227.142 261.398 227.461H261.392ZM265.137 220.643L263.955 220.041C264.119 219.715 264.285 219.377 264.446 219.06L265.637 219.651C265.475 219.983 265.312 220.313 265.143 220.643H265.137ZM268.45 213.598L267.231 213.073C267.379 212.737 267.521 212.399 267.66 212.062L268.884 212.577C268.742 212.922 268.598 213.263 268.45 213.598ZM271.301 206.358L270.05 205.915C270.174 205.57 270.296 205.225 270.416 204.879L271.671 205.322C271.549 205.661 271.427 206.012 271.301 206.358ZM273.689 198.95L272.414 198.582L272.713 197.524L273.992 197.881C273.893 198.238 273.791 198.594 273.689 198.95ZM275.604 191.404L274.307 191.119C274.386 190.76 274.462 190.402 274.528 190.043L275.827 190.318C275.754 190.681 275.683 191.044 275.604 191.404ZM277.038 183.753L275.725 183.549C275.781 183.189 275.836 182.826 275.889 182.463L277.204 182.655L277.038 183.753ZM277.987 176.026L276.659 175.907C276.693 175.542 276.726 175.176 276.755 174.8L278.083 174.909C278.054 175.287 278.021 175.657 277.987 176.026ZM278.45 168.255L277.122 168.218C277.122 167.85 277.142 167.485 277.149 167.111L278.477 167.137C278.468 167.514 278.461 167.883 278.45 168.255ZM277.098 160.509C277.084 160.141 277.069 159.776 277.053 159.402L278.381 159.344C278.397 159.714 278.41 160.086 278.423 160.451L277.098 160.509ZM276.589 152.822C276.553 152.456 276.516 152.091 276.478 151.715L277.806 151.576C277.846 151.943 277.883 152.313 277.919 152.682L276.589 152.822ZM275.601 145.181C275.544 144.82 275.482 144.457 275.422 144.097L276.73 143.875C276.792 144.241 276.854 144.606 276.912 144.982L275.601 145.181ZM274.136 137.62C274.057 137.262 273.972 136.906 273.888 136.547L275.181 136.244C275.267 136.605 275.349 136.965 275.431 137.328L274.136 137.62ZM272.2 130.164C272.098 129.812 271.991 129.46 271.885 129.108L273.156 128.723C273.264 129.079 273.377 129.433 273.474 129.79L272.2 130.164ZM269.798 122.844C269.672 122.499 269.546 122.154 269.417 121.811L270.661 121.346C270.792 121.693 270.918 122.041 271.046 122.391L269.798 122.844ZM266.938 115.691C266.79 115.354 266.644 115.018 266.496 114.681L267.706 114.139C267.855 114.479 268.001 114.819 268.149 115.16L266.938 115.691ZM263.632 108.732C263.464 108.404 263.295 108.068 263.123 107.752L264.3 107.134C264.473 107.464 264.643 107.794 264.814 108.123L263.632 108.732ZM259.891 101.995C259.703 101.68 259.515 101.366 259.322 101.052L260.456 100.359C260.648 100.678 260.841 100.994 261.031 101.313L259.891 101.995ZM255.73 95.5096L255.102 94.6043L256.188 93.8407C256.41 94.1462 256.613 94.4516 256.826 94.7593L255.73 95.5096ZM251.166 89.3123C250.938 89.0172 250.71 88.7286 250.48 88.4468L251.516 87.6168C251.748 87.9119 251.981 88.2034 252.211 88.4911L251.166 89.3123ZM246.215 83.3938C245.972 83.1194 245.724 82.8449 245.476 82.5727L246.458 81.6873C246.709 81.964 246.959 82.2384 247.207 82.5173L246.215 83.3938ZM240.903 77.8096C240.642 77.5499 240.381 77.2932 240.117 77.0393L241.04 76.0854C241.308 76.3443 241.571 76.6033 241.837 76.8645L240.903 77.8096ZM235.25 72.5772C234.976 72.336 234.697 72.097 234.418 71.8579L235.281 70.8486C235.564 71.0899 235.843 71.3334 236.124 71.5768L235.25 72.5772Z" fill="#D4DCFF"/>
<path d="M74.5972 258.576C49.7029 237.268 34.293 206.943 31.7574 174.273C29.2219 141.603 39.7684 109.263 61.077 84.3687C82.3857 59.4744 112.711 44.0645 145.381 41.5289C178.051 38.9933 210.391 49.5399 235.286 70.8485L234.422 71.8578C209.617 50.6364 178.033 40.3266 145.481 42.8543C112.93 45.3819 83.3133 60.4304 62.0852 85.233C40.8571 110.036 30.5541 141.622 33.0905 174.171C35.627 206.721 50.6555 236.334 75.4604 257.567L74.5972 258.576Z" fill="#D4DCFF"/>
<path d="M285.478 197.051L49.3008 246.779L49.5744 248.078L285.75 198.35L285.478 197.051Z" fill="#D4DCFF"/>
<path d="M250.797 291.811C250.68 291.811 250.565 291.78 250.465 291.721L199.813 262.478C199.718 262.425 199.638 262.345 199.58 262.252C199.522 262.159 199.488 262.053 199.482 261.942C199.475 261.834 199.496 261.723 199.542 261.624C199.588 261.524 199.658 261.438 199.746 261.371L259.188 216.902C259.292 216.824 259.416 216.778 259.547 216.77C259.677 216.762 259.806 216.793 259.918 216.858C260.031 216.923 260.122 217.019 260.18 217.136C260.239 217.252 260.262 217.383 260.246 217.513L251.455 291.216C251.435 291.38 251.357 291.528 251.236 291.636C251.112 291.745 250.954 291.805 250.791 291.802L250.797 291.811ZM201.349 261.829L250.264 290.067L258.75 218.894L201.349 261.829Z" fill="#00A6FB"/>
<path d="M247.084 100.916C246.967 100.916 246.854 100.885 246.752 100.828L224.263 87.842C224.187 87.7984 224.121 87.7404 224.068 87.6711C224.015 87.6021 223.975 87.523 223.953 87.4387C223.931 87.3544 223.924 87.2665 223.935 87.18C223.946 87.0934 223.975 87.01 224.019 86.9345L237.005 64.4448C237.047 64.3691 237.106 64.303 237.175 64.2498C237.244 64.1967 237.323 64.1575 237.407 64.135C237.492 64.1124 237.58 64.1066 237.666 64.1179C237.753 64.1294 237.837 64.1578 237.912 64.2014L260.402 77.1958C260.555 77.2837 260.665 77.4285 260.709 77.5982C260.756 77.7678 260.732 77.9486 260.645 78.1011L247.66 100.593C247.615 100.668 247.558 100.735 247.489 100.788C247.418 100.841 247.341 100.88 247.257 100.903C247.199 100.914 247.142 100.918 247.084 100.916ZM225.509 87.023L246.85 99.3447L259.169 78.0037L237.824 65.6865L225.509 87.023Z" fill="#00A6FB"/>
<path d="M165.128 254.198L100.68 266.847L100.819 263.268C100.874 261.859 101.403 260.508 102.321 259.435C103.24 258.364 104.493 257.633 105.879 257.361L160.037 246.737C160.684 246.611 161.351 246.633 161.988 246.799C162.626 246.967 163.217 247.277 163.718 247.707C164.218 248.134 164.616 248.672 164.88 249.276C165.144 249.878 165.268 250.535 165.243 251.193L165.128 254.198Z" fill="#00A6FB"/>
<path d="M100.68 266.847L104.688 269.395L169.131 256.746L165.125 254.198L100.68 266.847Z" fill="#00A6FB"/>
<path d="M162.799 247.091L167.34 249.953L169.131 256.745L160.758 252.679L162.799 247.091Z" fill="#00A6FB"/>
<path d="M203.377 54.8414L79.9835 72.8624C77.4824 73.2262 75.1907 74.463 73.5137 76.3539C71.8368 78.2445 70.8827 80.6677 70.8203 83.1942L67.6419 210.735C67.626 211.394 67.7581 212.047 68.0284 212.648C68.2986 213.249 68.7003 213.781 69.2036 214.206C69.7072 214.631 70.2995 214.937 70.9369 215.103C71.5746 215.268 72.241 215.288 72.8875 215.162L195.816 191.096C198.192 190.629 200.339 189.369 201.906 187.524C203.474 185.679 204.37 183.357 204.448 180.937L208.394 59.3411C208.415 58.6992 208.295 58.0607 208.043 57.4702C207.79 56.8797 207.411 56.3516 206.933 55.9228C206.455 55.4939 205.889 55.175 205.275 54.9881C204.661 54.8013 204.013 54.7513 203.377 54.8414ZM201.121 67.8027L197.624 175.592C197.549 177.937 196.68 180.188 195.16 181.974C193.639 183.761 191.556 184.979 189.254 185.428L80.2646 206.765C79.607 206.893 78.929 206.872 78.2805 206.704C77.632 206.535 77.0298 206.223 76.5178 205.791C76.0059 205.359 75.5975 204.817 75.3228 204.206C75.0482 203.595 74.914 202.93 74.9304 202.26L77.7458 89.3207C77.808 86.8429 78.7444 84.4669 80.3892 82.6128C82.0341 80.7584 84.2813 79.5455 86.7341 79.1881L195.998 63.2299C196.645 63.1356 197.306 63.1848 197.933 63.3736C198.56 63.5624 199.138 63.8866 199.625 64.3231C200.113 64.7596 200.5 65.2976 200.757 65.8997C201.014 66.5017 201.136 67.1529 201.115 67.8071L201.121 67.8027Z" fill="#D4DCFF"/>
<path d="M158.2 122.176C158.2 122.176 169.413 129.555 180.923 129.849C192.432 130.144 200.106 127.193 203.941 129.849L226.372 159.532L227.846 162.507C227.846 162.507 243.782 179.231 245.355 183.363C246.929 187.496 243.782 193.002 236.307 190.643C236.307 190.643 236.502 200.085 225.683 197.135C225.683 197.135 222.928 203.823 215.059 201.267C215.059 201.267 212.5 207.562 197.547 198.314C182.594 189.067 163.313 172.715 163.313 172.715C163.313 172.715 157.795 160.688 141.078 159.532L158.2 122.176Z" fill="#D4DCFF"/>
<path d="M196.12 74.2676L85.8516 90.4524L86.0446 91.7664L196.313 75.5816L196.12 74.2676Z" fill="white"/>
<path d="M178.607 74.9124C178.53 74.9128 178.452 74.9075 178.375 74.8969C177.047 74.7287 176.204 73.1926 176.432 71.402C176.66 69.6114 177.877 68.3388 179.189 68.5048C180.502 68.6708 181.361 70.209 181.133 71.9996C180.918 73.6862 179.834 74.9124 178.607 74.9124ZM178.964 69.8217C178.483 69.8217 177.881 70.5388 177.749 71.5725C177.611 72.6459 178.054 73.5202 178.543 73.5822C179.032 73.6441 179.679 72.9182 179.816 71.8358C179.953 70.7535 179.508 69.8881 179.021 69.8239L178.964 69.8217Z" fill="white"/>
<path d="M185.954 73.9891C185.88 73.9889 185.806 73.9845 185.733 73.9758C185.38 73.9161 185.049 73.7698 184.768 73.5497C184.486 73.33 184.264 73.0436 184.121 72.7164C183.808 72.0152 183.694 71.2417 183.791 70.4801C183.889 69.7185 184.193 68.9983 184.672 68.3982C184.881 68.1034 185.166 67.8708 185.496 67.7254C185.827 67.5799 186.191 67.5271 186.549 67.5724C186.908 67.618 187.247 67.7601 187.531 67.9834C187.814 68.207 188.032 68.5034 188.161 68.8409C188.486 69.5379 188.601 70.315 188.49 71.0764C188.405 71.8422 188.097 72.5661 187.605 73.1591C187.406 73.4083 187.155 73.6115 186.87 73.7547C186.585 73.8979 186.273 73.9778 185.954 73.9891ZM186.31 68.8984C186.184 68.9146 186.062 68.9558 185.952 69.0195C185.841 69.0835 185.745 69.1687 185.668 69.2703C185.362 69.6724 185.166 70.1483 185.102 70.6501C185.038 71.1516 185.108 71.6613 185.303 72.1277C185.394 72.3092 185.591 72.6213 185.894 72.6611C186.197 72.7009 186.467 72.4398 186.6 72.2937C186.917 71.8971 187.114 71.4176 187.167 70.9126C187.241 70.411 187.171 69.8989 186.963 69.4363C186.875 69.2526 186.675 68.9427 186.374 68.9029L186.31 68.8984Z" fill="white"/>
<path d="M193.313 72.7118C193.234 72.7122 193.156 72.7071 193.078 72.6963C191.75 72.5281 190.907 70.9942 191.135 69.2014C191.363 67.4086 192.576 66.1293 193.893 66.3064C195.21 66.4835 196.064 68.0085 195.836 69.8013C195.63 71.4856 194.537 72.7118 193.313 72.7118ZM193.667 67.6211C193.187 67.6211 192.585 68.3382 192.452 69.3719C192.317 70.4476 192.759 71.3196 193.246 71.3816C193.733 71.4436 194.382 70.7176 194.519 69.6353C194.654 68.5596 194.211 67.6875 193.724 67.6256L193.667 67.6211Z" fill="white"/>
<path d="M235.96 191.21C232.397 189.03 216.83 173.835 216.168 173.189L217.095 172.239C217.257 172.396 233.216 187.976 236.653 190.077L235.96 191.21Z" fill="#00A6FB"/>
<path d="M225.287 197.663C218.049 192.187 207.981 181.813 207.879 181.709L208.833 180.784C208.935 180.888 218.932 191.187 226.097 196.605L225.287 197.663Z" fill="#00A6FB"/>
<path d="M214.707 201.829C207.872 197.531 199.758 191.229 199.676 191.165L200.493 190.118C200.572 190.18 208.635 196.444 215.413 200.705L214.707 201.829Z" fill="#00A6FB"/>
<path d="M246.252 132.405C246.252 132.405 243.979 137.438 237.488 135.021C230.996 132.604 217.419 126.504 214.075 125.128C210.73 123.751 204.435 129.455 195.385 132.602C186.335 135.749 192.827 136.931 183.188 151.097C183.188 151.097 185.857 154.445 191.647 152.67C196.565 151.163 199.515 146.349 199.515 146.349C199.515 146.349 206.748 144.479 209.812 142.768C209.812 142.768 212.572 145.311 215.059 150.245C216.166 152.438 221.618 162.768 229.865 164.651L243.459 180.308C243.459 180.308 255.98 178.051 263.063 167.624L246.252 132.405Z" fill="white"/>
<path d="M229.717 165.3C221.528 163.428 215.972 153.532 214.467 150.544C212.563 146.768 210.483 144.408 209.691 143.585C206.729 145.081 201.198 146.593 199.934 146.927C199.259 147.939 196.375 151.916 191.842 153.306C185.689 155.192 182.787 151.661 182.668 151.511L183.706 150.683L183.188 151.097L183.704 150.681C183.803 150.803 186.2 153.647 191.45 152.036C196.061 150.621 198.92 146.06 198.949 146.002C199.039 145.856 199.182 145.751 199.348 145.708C199.421 145.69 206.532 143.84 209.487 142.188C209.609 142.12 209.75 142.092 209.889 142.108C210.028 142.124 210.159 142.184 210.262 142.279C210.377 142.388 213.139 144.962 215.649 149.946C217.09 152.804 222.384 162.261 230.012 164.005L229.717 165.3Z" fill="#00A6FB"/>
<path d="M213.741 140.34L209.543 142.175L210.075 143.392L214.273 141.557L213.741 140.34Z" fill="#00A6FB"/>
<path d="M231.125 165.379C230.674 165.384 230.224 165.361 229.777 165.309L229.954 163.994C230.001 163.994 234.824 164.592 240.045 161.604L240.709 162.757C237.794 164.442 234.492 165.345 231.125 165.379Z" fill="#00A6FB"/>
<path d="M175.341 166.976C172.229 164.652 169.035 164.722 163.316 172.148C157.169 180.116 166.33 184.543 170.142 181.247C175.341 176.743 179.695 170.225 175.341 166.976Z" fill="white"/>
<path d="M202.37 190.676C200.429 189.337 197.058 189.058 192.578 195.825C187.76 203.1 195.949 206.351 199.039 203.266C203.253 199.058 206.526 193.545 202.37 190.676Z" fill="white"/>
<path d="M194.832 182.343C192.561 180.616 188.71 180.01 182.723 187.781C176.284 196.138 185.879 200.764 189.87 197.311C195.315 192.601 199.223 185.674 194.832 182.343Z" fill="white"/>
<path d="M185.704 173.881C183.435 171.953 178.812 171.418 172.563 179.527C165.844 188.25 175.859 193.077 180.022 189.472C185.704 184.558 189.81 177.372 185.704 173.881Z" fill="white"/>
<path d="M170.136 175.61C169.545 175.619 168.969 175.42 168.509 175.047C168.179 174.788 167.908 174.461 167.714 174.089C167.52 173.716 167.408 173.307 167.385 172.887C167.164 169.921 170.678 166.044 170.829 165.88C170.938 165.756 171.09 165.677 171.254 165.659C171.356 165.659 173.755 165.437 175.459 166.891C176.431 167.717 176.975 168.883 177.079 170.38C177.091 170.547 177.039 170.712 176.933 170.842C176.065 171.899 175.102 172.875 174.056 173.757C172.374 175.149 171.095 175.61 170.136 175.61ZM171.626 166.978C170.619 168.135 168.567 170.917 168.709 172.783C168.72 173.021 168.783 173.254 168.892 173.465C169.001 173.677 169.155 173.862 169.342 174.009C170.313 174.791 171.98 173.748 173.208 172.737C174.118 171.97 174.963 171.129 175.734 170.222C175.619 169.231 175.242 168.452 174.612 167.918C173.607 167.057 172.192 166.978 171.626 166.982V166.978Z" fill="#D4DCFF"/>
<path d="M198.351 198.867C197.882 198.87 197.424 198.727 197.04 198.458C196.729 198.247 196.466 197.972 196.268 197.651C196.071 197.33 195.944 196.972 195.896 196.598C195.52 194.058 198.156 190.645 198.457 190.264C198.539 190.16 198.651 190.083 198.778 190.043C198.853 190.02 200.65 189.467 202.237 190.417C203.304 191.054 203.997 192.187 204.296 193.788C204.311 193.874 204.31 193.962 204.291 194.047C204.273 194.133 204.237 194.214 204.187 194.286C203.497 195.259 202.719 196.168 201.863 196.999C200.378 198.411 199.223 198.867 198.351 198.867ZM197.797 197.366C198.683 197.975 200.141 196.802 200.936 196.038C201.662 195.331 202.328 194.565 202.928 193.748C202.682 192.688 202.22 191.948 201.551 191.548C200.726 191.052 199.754 191.176 199.358 191.255C198.57 192.305 196.972 194.819 197.206 196.397C197.228 196.59 197.292 196.777 197.393 196.942C197.494 197.108 197.631 197.25 197.793 197.358L197.797 197.366Z" fill="#D4DCFF"/>
<path d="M189.567 191.672C188.955 191.681 188.36 191.475 187.884 191.09C187.541 190.821 187.26 190.482 187.059 190.095C186.857 189.709 186.741 189.283 186.718 188.848C186.481 185.749 190.158 181.706 190.315 181.544C190.403 181.447 190.519 181.378 190.647 181.347C190.742 181.323 192.964 180.8 194.755 182.075C195.939 182.919 196.629 184.317 196.811 186.23C196.827 186.402 196.775 186.573 196.667 186.708C195.756 187.813 194.746 188.833 193.65 189.755C191.897 191.183 190.565 191.672 189.567 191.672ZM188.717 190.057C189.748 190.887 191.503 189.793 192.791 188.729C193.754 187.92 194.646 187.032 195.458 186.073C195.284 184.707 194.794 183.726 193.991 183.153C192.953 182.407 191.632 182.518 191.149 182.591C190.109 183.775 187.889 186.754 188.05 188.746C188.061 188.999 188.126 189.247 188.241 189.472C188.355 189.698 188.517 189.896 188.714 190.054L188.717 190.057Z" fill="#D4DCFF"/>
<path d="M179.871 183.496C179.239 183.505 178.624 183.293 178.132 182.896C177.777 182.618 177.486 182.267 177.278 181.867C177.07 181.467 176.95 181.027 176.925 180.577C176.68 177.363 180.509 173.142 180.673 172.965C180.768 172.859 180.897 172.787 181.038 172.761C181.153 172.739 183.88 172.239 185.752 173.786C186.859 174.691 187.403 176.077 187.403 177.901C187.404 178.052 187.352 178.199 187.257 178.317C186.31 179.469 185.259 180.533 184.119 181.495C182.288 182.994 180.905 183.496 179.871 183.496ZM181.496 174.036C180.407 175.276 178.09 178.39 178.249 180.477C178.262 180.746 178.332 181.008 178.456 181.247C178.579 181.485 178.752 181.695 178.964 181.86C180.055 182.746 181.901 181.595 183.256 180.479C184.272 179.623 185.214 178.682 186.071 177.666C186.029 176.376 185.628 175.415 184.907 174.809C183.765 173.866 182.08 173.965 181.496 174.036Z" fill="#D4DCFF"/>
<path d="M111.77 159.532L126.032 174.605L124.855 176.754L134.906 182.192L164.945 122.176L154.567 119.801L131.791 165.533L111.77 159.532Z" fill="white"/>
<path d="M185.942 153.277C185.778 153.277 184.3 153.228 182.706 151.555C182.609 151.453 182.547 151.323 182.529 151.184C182.511 151.045 182.537 150.904 182.604 150.78L187.631 141.533C187.684 141.437 187.76 141.355 187.853 141.296C187.946 141.236 188.052 141.201 188.161 141.192C188.271 141.184 188.381 141.203 188.482 141.248C188.582 141.293 188.67 141.362 188.737 141.449C188.775 141.497 192.436 146.491 186.425 153.06C186.363 153.127 186.289 153.181 186.206 153.219C186.123 153.256 186.033 153.276 185.942 153.277ZM184.012 150.971C184.481 151.419 185.056 151.741 185.683 151.907C189.191 147.923 188.782 144.791 188.202 143.275L184.012 150.971Z" fill="#D4DCFF"/>
<path d="M250.572 126.603L240.375 132.505L261.196 176.754L269.695 178.538L263.064 181.679L266.802 188.97L281.264 182.193L250.572 126.603Z" fill="#00A6FB"/>
<path d="M245.754 124.915L281.265 185.738L300.445 176.754L273.852 110.816L245.754 124.915Z" fill="#001EAB"/>
<path d="M281.265 186.404C281.148 186.404 281.035 186.373 280.933 186.315C280.834 186.257 280.75 186.174 280.692 186.074L245.181 125.252C245.135 125.173 245.106 125.086 245.095 124.996C245.084 124.906 245.091 124.814 245.117 124.727C245.144 124.64 245.186 124.559 245.245 124.489C245.303 124.419 245.376 124.362 245.458 124.322L273.567 110.223C273.649 110.182 273.738 110.159 273.831 110.154C273.921 110.15 274.012 110.164 274.098 110.196C274.185 110.229 274.262 110.279 274.326 110.343C274.393 110.406 274.444 110.484 274.479 110.568L301.075 176.506C301.139 176.663 301.139 176.839 301.077 176.997C301.015 177.155 300.893 177.284 300.74 177.356L281.557 186.34C281.467 186.383 281.365 186.405 281.265 186.404ZM246.684 125.192L281.533 184.881L299.596 176.419L273.508 111.724L246.684 125.192Z" fill="#00A6FB"/>
<path d="M285.061 178.569C286.336 178.569 287.371 177.534 287.371 176.258C287.371 174.982 286.336 173.947 285.061 173.947C283.784 173.947 282.75 174.982 282.75 176.258C282.75 177.534 283.784 178.569 285.061 178.569Z" fill="#00A6FB"/>
<path d="M169.131 256.745L104.688 269.394L104.825 265.818C104.879 264.408 105.409 263.058 106.326 261.984C107.244 260.913 108.497 260.18 109.882 259.908L164.042 249.284C164.689 249.158 165.356 249.18 165.994 249.346C166.631 249.514 167.222 249.824 167.723 250.253C168.224 250.681 168.621 251.218 168.885 251.823C169.149 252.425 169.273 253.082 169.248 253.739L169.131 256.745Z" fill="#D4DCFF"/>
<path d="M142.492 251.918L134.621 253.509V199.166L142.492 198.378V251.918Z" fill="#D4DCFF"/>
<path d="M75.8672 164.713L121.608 182.836L126.035 174.604L111.772 159.532L131.794 165.532L157.907 113.094L77.6423 93.5566L75.8672 164.713Z" fill="#001EAB"/>
<path d="M84.6211 148.22L92.4209 158.879L105.322 156.051L97.5226 145.394L84.6211 148.22Z" fill="#00A6FB"/>
<path d="M99.772 148.016L86.8008 150.747L87.0743 152.046L100.046 149.315L99.772 148.016Z" fill="white"/>
<defs>
<linearGradient id="paint0_linear_7475_1683" x1="213.839" y1="108.069" x2="105.427" y2="355.934" gradientUnits="userSpaceOnUse">
<stop stop-color="#02040D"/>
<stop offset="1" stop-color="#3145A4"/>
</linearGradient>
</defs>
</svg>
