<svg width="332" height="333" viewBox="0 0 332 333" fill="none" xmlns="http://www.w3.org/2000/svg">
<path d="M225.546 29.2168L13.8242 140.609L97.4934 299.638L309.214 188.246L225.546 29.2168Z" fill="url(#paint0_linear_7475_1652)"/>
<path d="M96.9207 299.936L13.2435 140.912C13.1651 140.757 13.1504 140.578 13.2025 140.412C13.2547 140.247 13.3695 140.109 13.5224 140.027L225.239 28.6141C225.394 28.5355 225.573 28.5205 225.737 28.5723C225.903 28.6239 226.042 28.7383 226.124 28.8908L257.272 88.0643L256.097 88.6818L225.267 30.0971L14.7287 140.881L98.096 299.319L96.9207 299.936Z" fill="#00A6FB"/>
<path d="M99.9027 299.117L99.2852 297.942L100.263 297.429L100.883 298.602L99.9027 299.117ZM106.764 295.512L106.144 294.337L107.125 293.821L107.742 294.996L106.764 295.512ZM113.625 291.904L113.008 290.729L113.986 290.213L114.606 291.388L113.625 291.904ZM120.487 288.296L119.869 287.121L120.85 286.605L121.467 287.781L120.487 288.296ZM127.348 284.689L126.73 283.513L127.709 282.998L128.309 284.166L127.348 284.689ZM134.209 281.081L133.592 279.906L134.57 279.392L135.19 280.565L134.209 281.081ZM141.071 277.475L140.451 276.3L141.431 275.784L142.049 276.96L141.071 277.475ZM147.932 273.868L147.314 272.692L148.293 272.177L148.91 273.352L147.932 273.868ZM154.793 270.26L154.176 269.085L155.156 268.569L155.774 269.744L154.793 270.26ZM161.655 266.652L161.035 265.477L162.015 264.961L162.633 266.136L161.655 266.652ZM168.516 263.044L167.898 261.869L168.877 261.353L169.497 262.529L168.516 263.044ZM175.377 259.437L174.76 258.264L175.74 257.748L176.358 258.923L175.377 259.437ZM182.239 255.831L181.621 254.656L182.599 254.14L183.217 255.315L182.239 255.831ZM189.1 252.223L188.482 251.048L189.397 250.524L190.016 251.699L189.1 252.223ZM195.961 248.616L195.342 247.44L196.322 246.925L196.94 248.1L195.961 248.616ZM202.823 245.008L202.205 243.833L203.183 243.317L203.801 244.492L202.823 245.008ZM209.684 241.4L209.066 240.225L210.045 239.711L210.665 240.887L209.684 241.4ZM216.545 237.795L215.926 236.619L216.906 236.104L217.524 237.279L216.545 237.795ZM223.407 234.187L222.789 233.012L223.767 232.496L224.387 233.671L223.407 234.187ZM230.268 230.579L229.65 229.404L230.631 228.888L231.249 230.064L230.268 230.579ZM237.129 226.972L236.512 225.796L237.49 225.281L238.108 226.456L237.129 226.972ZM243.991 223.364L243.373 222.189L244.351 221.674L244.971 222.85L243.991 223.364ZM250.852 219.757L250.232 218.582L251.213 218.066L251.83 219.242L250.852 219.757ZM257.713 216.15L257.096 214.974L258.074 214.459L258.692 215.634L257.713 216.15ZM264.575 212.542L263.957 211.367L264.938 210.851L265.555 212.026L264.575 212.542ZM271.436 208.934L270.816 207.759L271.797 207.243L272.414 208.418L271.436 208.934ZM278.297 205.326L277.68 204.151L278.658 203.638L279.278 204.813L278.297 205.326ZM285.159 201.721L284.539 200.546L285.519 200.03L286.137 201.205L285.159 201.721ZM292.02 198.113L291.402 196.938L292.381 196.422L292.998 197.598L292.02 198.113ZM298.881 194.505L298.264 193.33L299.242 192.814L299.862 193.99L298.881 194.505ZM305.743 190.898L305.123 189.722L306.103 189.207L306.721 190.382L305.743 190.898ZM307.292 185.643L306.776 184.663L307.952 184.045L308.467 185.024L307.292 185.643ZM303.684 178.782L303.169 177.804L304.346 177.184L304.86 178.164L303.684 178.782ZM300.079 171.921L299.563 170.94L300.738 170.323L301.254 171.301L300.079 171.921ZM296.301 165.088L295.785 164.108L296.96 163.49L297.476 164.468L296.301 165.088ZM292.693 158.227L292.177 157.248L293.352 156.629L293.868 157.609L292.693 158.227ZM289.085 151.365L288.569 150.385L289.745 149.767L290.26 150.746L289.085 151.365ZM285.477 144.504L284.962 143.526L286.139 142.908L286.653 143.887L285.477 144.504ZM281.872 137.643L281.356 136.664L282.531 136.045L283.047 137.025L281.872 137.643ZM278.264 130.781L277.748 129.801L278.924 129.183L279.439 130.162L278.264 130.781ZM274.656 123.92L274.141 122.942L275.316 122.322L275.832 123.303L274.656 123.92ZM271.049 117.059L270.533 116.078L271.708 115.461L272.224 116.439L271.049 117.059ZM267.441 110.197L266.925 109.217L268.103 108.599L268.616 109.578L267.441 110.197ZM263.835 103.336L263.32 102.358L264.495 101.738L265.008 102.719L263.835 103.336ZM260.228 96.4747L259.712 95.4942L260.887 94.9254L261.403 95.9037L260.228 96.4747ZM256.62 89.6134L256.104 88.6351L257.28 88.0176L257.795 88.9959L256.62 89.6134Z" fill="#00A6FB"/>
<path d="M260.262 53.7817L279.739 51.3604L276.789 118.674L260.262 53.7817Z" fill="#00A6FB"/>
<path d="M237.54 59.0693C210.683 74.4077 174.355 82.2274 140.175 88.728C138.471 89.0483 136.888 89.8287 135.596 90.9847C134.304 92.1407 133.353 93.6283 132.847 95.2861C129.856 105.107 123.216 125.33 116.669 134.721C116.014 135.663 115.659 136.781 115.651 137.928C115.625 143.477 115.47 160.062 114.578 166.954C114.514 167.444 114.522 167.942 114.6 168.43C115.071 171.418 116.813 182.56 117.92 191.67C117.97 192.087 118.124 192.485 118.367 192.827C118.611 193.169 118.937 193.445 119.314 193.628C119.692 193.812 120.11 193.898 120.529 193.878C120.949 193.859 121.357 193.734 121.716 193.516C123.825 192.215 127.185 188.899 127.752 185.163L129.19 197.558C129.363 199.01 131.625 198.87 132.86 198.098C135.337 196.548 138.07 194.384 138.679 188.899C138.679 188.899 145.097 189.444 147.581 180.415C147.581 180.415 151.343 180.415 159.048 167.968C159.323 167.525 159.535 167.045 159.887 166.659C161.627 164.758 166.994 158.771 168.818 155.4C169.109 154.86 169.475 154.364 169.904 153.926C172.051 151.731 178.315 145.177 180.584 141.288C183.328 136.567 194.023 134.978 201.832 133.617C206.712 132.764 219.342 129.484 225.047 118.466C225.047 118.466 231.147 112.76 244.919 114.336L237.54 59.0693Z" fill="#D4DCFF"/>
<path d="M297.349 218.257C292.307 218.257 287.378 216.762 283.186 213.961C278.994 211.16 275.727 207.179 273.797 202.521C271.867 197.864 271.362 192.739 272.345 187.793C273.327 182.848 275.755 178.306 279.319 174.74C282.885 171.175 287.424 168.746 292.369 167.761C297.313 166.777 302.439 167.28 307.098 169.209C311.758 171.137 315.739 174.403 318.541 178.594C321.343 182.785 322.84 187.713 322.842 192.755C322.835 199.515 320.148 205.997 315.37 210.778C310.589 215.559 304.108 218.249 297.349 218.257ZM297.349 168.599C292.568 168.599 287.896 170.016 283.923 172.672C279.948 175.327 276.851 179.102 275.023 183.518C273.192 187.934 272.714 192.793 273.648 197.481C274.582 202.169 276.884 206.475 280.264 209.854C283.646 213.233 287.951 215.534 292.639 216.466C297.329 217.397 302.187 216.917 306.603 215.087C311.018 213.257 314.792 210.158 317.446 206.183C320.1 202.208 321.516 197.535 321.514 192.755C321.505 186.35 318.955 180.209 314.425 175.681C309.896 171.153 303.754 168.605 297.349 168.599Z" fill="#00A6FB"/>
<path d="M140.526 304.27L139.902 303.356L141.009 302.608L141.633 303.524L140.526 304.27ZM136.164 297.869L135.542 296.953L136.649 296.207L137.27 297.121L136.164 297.869ZM131.804 291.47L131.179 290.556L132.286 289.808L132.91 290.722L131.804 291.47ZM127.443 285.067L126.819 284.153L127.926 283.405L128.55 284.321L127.443 285.067ZM123.081 278.666L122.459 277.75L123.566 277.004L124.187 277.918L123.081 278.666ZM118.721 272.263L118.099 271.349L119.205 270.601L119.829 271.515L118.721 272.263ZM114.362 265.856L113.738 264.941L114.845 264.193L115.469 265.107L114.362 265.856ZM110 259.452L109.378 258.538L110.485 257.79L111.107 258.706L110 259.452ZM105.64 253.051L105.018 252.135L106.124 251.389L106.746 252.303L105.64 253.051ZM101.279 246.648L100.655 245.734L101.762 244.986L102.386 245.9L101.279 246.648ZM96.917 240.245L96.2951 239.331L97.4017 238.583L98.0237 239.497L96.917 240.245ZM92.5567 233.842L91.9348 232.928L93.0415 232.18L93.6634 233.096L92.5567 233.842ZM88.1965 227.441L87.5723 226.527L88.679 225.779L89.3031 226.693L88.1965 227.441ZM83.8362 221.037L83.212 220.123L84.3187 219.375L84.9406 220.289L83.8362 221.037ZM79.4737 214.634L78.8518 213.72L79.9584 212.971L80.5804 213.886L79.4737 214.634ZM75.1134 208.233L74.4893 207.316L75.596 206.571L76.2201 207.485L75.1134 208.233ZM70.7598 201.83L70.1357 200.915L71.2423 200.167L71.8643 201.081L70.7598 201.83ZM66.3973 195.426L65.7754 194.512L66.8821 193.764L67.504 194.678L66.3973 195.426ZM62.0371 189.023L61.4041 188.107L62.5107 187.359L63.1349 188.275L62.0371 189.023ZM57.6768 182.622L57.0372 181.706L58.1438 180.96L58.768 181.874L57.6768 182.622ZM53.3143 176.219L52.6924 175.305L53.799 174.557L54.421 175.471L53.3143 176.219ZM48.9541 169.816L48.3321 168.902L49.4388 168.154L50.043 169.072L48.9541 169.816ZM44.5938 163.413L43.9696 162.499L45.0763 161.751L45.7005 162.667L44.5938 163.413ZM40.2158 157.012L39.5939 156.095L40.7005 155.35L41.3225 156.264L40.2158 157.012ZM35.8556 150.609L35.2336 149.694L36.3403 148.946L36.9622 149.86L35.8556 150.609ZM31.4953 144.205L30.8711 143.291L31.9778 142.543L32.602 143.457L31.4953 144.205ZM27.1328 137.804L26.5109 136.888L27.6175 136.142L28.2395 137.056L27.1328 137.804ZM22.7725 131.401L22.1506 130.487L23.2573 129.739L23.8792 130.653L22.7725 131.401ZM18.4123 124.998L17.7881 124.084L18.8948 123.336L19.5189 124.25L18.4123 124.998ZM14.052 118.595L13.4345 117.681L14.5412 116.933L15.1631 117.849L14.052 118.595ZM9.69617 112.19L9.07422 111.273L10.1809 110.527L10.8028 111.441L9.69617 112.19Z" fill="#00A6FB"/>
<path d="M189.144 215.813C190.562 215.814 191.959 215.479 193.223 214.835C193.393 214.75 193.557 214.653 193.714 214.545C194.675 213.824 195.879 212.5 193.714 208.651C191.55 204.802 190.837 201.677 200.086 201.677C209.336 201.677 208.625 204.802 206.461 208.651C204.296 212.5 205.498 213.824 206.461 214.545C206.628 214.661 206.803 214.764 206.985 214.853C208.339 215.536 209.836 215.888 211.352 215.882H233.123V281.634H167.371V215.882L189.144 215.813Z" fill="#D4DCFF"/>
<path d="M233.125 282.298H167.371C167.195 282.298 167.026 282.227 166.902 282.103C166.777 281.977 166.707 281.809 166.707 281.634V215.882C166.707 215.706 166.777 215.537 166.902 215.412C167.026 215.288 167.195 215.218 167.371 215.218L189.144 215.149C190.456 215.15 191.75 214.839 192.92 214.244C193.059 214.177 193.192 214.1 193.318 214.012C193.922 213.569 195.184 212.613 193.136 208.976C192.03 207.002 191.127 204.955 192.065 203.35C193.004 201.745 195.547 201.013 200.089 201.013C204.63 201.013 207.171 201.754 208.114 203.35C209.057 204.946 208.152 207.002 207.043 208.976C204.995 212.613 206.257 213.558 206.861 214.014C206.998 214.107 207.142 214.189 207.291 214.259C208.551 214.894 209.943 215.222 211.354 215.218H233.127C233.304 215.218 233.472 215.288 233.596 215.412C233.72 215.537 233.791 215.706 233.791 215.882V281.634C233.791 281.721 233.773 281.807 233.74 281.889C233.707 281.968 233.658 282.041 233.596 282.103C233.534 282.165 233.461 282.214 233.379 282.247C233.3 282.281 233.213 282.298 233.125 282.298ZM168.035 280.97H232.461V216.546H211.352C209.731 216.549 208.132 216.17 206.684 215.439C206.468 215.333 206.26 215.21 206.062 215.072C204.863 214.171 203.537 212.491 205.883 208.321C206.755 206.772 207.567 205.045 206.965 204.016C206.301 202.91 203.999 202.336 200.086 202.336C196.173 202.336 193.862 202.901 193.209 204.016C192.607 205.045 193.42 206.77 194.292 208.321C196.638 212.491 195.312 214.171 194.113 215.072C193.927 215.204 193.731 215.321 193.526 215.421C192.169 216.112 190.668 216.472 189.146 216.473L168.035 216.539V280.97Z" fill="#00A6FB"/>
<path d="M101.617 215.882L124.255 215.95C125.673 215.949 127.071 216.283 128.334 216.927C128.505 217.011 128.67 217.109 128.826 217.219C129.786 217.94 130.99 219.262 128.826 223.111C126.661 226.96 125.948 230.088 135.2 230.088C144.452 230.088 143.737 226.96 141.572 223.111C139.408 219.262 140.612 217.94 141.572 217.219C141.852 217.032 142.149 216.87 142.458 216.736C143.665 216.172 144.981 215.881 146.313 215.882H167.371V236.788C167.365 238.302 167.717 239.798 168.4 241.152C168.488 241.334 168.591 241.511 168.708 241.677C169.429 242.64 170.753 243.842 174.602 241.677C178.451 239.512 181.576 238.8 181.576 248.051C181.576 257.303 178.449 256.59 174.602 254.426C170.755 252.261 169.429 253.463 168.708 254.426C168.598 254.581 168.501 254.744 168.418 254.917C167.773 256.179 167.438 257.577 167.44 258.996L167.371 281.634H101.617V215.882Z" fill="#00A6FB"/>
<path d="M101.617 282.298C101.441 282.298 101.272 282.227 101.148 282.103C101.023 281.977 100.953 281.809 100.953 281.634V215.882C100.953 215.706 101.023 215.537 101.148 215.412C101.272 215.288 101.441 215.218 101.617 215.218L124.255 215.286C125.778 215.286 127.279 215.647 128.635 216.338C128.84 216.438 129.036 216.555 129.222 216.687C130.421 217.588 131.747 219.266 129.401 223.437C128.529 224.986 127.717 226.715 128.319 227.742C128.972 228.848 131.285 229.422 135.198 229.422C139.111 229.422 141.422 228.857 142.075 227.742C142.677 226.715 141.853 224.988 140.992 223.437C138.646 219.266 139.972 217.588 141.172 216.687C141.486 216.471 141.821 216.286 142.172 216.134C143.468 215.532 144.88 215.219 146.309 215.218H167.366C167.543 215.218 167.711 215.288 167.836 215.412C167.96 215.537 168.03 215.706 168.03 215.882V236.788C168.026 238.197 168.353 239.59 168.987 240.851C169.058 241 169.141 241.143 169.234 241.281C169.688 241.885 170.633 243.144 174.27 241.099C176.246 239.992 178.294 239.089 179.898 240.028C181.503 240.966 182.236 243.509 182.236 248.051C182.236 252.593 181.492 255.134 179.898 256.077C178.305 257.02 176.246 256.114 174.27 255.003C170.633 252.958 169.688 254.218 169.234 254.824C169.151 254.95 169.077 255.081 169.013 255.22C168.42 256.391 168.11 257.684 168.11 258.998L168.041 281.636C168.041 281.811 167.972 281.979 167.847 282.106C167.723 282.23 167.554 282.3 167.377 282.3L101.617 282.298ZM102.281 216.548V280.97H166.707L166.773 258.994C166.773 257.469 167.134 255.968 167.825 254.612C167.925 254.406 168.042 254.211 168.174 254.027C169.075 252.825 170.755 251.502 174.925 253.846C176.474 254.731 178.201 255.53 179.23 254.93C180.337 254.266 180.91 251.962 180.91 248.051C180.91 244.14 180.343 241.825 179.23 241.174C178.201 240.572 176.476 241.396 174.925 242.257C170.755 244.601 169.075 243.277 168.174 242.075C168.034 241.878 167.911 241.67 167.807 241.453C167.076 240.006 166.697 238.408 166.7 236.788V216.546H146.311C145.076 216.546 143.856 216.816 142.736 217.336C142.469 217.45 142.213 217.588 141.971 217.75C141.366 218.204 140.105 219.149 142.152 222.786C143.259 224.76 144.162 226.81 143.223 228.412C142.285 230.015 139.74 230.75 135.2 230.75C130.66 230.75 128.117 230.008 127.174 228.412C126.232 226.817 127.135 224.76 128.246 222.786C130.293 219.149 129.031 218.204 128.427 217.75C128.3 217.666 128.167 217.592 128.029 217.528C126.859 216.934 125.565 216.624 124.253 216.625L102.281 216.548Z" fill="#00A6FB"/>
<path d="M160.14 176.537C163.987 178.702 165.311 177.498 166.032 176.537C166.123 176.401 166.204 176.259 166.274 176.11C167.002 174.653 167.381 173.045 167.38 171.416V150.128H233.132V215.882H211.264C209.932 215.881 208.616 215.59 207.408 215.027C207.1 214.893 206.803 214.731 206.523 214.545C205.56 213.823 204.358 212.5 206.523 208.651C208.688 204.802 209.4 201.676 200.149 201.676C190.897 201.676 191.607 204.802 193.777 208.651C195.946 212.5 194.739 213.823 193.777 214.545C193.62 214.654 193.456 214.751 193.285 214.835C192.022 215.479 190.624 215.814 189.206 215.813L167.369 215.882L167.301 193.861C167.302 192.443 166.967 191.045 166.322 189.782C166.238 189.611 166.141 189.447 166.032 189.291C165.311 188.328 163.987 187.126 160.14 189.291C156.294 191.455 153.164 192.168 153.164 182.916C153.164 173.665 156.292 174.384 160.14 176.537Z" fill="white"/>
<path d="M167.369 216.546C167.194 216.545 167.026 216.475 166.902 216.351C166.777 216.227 166.706 216.059 166.705 215.884L166.637 193.861C166.636 192.548 166.327 191.254 165.734 190.083C165.666 189.945 165.589 189.813 165.501 189.687C165.058 189.08 164.102 187.821 160.466 189.866C158.491 190.973 156.442 191.878 154.839 190.94C153.237 190.001 152.5 187.442 152.5 182.91C152.5 178.377 153.244 175.827 154.839 174.886C156.435 173.946 158.489 174.846 160.466 175.957C164.102 178.003 165.047 176.743 165.501 176.139C165.567 176.034 165.627 175.925 165.68 175.814C166.357 174.446 166.708 172.941 166.705 171.416V150.128C166.705 149.952 166.775 149.783 166.899 149.658C167.024 149.534 167.193 149.464 167.369 149.464H233.123C233.3 149.464 233.468 149.534 233.592 149.658C233.716 149.783 233.787 149.952 233.787 150.128V215.882C233.787 216.058 233.716 216.226 233.592 216.351C233.468 216.476 233.3 216.546 233.123 216.546H211.264C209.835 216.544 208.423 216.23 207.127 215.627C206.777 215.475 206.442 215.291 206.127 215.076C204.925 214.175 203.601 212.495 205.945 208.325C206.831 206.776 207.63 205.05 207.03 204.02C206.377 202.914 204.064 202.34 200.151 202.34C196.238 202.34 193.925 202.905 193.274 204.02C192.672 205.05 193.495 206.774 194.356 208.325C196.702 212.495 195.377 214.175 194.175 215.076C193.99 215.208 193.794 215.325 193.591 215.426C192.233 216.116 190.731 216.476 189.208 216.477L167.371 216.546H167.369ZM200.151 201.012C204.693 201.012 207.234 201.754 208.176 203.35C209.119 204.945 208.214 207.002 207.103 208.976C205.058 212.612 206.317 213.558 206.924 214.014C207.166 214.173 207.422 214.311 207.689 214.425C208.809 214.946 210.029 215.216 211.264 215.218H232.459V150.792H168.033V171.416C168.035 173.147 167.636 174.856 166.867 176.407C166.781 176.591 166.679 176.768 166.564 176.936C165.663 178.135 163.985 179.461 159.815 177.115C158.266 176.243 156.537 175.431 155.508 176.033C154.401 176.683 153.828 178.999 153.828 182.91C153.828 186.821 154.395 189.136 155.508 189.789C156.537 190.391 158.261 189.567 159.815 188.706C163.983 186.36 165.663 187.684 166.564 188.886C166.696 189.071 166.813 189.267 166.913 189.472C167.606 190.831 167.966 192.335 167.965 193.861L168.031 215.224L189.204 215.158C190.517 215.158 191.811 214.848 192.982 214.253C193.119 214.189 193.252 214.115 193.378 214.031C193.985 213.575 195.244 212.63 193.199 208.994C192.092 207.019 191.189 204.972 192.128 203.367C193.066 201.763 195.609 201.012 200.151 201.012Z" fill="#00A6FB"/>
<path d="M135.202 230.749C130.66 230.749 128.12 230.008 127.177 228.412C126.234 226.816 127.137 224.76 128.248 222.786C130.295 219.148 129.034 218.203 128.429 217.75C128.303 217.666 128.169 217.592 128.031 217.528C126.861 216.934 125.567 216.624 124.255 216.625L101.617 216.557C101.441 216.557 101.272 216.487 101.148 216.362C101.023 216.237 100.953 216.069 100.953 215.893V150.128C100.953 149.952 101.023 149.783 101.148 149.658C101.272 149.534 101.441 149.464 101.617 149.464H128.781V150.792H102.283V215.22L124.26 215.286C125.782 215.286 127.283 215.647 128.64 216.338C128.845 216.437 129.041 216.554 129.226 216.687C130.426 217.588 131.752 219.266 129.406 223.437C128.533 224.986 127.721 226.715 128.323 227.742C128.976 228.848 131.289 229.421 135.202 229.421C139.115 229.421 141.426 228.857 142.079 227.742C142.681 226.715 141.858 224.988 140.997 223.437C138.651 219.266 139.976 217.588 141.176 216.687C141.373 216.547 141.581 216.423 141.798 216.318C143.246 215.588 144.845 215.208 146.466 215.211H166.707V194.023C166.706 192.788 166.435 191.568 165.914 190.448C165.801 190.181 165.663 189.924 165.503 189.682C165.06 189.076 164.104 187.817 160.467 189.862C158.493 190.968 156.444 191.874 154.841 190.935C153.239 189.997 152.502 187.442 152.502 182.91C152.502 178.377 153.245 175.827 154.841 174.886C156.437 173.946 158.491 174.846 160.467 175.957C164.104 178.003 165.049 176.743 165.503 176.139C165.59 176.012 165.668 175.879 165.735 175.741C166.329 174.57 166.638 173.277 166.638 171.965L166.705 150.792H150.22V149.464H167.371C167.547 149.464 167.716 149.534 167.841 149.658C167.965 149.783 168.035 149.952 168.035 150.128L167.966 171.965C167.966 173.488 167.606 174.99 166.915 176.347C166.814 176.552 166.697 176.748 166.565 176.934C165.664 178.133 163.984 179.459 159.817 177.113C158.267 176.241 156.539 175.428 155.51 176.031C154.403 176.681 153.83 178.996 153.83 182.907C153.83 186.818 154.396 189.133 155.51 189.786C156.539 190.388 158.263 189.565 159.817 188.704C163.984 186.358 165.664 187.681 166.565 188.883C166.781 189.198 166.966 189.533 167.119 189.884C167.721 191.18 168.034 192.591 168.035 194.02V215.879C168.035 216.055 167.965 216.224 167.841 216.349C167.716 216.473 167.547 216.543 167.371 216.543H146.457C145.046 216.538 143.654 216.866 142.393 217.5C142.244 217.57 142.1 217.653 141.964 217.747C141.36 218.201 140.1 219.146 142.145 222.784C143.252 224.758 144.155 226.807 143.217 228.41C142.278 230.012 139.742 230.749 135.202 230.749Z" fill="#00A6FB"/>
<path d="M131.761 162.614C131.551 162.614 131.341 162.603 131.132 162.581C130.459 162.52 129.809 162.305 129.231 161.955C128.653 161.604 128.162 161.126 127.797 160.558L128.904 159.816C129.162 160.224 129.51 160.566 129.922 160.817C130.334 161.067 130.798 161.219 131.278 161.262C136.725 161.853 147.126 151.946 150.534 148.69C153.883 145.501 156.694 143.398 159.959 140.963C162.38 139.153 164.881 137.28 167.969 134.693C170.824 132.3 177.092 131.523 185.027 130.541C197.915 128.943 215.571 126.756 227.8 115.999L228.685 116.997C216.124 128.022 198.249 130.24 185.191 131.858C177.473 132.816 171.375 133.571 168.812 135.711C165.696 138.32 163.057 140.29 160.745 142.026C157.524 144.436 154.744 146.516 151.449 149.651C145.068 155.735 137.137 162.614 131.761 162.614Z" fill="#00A6FB"/>
<path d="M127.423 160.697C122.04 156.219 131.467 144.278 139.041 134.681C140.05 133.404 141.002 132.198 141.88 131.058C145.349 126.561 147.67 122.32 149.72 118.579C151.905 114.595 153.79 111.151 156.331 108.929C161.287 104.596 173.336 92.2695 174.638 88.1748L175.904 88.5776C174.472 93.0751 162 105.742 157.214 109.927C154.85 111.997 153.104 115.184 150.893 119.223C148.821 123.006 146.466 127.293 142.941 131.873C142.055 133.019 141.103 134.228 140.092 135.509C133.255 144.17 123.893 156.031 128.282 159.681L127.423 160.697Z" fill="white"/>
<path d="M128.452 187.222L127.124 187.071C127.124 186.987 128.074 178.484 126.162 172.523C126.128 172.419 126.12 172.308 126.139 172.2L128.131 161.552L129.437 161.795L127.487 172.28C129.415 178.493 128.492 186.861 128.452 187.222Z" fill="#00A6FB"/>
<path d="M138.44 179.291C138.382 178.405 138.192 175.946 138.03 175.307C137.994 175.158 138.011 175.002 138.077 174.864C138.139 174.736 144.361 161.87 144.916 154.041L146.244 154.134C145.702 161.763 140.215 173.485 139.383 175.24C139.582 176.332 139.759 178.906 139.779 179.224L138.44 179.291Z" fill="#00A6FB"/>
<path d="M147.785 174.98C147.785 174.962 147.785 173.127 147.666 171.54C147.655 171.398 147.691 171.256 147.768 171.135C147.845 171.014 155.532 158.867 157.918 149.958C157.952 149.83 158.024 149.715 158.124 149.628C158.438 149.354 165.89 142.895 170.793 139.757L171.508 140.877C167.066 143.719 160.249 149.549 159.146 150.498C156.791 159.077 150.021 170.049 149.005 171.662C149.109 173.236 149.113 174.905 149.113 174.982L147.785 174.98Z" fill="#00A6FB"/>
<path d="M116.648 182.561C116.648 182.561 121.232 183.337 121.715 193.528C120.584 194.246 119.289 194.665 117.952 194.747C116.775 188.74 116.648 182.561 116.648 182.561Z" fill="white"/>
<path d="M127.793 187.14C127.793 187.14 132.379 187.917 132.859 198.109C131.729 198.827 130.434 199.247 129.097 199.328C127.919 193.321 127.793 187.14 127.793 187.14Z" fill="white"/>
<path d="M233.12 54.1446C233.12 54.1446 223.95 61.7253 225.044 72.6548C226.617 88.3694 237.832 95.9501 237.832 95.9501C237.832 95.9501 227.979 96.8089 226.323 106.698C224.953 114.872 232.538 124.405 243.472 121.167C261.573 115.788 276.787 118.674 276.787 118.674L267.745 48.4453L233.12 54.1446Z" fill="#001EAB"/>
<path d="M239.138 122.486C235.873 122.508 232.717 121.312 230.285 119.133C226.723 115.983 224.906 111.058 225.657 106.588C226.557 101.216 229.804 98.427 232.37 97.0326C233.587 96.3761 234.884 95.8814 236.23 95.5607C234.481 94.0818 232.892 92.4213 231.493 90.6073C227.48 85.4356 225.013 79.2352 224.373 72.7213C223.255 61.5661 232.301 53.95 232.686 53.6313C232.777 53.5561 232.885 53.5069 233.003 53.4897L267.628 47.7815C267.717 47.7669 267.805 47.77 267.894 47.791C267.98 47.8118 268.062 47.8501 268.133 47.9032C268.277 48.0103 268.37 48.1693 268.396 48.3459L277.444 118.584C277.458 118.687 277.446 118.793 277.411 118.891C277.376 118.99 277.318 119.078 277.243 119.15C277.168 119.223 277.075 119.276 276.973 119.305C276.873 119.335 276.767 119.34 276.663 119.321C276.512 119.292 261.391 116.532 243.66 121.798C242.195 122.244 240.67 122.476 239.138 122.486ZM233.414 54.769C232.308 55.7406 224.729 62.8521 225.705 72.5885C227.228 87.7963 238.1 95.3261 238.204 95.4014C238.317 95.4784 238.403 95.5884 238.452 95.7165C238.501 95.8449 238.507 95.9848 238.474 96.1174C238.439 96.2502 238.366 96.3688 238.259 96.4573C238.155 96.5459 238.027 96.5999 237.89 96.612C237.509 96.6475 228.527 97.5594 226.978 106.807C226.314 110.837 227.95 115.286 231.183 118.137C234.455 121.027 238.753 121.879 243.292 120.529C258.859 115.906 272.478 117.371 276.023 117.873L267.17 49.198L233.414 54.769Z" fill="#00A6FB"/>
<path d="M238.098 114.116C241.061 114.116 243.465 111.713 243.465 108.748C243.465 105.784 241.061 103.381 238.098 103.381C235.134 103.381 232.73 105.784 232.73 108.748C232.73 111.713 235.134 114.116 238.098 114.116Z" fill="#00A6FB"/>
<path d="M238.087 114.78C236.894 114.78 235.727 114.426 234.736 113.763C233.744 113.1 232.972 112.158 232.513 111.056C232.057 109.954 231.938 108.742 232.17 107.572C232.405 106.402 232.978 105.327 233.822 104.483C234.665 103.64 235.74 103.065 236.909 102.833C238.08 102.6 239.293 102.72 240.395 103.176C241.497 103.633 242.438 104.405 243.102 105.397C243.764 106.389 244.118 107.555 244.118 108.748C244.116 110.347 243.48 111.88 242.349 113.011C241.218 114.142 239.685 114.778 238.087 114.78ZM238.087 104.045C237.157 104.045 236.247 104.321 235.473 104.837C234.7 105.354 234.098 106.089 233.742 106.948C233.385 107.808 233.293 108.753 233.474 109.666C233.656 110.578 234.103 111.416 234.76 112.074C235.42 112.732 236.256 113.179 237.168 113.361C238.082 113.542 239.027 113.45 239.886 113.093C240.747 112.737 241.48 112.135 241.998 111.361C242.513 110.588 242.79 109.678 242.79 108.748C242.788 107.501 242.292 106.306 241.411 105.424C240.528 104.543 239.333 104.047 238.087 104.045Z" fill="#00A6FB"/>
<path d="M238.09 109.412C237.977 109.413 237.866 109.384 237.767 109.328C237.663 109.27 237.576 109.186 237.517 109.084C237.457 108.982 237.426 108.866 237.426 108.748V100.707H238.754V107.555L244.559 103.956L245.259 105.085L238.448 109.312C238.34 109.379 238.216 109.414 238.09 109.412Z" fill="white"/>
<path d="M101.618 119.67H73.5083C73.3999 119.67 73.293 119.644 73.1971 119.593C73.1013 119.542 73.0192 119.469 72.9583 119.379C72.8975 119.289 72.8594 119.186 72.8477 119.078C72.8359 118.97 72.8507 118.861 72.8908 118.761L86.9433 83.469C86.9926 83.3457 87.0776 83.2401 87.1876 83.1657C87.2974 83.0916 87.4271 83.0518 87.5597 83.0518C87.6923 83.0518 87.822 83.0916 87.9317 83.1657C88.0417 83.2401 88.1267 83.3457 88.1761 83.469L102.233 118.761C102.273 118.861 102.288 118.97 102.276 119.078C102.265 119.185 102.227 119.288 102.166 119.378C102.105 119.468 102.024 119.541 101.928 119.592C101.833 119.643 101.726 119.67 101.618 119.67ZM74.491 118.342H100.639L87.5652 85.5097L74.491 118.342Z" fill="#D4DCFF"/>
<path d="M139.105 179.254C139.28 182.837 139.304 186.071 138.629 189.462C139.485 189.256 140.316 188.959 141.108 188.576C141.035 182.176 139.988 179.967 139.105 179.254Z" fill="white"/>
<path d="M148.449 174.979C148.297 176.814 148.009 178.634 147.59 180.427C148.067 180.311 148.535 180.158 148.989 179.971C149.082 177.215 148.891 175.449 148.449 174.979Z" fill="white"/>
<path d="M125.958 158.043C125.807 157.523 125.776 156.976 125.868 156.443C125.96 155.909 126.171 155.404 126.487 154.964C128.775 151.759 135.072 144.727 139.202 148.917C143.235 153.012 136.65 159.513 134.012 161.828C133.663 162.137 133.251 162.367 132.805 162.503C132.359 162.639 131.889 162.678 131.427 162.616C129.672 162.374 126.951 161.436 125.958 158.043Z" fill="white"/>
<defs>
<linearGradient id="paint0_linear_7475_1652" x1="232.304" y1="102.104" x2="120.19" y2="382.099" gradientUnits="userSpaceOnUse">
<stop stop-color="#02040D"/>
<stop offset="1" stop-color="#3145A4"/>
</linearGradient>
</defs>
</svg>
