<svg width="332" height="333" viewBox="0 0 332 333" fill="none" xmlns="http://www.w3.org/2000/svg">
<path d="M192.337 20.6172L298.969 128.446L189.579 210.82L201.97 267.759L100.037 314.746L12.1211 101.331L192.337 20.6172Z" fill="url(#paint0_linear_7474_1553)"/>
<path d="M80.8572 317.698L80.0117 316.676L80.8639 315.969L81.7093 316.994L80.8572 317.698ZM86.8332 312.765L85.9877 311.74L86.8399 311.036L87.6876 312.059L86.8332 312.765ZM92.8092 307.829L91.9637 306.806L92.8159 306.1L93.6636 307.125L92.8092 307.829ZM98.7852 302.895L97.9397 301.871L98.7919 301.167L99.6396 302.189L98.7852 302.895ZM104.761 297.96L103.916 296.937L104.77 296.231L105.616 297.256L104.761 297.96ZM110.737 293.026L109.892 292.001L110.746 291.297L111.576 292.313L110.737 293.026ZM116.713 288.09L115.868 287.068L116.722 286.362L117.568 287.386L116.713 288.09ZM122.689 283.157L121.844 282.132L122.698 281.428L123.544 282.451L122.689 283.157ZM128.665 278.221L127.82 277.199L128.674 276.492L129.52 277.517L128.665 278.221ZM134.595 273.279L133.747 272.254L134.601 271.55L135.447 272.573L134.595 273.279ZM140.571 268.343L139.723 267.32L140.577 266.614L141.423 267.639L140.571 268.343ZM146.547 263.409L145.699 262.385L146.553 261.681L147.399 262.703L146.547 263.409ZM152.523 258.476L151.677 257.451L152.529 256.745L153.375 257.77L152.523 258.476ZM158.499 253.54L157.653 252.518L158.505 251.812L159.351 252.836L158.499 253.54ZM164.475 248.607L163.629 247.582L164.481 246.878L165.327 247.901L164.475 248.607ZM170.451 243.671L169.605 242.648L170.457 241.942L171.303 242.967L170.451 243.671ZM176.427 238.737L175.581 237.713L176.433 237.009L177.279 238.031L176.427 238.737ZM182.403 233.802L181.557 232.779L182.409 232.073L183.255 233.098L182.403 233.802ZM188.379 228.868L187.533 227.843L188.385 227.14L189.231 228.162L188.379 228.868ZM194.355 223.932L193.509 222.91L194.361 222.204L195.209 223.229L194.355 223.932ZM200.331 218.998L199.445 217.982L200.298 217.278L201.145 218.301L200.331 218.998ZM206.307 214.062L205.421 213.049L206.274 212.343L207.121 213.367L206.307 214.062ZM212.283 209.129L211.397 208.113L212.25 207.409L213.097 208.432L212.283 209.129ZM218.259 204.193L217.413 203.17L218.268 202.464L219.113 203.489L218.259 204.193ZM224.235 199.26L223.389 198.235L224.244 197.531L225.089 198.553L224.235 199.26ZM230.211 194.326L229.365 193.301L230.22 192.595L231.065 193.62L230.211 194.326ZM236.187 189.39L235.341 188.368L236.196 187.662L237.041 188.684L236.187 189.39ZM242.163 184.457L241.315 183.432L242.169 182.728L243.015 183.751L242.163 184.457ZM248.139 179.521L247.291 178.498L248.145 177.792L248.991 178.817L248.139 179.521ZM254.115 174.588L253.267 173.563L254.121 172.859L254.967 173.881L254.115 174.588ZM260.091 169.652L259.243 168.629L260.097 167.923L260.943 168.948L260.091 169.652ZM266.067 164.718L265.221 163.693L266.073 162.99L266.919 164.012L266.067 164.718ZM272.043 159.783L271.197 158.76L272.049 158.054L272.895 159.079L272.043 159.783ZM278.019 154.849L277.173 153.824L278.025 153.12L278.871 154.143L278.019 154.849ZM283.995 149.913L283.149 148.891L284.001 148.185L284.847 149.209L283.995 149.913ZM289.971 144.98L289.125 143.955L289.977 143.251L290.823 144.274L289.971 144.98ZM295.947 140.044L295.101 139.021L295.953 138.315L296.799 139.34L295.947 140.044ZM301.923 135.11L301.077 134.086L301.929 133.382L302.775 134.404L301.923 135.11ZM307.899 130.175L307.053 129.152L307.905 128.446L308.753 129.471L307.899 130.175ZM313.875 125.241L313.029 124.219L313.881 123.513L314.729 124.535L313.875 125.241ZM319.851 120.308L319.005 119.283L319.857 118.579L320.705 119.602L319.851 120.308Z" fill="#00A6FB"/>
<path d="M293.47 123.827L292.691 123.039L293.636 122.108L294.413 122.893L293.47 123.827ZM288.023 118.318L287.244 117.533L288.189 116.599L288.966 117.384L288.023 118.318ZM282.576 112.812L281.797 112.024L282.742 111.09L283.519 111.878L282.576 112.812ZM277.132 107.303L276.352 106.517L277.298 105.583L278.074 106.369L277.132 107.303ZM271.685 101.796L270.905 101.008L271.851 100.074L272.627 100.862L271.685 101.796ZM19.4641 98.7702L18.9219 97.5573L19.9312 97.1146L20.4756 98.3275L19.4641 98.7702ZM266.235 96.2868L265.456 95.4989L266.401 94.5671L267.178 95.3528L266.235 96.2868ZM26.5313 95.6029L25.9868 94.3922L26.9983 93.9496L27.5406 95.1625L26.5313 95.6029ZM33.6051 92.4489L33.0629 91.236L34.0721 90.7934L34.6144 92.004L33.6051 92.4489ZM260.788 90.7889L260.009 90.0032L260.954 89.0692L261.731 89.8549L260.788 90.7889ZM40.6745 89.2816L40.1322 88.0687L41.1415 87.6261L41.686 88.839L40.6745 89.2816ZM47.7572 86.1166L47.2127 84.9037L48.2242 84.461L48.7665 85.6717L47.7572 86.1166ZM255.352 85.2822L254.556 84.4809L255.498 83.5469L256.278 84.3348L255.352 85.2822ZM54.8155 82.9316L54.2732 81.7187L55.2825 81.276L55.8248 82.4889L54.8155 82.9316ZM61.8849 79.7643L61.3426 78.5536L62.3519 78.0999L62.8942 79.3128L61.8849 79.7643ZM249.892 79.7643L249.115 78.9764L250.058 78.0446L250.837 78.8303L249.892 79.7643ZM68.9543 76.6059L68.4142 75.393L69.4235 74.9503L69.968 76.161L68.9543 76.6059ZM244.445 74.2531L243.668 73.4674L244.611 72.5334L245.39 73.3213L244.445 74.2531ZM76.0259 73.4386L75.4814 72.2257L76.4929 71.783L77.0352 72.9959L76.0259 73.4386ZM83.0953 70.2735L82.553 69.0606L83.5623 68.618L84.1045 69.8287L83.0953 70.2735ZM238.998 68.7463L238.221 67.9584L239.164 67.0244L239.943 67.8123L238.998 68.7463ZM90.1646 67.1063L89.6224 65.8889L90.6317 65.4463L91.1739 66.657L90.1646 67.1063ZM97.234 63.939L96.6918 62.7283L97.701 62.2746L98.2455 63.4875L97.234 63.939ZM233.551 63.2329L232.774 62.4472L233.717 61.5132L234.496 62.2989L233.551 63.2329ZM104.306 60.7739L103.761 59.561L104.773 59.1183L105.315 60.329L104.306 60.7739ZM228.104 57.7306L227.327 56.9426L228.27 56.0086L229.049 56.7966L228.104 57.7306ZM111.375 57.6066L110.833 56.3937L111.842 55.9511L112.384 57.164L111.375 57.6066ZM118.436 54.4394L117.893 53.2287L118.903 52.7749L119.447 53.9878L118.436 54.4394ZM222.648 52.226L221.871 51.4381L222.814 50.5063L223.593 51.292L222.648 52.226ZM125.518 51.2809L124.974 50.068L125.983 49.6254L126.527 50.836L125.518 51.2809ZM132.588 48.1136L132.045 46.903L133.055 46.4492L133.597 47.6621L132.588 48.1136ZM217.212 46.7192L216.435 45.9335L217.378 44.9995L218.157 45.7852L217.212 46.7192ZM139.657 44.9486L139.115 43.7357L140.124 43.293L140.666 44.5037L139.657 44.9486ZM146.726 41.7813L146.184 40.5684L147.193 40.1257L147.738 41.3386L146.726 41.7813ZM211.765 41.2125L210.988 40.4245L211.931 39.4905L212.71 40.2784L211.765 41.2125ZM153.798 38.614L153.253 37.4033L154.265 36.9496L154.807 38.1625L153.798 38.614ZM206.318 35.7035L205.537 34.9023L206.482 33.9682L207.261 34.754L206.318 35.7035ZM160.865 35.4423L160.323 34.2383L161.332 33.7956L161.874 35.0063L160.865 35.4423ZM167.935 32.275L167.392 31.0643L168.402 30.6217L168.944 31.8346L167.935 32.275ZM200.869 30.1879L200.09 29.4021L201.035 28.4681L201.814 29.256L200.869 30.1879ZM175.004 29.11L174.462 27.8971L175.471 27.4544L176.015 28.6651L175.004 29.11ZM182.076 25.9427L181.531 24.7209L182.543 24.2783L183.085 25.4912L182.076 25.9427ZM195.422 24.6811L194.643 23.8931L195.588 22.9591L196.367 23.7471L195.422 24.6811ZM189.145 22.7754L188.598 21.5647L189.607 21.1221L190.15 22.335L189.145 22.7754Z" fill="#00A6FB"/>
<path d="M100.037 315.41C99.9535 315.41 99.8712 315.395 99.7933 315.366C99.7096 315.333 99.6337 315.282 99.5697 315.22C99.5057 315.156 99.4553 315.08 99.4214 314.998L11.5078 101.583L12.7362 101.081L100.384 313.856L201.206 267.376L188.931 210.962C188.905 210.839 188.916 210.711 188.96 210.594C189.004 210.476 189.081 210.374 189.181 210.298L298.57 127.924L299.37 128.987L190.319 211.101L202.618 267.624C202.65 267.77 202.631 267.925 202.564 268.06C202.497 268.195 202.385 268.304 202.248 268.368L100.313 315.357C100.226 315.392 100.132 315.412 100.037 315.41Z" fill="#00A6FB"/>
<path d="M77.0163 303.009C72.7993 303.009 68.6769 301.758 65.1708 299.414C61.6644 297.073 58.9316 293.742 57.3181 289.846C55.7044 285.951 55.2823 281.663 56.1052 277.527C56.9279 273.39 58.9589 269.592 61.9409 266.611C64.9229 263.629 68.7221 261.597 72.8582 260.776C76.9942 259.953 81.2812 260.376 85.1771 261.989C89.073 263.603 92.4028 266.336 94.7451 269.844C97.0877 273.35 98.3378 277.471 98.3374 281.69C98.331 287.341 96.0824 292.761 92.0854 296.758C88.0881 300.753 82.6687 303.002 77.0163 303.009ZM77.0163 261.695C73.0622 261.695 69.1969 262.866 65.9089 265.063C62.6213 267.259 60.0587 270.382 58.5454 274.036C57.0321 277.688 56.636 281.708 57.4073 285.588C58.1784 289.465 60.0826 293.027 62.8782 295.824C65.6741 298.62 69.2365 300.523 73.1145 301.296C76.9927 302.068 81.0125 301.672 84.6658 300.158C88.3192 298.646 91.4417 296.083 93.6389 292.797C95.8361 289.51 97.0089 285.643 97.0094 281.69C97.0041 276.389 94.8961 271.305 91.1478 267.558C87.3995 263.809 82.3175 261.699 77.0163 261.695Z" fill="#D4DCFF"/>
<path d="M243.56 77.2495C243.522 77.2502 243.482 77.2464 243.445 77.2385L222.033 73.4138C221.927 73.3943 221.825 73.349 221.741 73.2817C221.654 73.2144 221.588 73.1272 221.544 73.0278C221.499 72.9284 221.482 72.8198 221.49 72.7115C221.497 72.6033 221.533 72.4986 221.59 72.4068L237.048 47.6971C237.119 47.584 237.221 47.4946 237.342 47.4408C237.464 47.3868 237.599 47.3706 237.732 47.3945C237.863 47.4184 237.982 47.4811 238.077 47.5745C238.172 47.6679 238.237 47.7879 238.263 47.9184L244.213 76.4527C244.232 76.5495 244.23 76.6493 244.208 76.7451C244.184 76.841 244.14 76.9306 244.078 77.007C244.016 77.0835 243.936 77.1453 243.847 77.1876C243.759 77.2298 243.661 77.2517 243.562 77.2517L243.56 77.2495ZM223.235 72.2806L242.712 75.76L237.291 49.8042L223.235 72.2806Z" fill="#00A6FB"/>
<path d="M78.6638 128.93C81.9714 118.859 73.5506 107.048 59.8558 102.551C46.1608 98.0537 32.3777 102.572 29.0703 112.644C25.7629 122.715 34.1838 134.525 47.8786 139.023C61.5733 143.52 75.3564 139.001 78.6638 128.93Z" fill="#001EAB"/>
<path d="M61.2877 135.222C57.4084 135.194 53.5576 134.554 49.878 133.325C43.5102 131.233 38.0366 127.672 34.4665 123.294C30.8167 118.819 29.5729 114.016 30.9673 109.773C32.3617 105.53 36.2106 102.398 41.8126 100.959C47.2839 99.5517 53.8022 99.928 60.17 102.02C66.5377 104.111 72.0091 107.675 75.5792 112.05C79.2312 116.526 80.4729 121.329 79.0785 125.574C77.6841 129.819 73.8373 132.947 68.2331 134.385C65.9623 134.954 63.6287 135.235 61.2877 135.222ZM50.3605 131.846C62.8105 135.937 75.0303 132.902 77.5978 125.083C78.8217 121.357 77.6752 117.075 74.3707 113.024C70.9843 108.872 65.7653 105.486 59.6764 103.485C53.5875 101.484 47.3769 101.119 42.1911 102.453C37.127 103.755 33.6653 106.524 32.4524 110.249C29.8827 118.068 37.9238 127.756 50.3804 131.846H50.3605Z" fill="white"/>
<path d="M71.349 131.826L68.1445 138.505L69.5416 139.175L72.7458 132.496L71.349 131.826Z" fill="white"/>
<path d="M58.9818 133.79L55.7773 140.469L57.1742 141.139L60.3786 134.46L58.9818 133.79Z" fill="white"/>
<path d="M42.2709 128.865L39.0664 135.544L40.4632 136.215L43.6677 129.535L42.2709 128.865Z" fill="white"/>
<path d="M35.313 123.566L32.5508 129.324L33.9478 129.994L36.7099 124.237L35.313 123.566Z" fill="white"/>
<path d="M105.734 190.723C116.462 185.577 122.425 175.707 119.054 168.678C115.682 161.65 104.251 160.125 93.5236 165.272C82.7956 170.419 76.8322 180.289 80.204 187.317C83.576 194.345 95.0061 195.87 105.734 190.723Z" fill="#D4DCFF"/>
<path d="M93.1174 194.433C92.1167 194.435 91.117 194.37 90.125 194.238C85.0741 193.574 81.338 191.208 79.6072 187.598C77.8764 183.988 78.3744 179.602 81.0105 175.241C83.5912 170.967 87.9338 167.214 93.2369 164.668C98.5401 162.123 104.186 161.087 109.135 161.747C114.186 162.411 117.922 164.779 119.653 168.387C123.179 175.735 117.063 186.022 106.023 191.319C101.763 193.362 97.2807 194.433 93.1174 194.433ZM106.138 162.88C102.174 162.88 97.8938 163.907 93.8124 165.866C88.7394 168.3 84.5961 171.873 82.1459 175.927C79.7511 179.894 79.2686 183.833 80.8046 187.025C82.3407 190.217 85.7071 192.31 90.2998 192.924C94.9965 193.55 100.375 192.554 105.448 190.119C115.828 185.139 121.665 175.646 118.456 168.96C116.924 165.77 113.553 163.674 108.96 163.061C108.025 162.939 107.082 162.878 106.138 162.88Z" fill="#00A6FB"/>
<path d="M102.955 185.158C113.042 180.319 119.105 171.991 116.498 166.558C113.892 161.124 103.602 160.643 93.5152 165.482C83.4286 170.321 77.365 178.649 79.9718 184.082C82.5785 189.515 92.8685 189.997 102.955 185.158Z" fill="#D4DCFF"/>
<path d="M89.6331 189.154C89.2945 189.154 88.9691 189.154 88.6305 189.131C84.0334 188.91 80.7466 187.224 79.3765 184.364C78.0065 181.504 78.7413 177.883 81.4504 174.165C84.071 170.564 88.2542 167.266 93.2298 164.869C98.2053 162.472 103.398 161.281 107.838 161.489C112.433 161.71 115.719 163.397 117.092 166.254C118.464 169.112 117.727 172.737 115.018 176.456C112.397 180.057 108.212 183.355 103.236 185.752C98.6392 187.961 93.8495 189.154 89.6331 189.154ZM106.837 162.815C102.82 162.815 98.2341 163.961 93.8052 166.086C89.0244 168.381 85.0183 171.531 82.5172 174.957C80.1091 178.264 79.4186 181.405 80.5673 183.811C81.716 186.216 84.6 187.633 88.6858 187.823C92.9177 188.023 97.8844 186.867 102.665 184.574C107.446 182.279 111.452 179.129 113.953 175.703C116.361 172.396 117.052 169.256 115.903 166.85C114.754 164.444 111.87 163.016 107.785 162.833C107.473 162.81 107.147 162.804 106.837 162.804V162.815Z" fill="#00A6FB"/>
<path d="M102.881 185.096L101.766 185.817L105.173 191.088L106.289 190.367L102.881 185.096Z" fill="#00A6FB"/>
<path d="M88.295 188.172L87.1797 188.893L90.7423 194.404L91.8576 193.683L88.295 188.172Z" fill="#00A6FB"/>
<path d="M111.503 178.973L110.426 179.749L114.058 184.792L115.136 184.016L111.503 178.973Z" fill="#00A6FB"/>
<path d="M61.9163 110.687L38.9375 111.963L39.0112 113.289L61.99 112.013L61.9163 110.687Z" fill="white"/>
<path d="M65.1653 119.25L53.8125 120.137L53.9159 121.461L65.2689 120.574L65.1653 119.25Z" fill="white"/>
<path d="M69.6797 67.775C80.0157 64.6227 86.7203 56.5777 84.6551 49.8053C82.5898 43.0332 72.5366 40.0988 62.2006 43.2508C51.8646 46.403 45.1599 54.4482 47.2252 61.2204C49.2904 67.9925 59.3436 70.9272 69.6797 67.775Z" fill="#D4DCFF"/>
<path d="M61.4369 69.7117C59.3148 69.7257 57.2015 69.4386 55.1599 68.8596C50.6978 67.5559 47.6523 64.9132 46.5854 61.4162C45.5186 57.9191 46.5722 54.0281 49.5491 50.4557C52.4596 46.9631 56.8841 44.1809 62.0035 42.6205C67.123 41.0601 72.3486 40.8986 76.7133 42.1779C81.1776 43.4815 84.221 46.1242 85.2878 49.6213C86.3546 53.1184 85.3011 57.0094 82.3241 60.5817C79.4136 64.0744 74.9914 66.8565 69.8697 68.4191C67.1376 69.262 64.2961 69.6973 61.4369 69.7117ZM70.4363 42.6493C67.7082 42.6657 64.9971 43.0842 62.3909 43.891C57.5215 45.3783 53.3162 48.0122 50.5694 51.3079C47.8891 54.5238 46.9241 57.9766 47.8559 61.031C48.7877 64.0854 51.5123 66.4139 55.5317 67.5869C59.6508 68.7888 64.6064 68.6316 69.4757 67.1443C74.3451 65.6569 78.5504 63.023 81.2971 59.7274C83.9797 56.5114 84.9425 53.0586 84.0107 50.0042C83.0789 46.9498 80.3653 44.6214 76.3415 43.4483C74.4205 42.9047 72.4325 42.6358 70.4363 42.6493Z" fill="#00A6FB"/>
<path d="M68.2425 62.6802C77.9967 59.7336 84.6174 53.0861 83.0302 47.8323C81.4433 42.5785 72.2493 40.7082 62.4954 43.6546C52.7412 46.6012 46.1205 53.249 47.7076 58.5025C49.2946 63.7563 58.4886 65.6268 68.2425 62.6802Z" fill="#D4DCFF"/>
<path d="M59.0903 64.4299C57.6144 64.4381 56.1412 64.3002 54.6924 64.0182C50.5734 63.1904 47.831 61.2051 46.99 58.4296C46.1489 55.654 47.3065 52.4801 50.2657 49.4943C53.1187 46.617 57.3351 44.22 62.1402 42.757C66.9454 41.2939 71.7793 40.9243 75.7545 41.7233C79.8757 42.5489 82.6158 44.5343 83.4569 47.312C84.2979 50.0897 83.1403 53.2614 80.1833 56.2472C77.3281 59.1246 73.1117 61.5194 68.3066 62.9846C65.3219 63.9151 62.2166 64.402 59.0903 64.4299ZM71.3521 42.6485C68.3584 42.6777 65.3852 43.1461 62.5276 44.0385C57.9305 45.4395 53.9111 47.7126 51.2086 50.4394C48.6101 53.0622 47.5632 55.7669 48.2604 58.0533C48.9576 60.3397 51.3347 61.9997 54.9535 62.7279C58.7162 63.4826 63.3222 63.1263 67.9193 61.7252C72.5163 60.3242 76.538 58.0511 79.2405 55.322C81.8367 52.7015 82.8836 49.9968 82.1864 47.7104C81.4892 45.424 79.1121 43.7552 75.4977 43.0248C74.1316 42.7634 72.743 42.6374 71.3521 42.6485Z" fill="#00A6FB"/>
<path d="M70.3564 61.584L69.1094 62.0406L71.0438 67.3238L72.2908 66.8672L70.3564 61.584Z" fill="#00A6FB"/>
<path d="M64.1457 63.2686L62.8984 63.7252L64.8329 69.0086L66.0801 68.552L64.1457 63.2686Z" fill="#00A6FB"/>
<path d="M81.3173 54.8096L80.0703 55.2662L81.5572 59.3274L82.8042 58.8708L81.3173 54.8096Z" fill="#00A6FB"/>
<path d="M69.1162 47.1768L61.125 57.6556L62.181 58.4608L70.1722 47.982L69.1162 47.1768Z" fill="white"/>
<path d="M78.0587 47.3252L74.0273 52.4555L75.0714 53.2762L79.103 48.1457L78.0587 47.3252Z" fill="white"/>
<path d="M57.8774 53.4473L53.1719 59.5116L54.221 60.3256L58.9265 54.2613L57.8774 53.4473Z" fill="white"/>
<path d="M112.659 169.975L87.1602 174.668L87.4005 175.974L112.899 171.281L112.659 169.975Z" fill="white"/>
<path d="M98.1182 179.054L87.168 181.206L87.424 182.509L98.3743 180.357L98.1182 179.054Z" fill="white"/>
<path d="M258.934 101.331H155.644C154.178 101.331 152.988 102.52 152.988 103.987V248.446C152.988 249.911 154.178 251.102 155.644 251.102H258.934C260.401 251.102 261.59 249.911 261.59 248.446V103.987C261.59 102.52 260.401 101.331 258.934 101.331Z" fill="#ECEFFF"/>
<path d="M246.443 114.168H170.304C168.838 114.168 167.648 115.357 167.648 116.824V124.792C167.648 126.259 168.838 127.448 170.304 127.448H246.443C247.911 127.448 249.099 126.259 249.099 124.792V116.824C249.099 115.357 247.911 114.168 246.443 114.168Z" fill="white"/>
<path d="M246.443 128.112H170.304C169.424 128.112 168.579 127.762 167.957 127.14C167.334 126.517 166.984 125.672 166.984 124.792V116.824C166.984 115.943 167.334 115.099 167.957 114.476C168.579 113.854 169.424 113.504 170.304 113.504H246.443C247.324 113.504 248.167 113.854 248.791 114.476C249.413 115.099 249.763 115.943 249.763 116.824V124.792C249.763 125.672 249.413 126.517 248.791 127.14C248.167 127.762 247.324 128.112 246.443 128.112ZM170.304 114.832C169.776 114.832 169.269 115.042 168.896 115.415C168.522 115.789 168.312 116.296 168.312 116.824V124.792C168.312 125.32 168.522 125.827 168.896 126.2C169.269 126.574 169.776 126.784 170.304 126.784H246.443C246.972 126.784 247.479 126.574 247.851 126.2C248.225 125.827 248.435 125.32 248.435 124.792V116.824C248.435 116.296 248.225 115.789 247.851 115.415C247.479 115.042 246.972 114.832 246.443 114.832H170.304Z" fill="#00A6FB"/>
<path d="M175.028 141.098C170.442 141.098 166.984 139.48 166.984 137.335C166.984 135.19 170.442 133.572 175.028 133.572C179.614 133.572 183.069 135.19 183.069 137.335C183.069 139.48 179.611 141.098 175.028 141.098ZM175.028 134.9C170.867 134.9 168.312 136.317 168.312 137.335C168.312 138.353 170.867 139.77 175.028 139.77C179.189 139.77 181.741 138.351 181.741 137.335C181.741 136.319 179.186 134.9 175.028 134.9Z" fill="#00A6FB"/>
<path d="M191.035 139.697C192.217 139.697 193.175 138.738 193.175 137.556C193.175 136.374 192.217 135.416 191.035 135.416C189.853 135.416 188.895 136.374 188.895 137.556C188.895 138.738 189.853 139.697 191.035 139.697Z" fill="#00A6FB"/>
<path d="M191.031 140.359C190.476 140.359 189.934 140.194 189.473 139.886C189.011 139.578 188.652 139.14 188.44 138.627C188.228 138.115 188.172 137.55 188.281 137.006C188.389 136.462 188.656 135.963 189.049 135.571C189.441 135.179 189.941 134.912 190.485 134.804C191.029 134.696 191.593 134.752 192.105 134.964C192.618 135.177 193.056 135.536 193.364 135.998C193.672 136.459 193.836 137.002 193.835 137.557C193.834 138.3 193.538 139.012 193.013 139.538C192.487 140.063 191.774 140.358 191.031 140.359ZM191.031 136.08C190.739 136.08 190.453 136.167 190.211 136.329C189.968 136.491 189.779 136.722 189.667 136.991C189.555 137.261 189.526 137.558 189.583 137.845C189.64 138.131 189.781 138.394 189.987 138.6C190.193 138.807 190.457 138.947 190.743 139.005C191.029 139.061 191.326 139.032 191.596 138.92C191.866 138.809 192.096 138.62 192.258 138.377C192.421 138.134 192.507 137.849 192.507 137.557C192.507 137.165 192.352 136.789 192.075 136.513C191.798 136.236 191.422 136.08 191.031 136.08Z" fill="#00A6FB"/>
<path d="M248.457 229.041H166.121C165.945 229.041 165.776 228.97 165.652 228.846C165.527 228.72 165.457 228.552 165.457 228.377V148.696C165.457 148.52 165.527 148.351 165.652 148.227C165.776 148.102 165.945 148.032 166.121 148.032H248.457C248.634 148.032 248.802 148.102 248.926 148.227C249.05 148.351 249.121 148.52 249.121 148.696V228.377C249.121 228.552 249.05 228.72 248.926 228.846C248.802 228.97 248.634 229.041 248.457 229.041ZM166.785 227.713H247.793V149.36H166.785V227.713Z" fill="#D4DCFF"/>
<path d="M187.371 148.696H186.043V228.377H187.371V148.696Z" fill="#D4DCFF"/>
<path d="M207.953 148.696H206.625V228.377H207.953V148.696Z" fill="#D4DCFF"/>
<path d="M228.539 148.696H227.211V228.377H228.539V148.696Z" fill="#D4DCFF"/>
<path d="M249.096 167.288H165.48V168.616H249.096V167.288Z" fill="#D4DCFF"/>
<path d="M249.096 187.872H165.48V189.2H249.096V187.872Z" fill="#D4DCFF"/>
<path d="M249.096 208.456H165.48V209.784H249.096V208.456Z" fill="#D4DCFF"/>
<path d="M48.4582 171.766C48.4582 171.766 25.1451 196.517 18.0625 202.126C18.0625 202.126 49.6401 233.408 84.7569 247.868L111.022 214.224C111.022 214.224 75.3148 206.626 48.4582 171.766Z" fill="white"/>
<path d="M84.7539 248.531C84.6674 248.531 84.5817 248.514 84.5016 248.483C66.2903 240.984 49.0683 228.908 37.829 220.096C25.6557 210.554 17.6722 202.675 17.5925 202.597C17.5255 202.531 17.4732 202.452 17.4393 202.364C17.4053 202.276 17.3904 202.182 17.3955 202.088C17.4008 201.994 17.426 201.902 17.4695 201.819C17.513 201.735 17.5738 201.662 17.6478 201.603C24.611 196.092 47.7492 171.557 47.9705 171.312C48.0356 171.241 48.1157 171.186 48.2049 171.15C48.2941 171.114 48.3902 171.098 48.4862 171.104C48.5821 171.108 48.6759 171.134 48.7611 171.178C48.8463 171.222 48.9209 171.285 48.9798 171.36C60.0004 185.606 74.0285 197.244 90.0637 205.446C102.14 211.601 111.066 213.547 111.155 213.566C111.265 213.59 111.367 213.641 111.452 213.715C111.537 213.789 111.602 213.883 111.64 213.989C111.679 214.095 111.69 214.209 111.672 214.32C111.655 214.431 111.609 214.536 111.54 214.624L85.2785 248.268C85.2169 248.348 85.1377 248.414 85.047 248.461C84.956 248.505 84.8557 248.529 84.7539 248.531ZM19.0555 202.17C21.0232 204.067 28.3205 210.959 38.659 219.062C49.7257 227.744 66.6466 239.609 84.5392 247.062L109.862 214.624C107.164 213.932 99.3619 211.679 89.4993 206.656C73.5062 198.485 59.4838 186.929 48.4065 172.792C44.9095 176.487 26.1094 196.309 19.0555 202.17Z" fill="#00A6FB"/>
<path d="M48.1479 182.975C48.1479 182.975 34.1065 198.539 28.9141 202.651C28.9141 202.651 56.1381 227.986 81.9013 238.59L99.3467 217.602C99.3467 217.602 67.8422 208.539 48.1479 182.975Z" fill="#ECEFFF"/>
<path d="M81.9008 239.253C81.814 239.253 81.7281 239.236 81.6484 239.202C56.08 228.674 28.7343 203.39 28.4598 203.135C28.3881 203.071 28.3312 202.992 28.2929 202.904C28.2547 202.816 28.2361 202.72 28.2385 202.624C28.242 202.528 28.2662 202.434 28.3093 202.349C28.3525 202.263 28.4136 202.188 28.4886 202.128C33.5793 198.1 47.5033 182.684 47.645 182.529C47.7103 182.457 47.7904 182.4 47.8801 182.362C47.9695 182.325 48.0662 182.307 48.1634 182.311C48.2605 182.315 48.3555 182.34 48.4418 182.385C48.5283 182.429 48.6038 182.492 48.6631 182.569C58.7559 195.67 72.0359 204.322 81.4006 209.273C91.5664 214.645 99.4392 216.942 99.5189 216.964C99.6234 216.996 99.7185 217.053 99.7958 217.13C99.8728 217.207 99.9299 217.302 99.9616 217.407C99.9941 217.512 99.9996 217.624 99.9782 217.732C99.9565 217.841 99.9082 217.942 99.8376 218.026L82.3921 239.014C82.3319 239.085 82.2569 239.145 82.1721 239.187C82.0873 239.227 81.9948 239.249 81.9008 239.253ZM29.9273 202.673C33.9268 206.296 58.5103 228.083 81.7038 237.784L98.202 217.945C92.2114 215.939 86.398 213.437 80.8229 210.466C71.4826 205.532 58.2911 196.964 48.1098 184.01C45.5711 186.803 34.9095 198.467 29.9273 202.673Z" fill="#00A6FB"/>
<path d="M69.1261 217.629C70.8753 215.273 69.3234 211.159 65.6601 208.438C61.9966 205.717 57.6088 205.421 55.8596 207.776C54.1104 210.131 55.6624 214.246 59.3257 216.967C62.9892 219.688 67.3769 219.984 69.1261 217.629Z" fill="#ECEFFF"/>
<path d="M65.4336 219.869C63.3973 219.869 61.0401 219.072 58.9286 217.505C57.0561 216.112 55.6396 214.326 54.9446 212.474C54.2075 210.517 54.3448 208.711 55.3297 207.383C56.3146 206.055 58.0123 205.404 60.0862 205.55C62.0627 205.683 64.183 206.522 66.0622 207.914C70.0152 210.849 71.6309 215.389 69.6655 218.034C68.7447 219.273 67.2109 219.869 65.4336 219.869ZM59.5395 206.854C58.1384 206.854 57.0318 207.317 56.3921 208.182C55.6861 209.134 55.6108 210.493 56.1841 212.011C56.7949 213.629 58.0499 215.205 59.7254 216.438C63.0321 218.895 67.0958 219.26 68.5986 217.237C70.1015 215.214 68.6318 211.482 65.2676 208.974C63.5965 207.735 61.7262 206.982 60.0021 206.87C59.8405 206.859 59.69 206.854 59.5395 206.854Z" fill="#00A6FB"/>
<path d="M31.9446 205.505C33.024 204.052 32.5433 201.867 30.8711 200.625C29.199 199.383 26.9684 199.554 25.8889 201.008C24.8095 202.461 25.2902 204.646 26.9624 205.888C28.6346 207.13 30.8651 206.959 31.9446 205.505Z" fill="#ECEFFF"/>
<path d="M29.3883 207.385C28.3688 207.38 27.3779 207.047 26.5619 206.436C24.6008 204.977 24.0564 202.372 25.3534 200.626C26.6504 198.88 29.302 198.647 31.2652 200.106C33.2284 201.564 33.7707 204.169 32.4737 205.916C32.1107 206.386 31.6423 206.764 31.1065 207.019C30.5704 207.274 29.9819 207.4 29.3883 207.385ZM28.4343 200.46C28.0479 200.448 27.6641 200.527 27.3139 200.691C26.964 200.855 26.6577 201.1 26.4202 201.405C25.5592 202.563 25.9775 204.335 27.3542 205.358C28.7309 206.381 30.5481 206.268 31.4091 205.11C32.27 203.953 31.8517 202.18 30.4728 201.159C29.8856 200.714 29.1712 200.469 28.4343 200.46Z" fill="#00A6FB"/>
<path d="M85.5119 239.709C86.0455 237.979 84.8645 236.08 82.8741 235.464C80.8836 234.851 78.8374 235.756 78.304 237.485C77.7703 239.216 78.9516 241.115 80.942 241.73C82.9323 242.343 84.9785 241.438 85.5119 239.709Z" fill="#ECEFFF"/>
<path d="M82.2048 242.58C81.7103 242.578 81.2188 242.504 80.7462 242.358C79.6564 242.033 78.7208 241.327 78.1124 240.366C77.8151 239.915 77.6212 239.406 77.5446 238.872C77.4683 238.337 77.511 237.792 77.6699 237.279C77.8288 236.763 78.1 236.289 78.4638 235.891C78.8279 235.493 79.2755 235.181 79.7746 234.977C80.8206 234.539 81.987 234.483 83.0704 234.815C84.1539 235.15 85.0859 235.853 85.7041 236.805C86.0013 237.254 86.1952 237.764 86.2718 238.299C86.3482 238.833 86.3054 239.377 86.1465 239.893C85.9876 240.406 85.7165 240.88 85.3524 241.278C84.9885 241.677 84.541 241.989 84.0419 242.195C83.4631 242.449 82.8374 242.58 82.2048 242.58ZM81.6116 235.926C81.1648 235.924 80.7223 236.015 80.3124 236.194C79.9873 236.32 79.6951 236.52 79.4576 236.776C79.2201 237.033 79.0433 237.339 78.9404 237.673C78.8374 238.007 78.8111 238.359 78.8631 238.704C78.9154 239.049 79.0444 239.379 79.2411 239.669C79.6905 240.346 80.3607 240.847 81.138 241.086C81.9151 241.327 82.7513 241.289 83.504 240.982C83.8265 240.849 84.1162 240.647 84.3533 240.393C84.5903 240.138 84.7687 239.833 84.8763 239.503C84.9732 239.169 84.9965 238.817 84.9445 238.474C84.8927 238.129 84.7665 237.801 84.5753 237.511C84.1346 236.825 83.4611 236.32 82.6785 236.092C82.3332 235.982 81.9735 235.926 81.6116 235.926Z" fill="#00A6FB"/>
<path d="M102.176 218.944C102.71 217.214 101.528 215.314 99.538 214.7C97.5476 214.086 95.5016 214.991 94.9679 216.721C94.4345 218.451 95.6156 220.351 97.606 220.965C99.5965 221.579 101.642 220.674 102.176 218.944Z" fill="#ECEFFF"/>
<path d="M98.8685 221.814C98.374 221.812 97.8824 221.738 97.4099 221.592C96.3205 221.268 95.3851 220.56 94.776 219.6C94.4816 219.147 94.2895 218.635 94.2132 218.1C94.1368 217.565 94.1777 217.019 94.3333 216.502C94.9752 214.423 97.3966 213.321 99.7339 214.04C100.823 214.366 101.758 215.073 102.368 216.032C102.665 216.482 102.859 216.993 102.935 217.527C103.012 218.06 102.969 218.604 102.81 219.12C102.651 219.635 102.38 220.109 102.016 220.507C101.652 220.905 101.205 221.218 100.706 221.422C100.127 221.68 99.5015 221.812 98.8685 221.814ZM98.2775 215.163C97.0314 215.163 95.9358 215.827 95.6016 216.909C95.5049 217.243 95.4821 217.594 95.5343 217.938C95.5867 218.282 95.7131 218.611 95.9048 218.901C96.3543 219.579 97.0245 220.08 97.8014 220.319C98.5785 220.559 99.4145 220.522 100.168 220.216C100.49 220.083 100.78 219.883 101.016 219.627C101.254 219.372 101.432 219.068 101.54 218.737C101.637 218.403 101.66 218.052 101.608 217.708C101.556 217.364 101.43 217.036 101.239 216.745C100.798 216.058 100.125 215.554 99.3421 215.324C98.9971 215.218 98.6383 215.164 98.2775 215.163Z" fill="#00A6FB"/>
<path d="M51.2258 185.218C52.3053 183.765 51.8245 181.58 50.1524 180.338C48.4802 179.096 46.2496 179.267 45.1702 180.721C44.0907 182.174 44.5715 184.359 46.2436 185.601C47.9158 186.843 50.1464 186.671 51.2258 185.218Z" fill="#ECEFFF"/>
<path d="M48.6728 187.097C47.65 187.091 46.6567 186.755 45.8398 186.139C43.8765 184.683 43.3343 182.075 44.6313 180.329C45.9283 178.583 48.5799 178.35 50.5431 179.809C51.4612 180.477 52.1073 181.454 52.3625 182.56C52.4917 183.085 52.5046 183.632 52.4003 184.162C52.2958 184.692 52.0767 185.193 51.7582 185.63C51.3955 186.1 50.9269 186.477 50.3908 186.732C49.8548 186.987 49.2662 187.112 48.6728 187.097ZM47.7189 180.176C47.3324 180.164 46.9486 180.243 46.5985 180.408C46.2486 180.572 45.9422 180.816 45.7048 181.121C44.8438 182.279 45.2621 184.052 46.6388 185.074C48.0155 186.097 49.8326 185.984 50.6914 184.827C50.8968 184.543 51.0371 184.217 51.1031 183.873C51.1688 183.529 51.1582 183.174 51.0721 182.835C50.8853 182.041 50.4185 181.342 49.7574 180.865C49.1686 180.424 48.4544 180.182 47.7189 180.176Z" fill="#00A6FB"/>
<path d="M147.087 116.233C147.087 116.233 143.576 128.362 141.164 133.431C140.946 133.886 140.793 134.37 140.71 134.867C140.161 138.137 137.919 150.759 134.98 157.147C134.789 157.559 134.659 157.997 134.595 158.446C134.066 162.18 131.509 179.805 129.577 184.898C127.412 190.601 131.939 202.996 130.562 223.459C129.185 243.921 134.495 233.882 133.906 256.9L160.466 255.721C160.466 255.721 158.696 243.521 161.449 236.932C164.202 230.343 170.893 216.568 171.484 203.386C172.075 190.203 191.033 161.879 191.033 161.879C191.033 161.879 180.654 155.524 170.161 172.968C170.161 172.968 160.006 186.569 152.988 190.143V142.402L149.971 144.892L150.037 137.557C150.037 137.557 157.514 123.71 147.087 116.233Z" fill="#D4DCFF"/>
<path d="M195.289 199.849C195.289 199.849 203.036 211.456 205.535 221.367C205.812 222.457 206.269 223.495 206.887 224.436C208.505 226.91 211.699 232.667 212.996 241.166C214.766 252.773 226.57 250.608 230.308 264.774V270.283H266.507C266.507 270.283 264.934 260.447 266.507 256.117C268.081 251.788 273.984 229.754 274.376 228.378C274.768 227.001 273.787 206.932 273.269 204.309C272.751 201.686 269.595 198.275 266.581 198.931C266.581 198.931 266.581 194.471 263.956 191.848C261.078 188.971 255.957 190.144 255.957 190.144C255.957 190.144 254.748 186.217 252.282 183.847C248.462 180.175 242.708 181.487 242.708 181.487C242.708 181.487 242.044 169.445 242.044 160.775C242.044 152.105 242.307 141.187 236.798 140.926C231.289 140.665 230.764 153.599 231.026 160.775C231.287 167.951 229.452 196.571 228.927 200.374C228.403 204.176 225.125 222.147 223.418 222.672C221.712 223.196 214.631 213.096 214.631 213.096C214.631 213.096 208.863 196.306 195.289 199.849Z" fill="#D4DCFF"/>
<path d="M209.037 101.331H207.709V78.0907H140.84V76.7627H208.373C208.549 76.7627 208.718 76.8326 208.843 76.9572C208.967 77.0816 209.037 77.2507 209.037 77.4267V101.331Z" fill="#D4DCFF"/>
<path d="M153.29 190.734L152.688 189.552C159.343 186.161 169.108 173.262 169.611 172.596C173.736 165.748 178.342 161.662 183.3 160.449C188.012 159.296 191.244 161.228 191.379 161.312L190.688 162.445C190.659 162.428 187.749 160.712 183.579 161.748C178.982 162.888 174.659 166.779 170.731 173.309C170.72 173.328 170.708 173.346 170.695 173.364C170.277 173.924 160.366 187.131 153.29 190.734Z" fill="#00A6FB"/>
<path d="M153.007 188.419C152.323 187.795 148.88 184.595 148.382 183.034C147.912 181.558 147.56 162.596 147.496 158.809C147.494 158.711 147.511 158.614 147.545 158.522C148.926 154.885 149.198 144.972 149.2 144.872L150.75 144.914C150.75 145.326 150.473 154.952 149.048 158.927C149.198 167.539 149.55 181.45 149.862 182.567C150.135 183.422 152.478 185.836 154.054 187.275L153.007 188.419Z" fill="white"/>
<path d="M152.643 153.122L147.707 158.278L148.826 159.35L153.762 154.193L152.643 153.122Z" fill="white"/>
<path d="M152.426 168.829L148.066 173.483L149.197 174.542L153.557 169.888L152.426 168.829Z" fill="white"/>
<path d="M146.441 194.158L145.895 192.947C145.941 192.927 150.653 190.791 152.643 189.576L153.334 190.709C151.275 191.969 146.638 194.069 146.441 194.158Z" fill="#00A6FB"/>
<path d="M143.52 127.448C143.52 127.448 147.975 128.333 150.81 120.213C150.81 120.213 149.449 117.479 147.087 116.229L143.52 127.448Z" fill="white"/>
<path d="M183.474 174.158C183.474 174.158 178.241 167.99 185.846 160.108C185.846 160.108 189.093 159.763 191.406 161.385L183.474 174.158Z" fill="white"/>
<path d="M230.971 270.282H229.643V264.869C227.779 257.89 223.948 255.072 220.241 252.348C216.642 249.692 213.242 247.2 212.337 241.281C211.077 233.021 208.032 227.419 206.33 224.816C205.671 223.811 205.184 222.707 204.889 221.544C202.434 211.843 195.768 200.517 195.699 200.4L196.844 199.723C196.91 199.838 203.674 211.329 206.175 221.219C206.434 222.242 206.862 223.214 207.441 224.097C209.212 226.79 212.352 232.58 213.652 241.091C214.473 246.474 217.509 248.707 221.029 251.294C224.751 254.034 228.972 257.14 230.949 264.63C230.964 264.683 230.971 264.74 230.971 264.798V270.282Z" fill="#00A6FB"/>
<path d="M223.618 223.306L223.228 222.038C223.199 222.045 223.173 222.058 223.148 222.076C223.306 221.947 224.191 220.866 226.061 212.201C227.093 207.42 228.009 202.208 228.275 200.282C228.773 196.666 230.636 168.169 230.366 160.799C230.167 155.316 230.34 145.613 233.753 142.238C234.149 141.825 234.629 141.502 235.16 141.291C235.691 141.08 236.262 140.987 236.833 141.016L236.769 142.344C236.382 142.323 235.995 142.388 235.634 142.533C235.275 142.679 234.952 142.901 234.687 143.185C232.491 145.356 231.367 151.926 231.694 160.752C231.964 168.167 230.092 196.83 229.589 200.466C229.308 202.511 228.345 207.969 227.27 212.896C225.096 222.853 224.171 223.136 223.618 223.306Z" fill="#00A6FB"/>
<path d="M267.348 198.898L265.801 198.977L266.456 211.961L268.003 211.883L267.348 198.898Z" fill="white"/>
<path d="M256.725 190.144H255.176V206.277H256.725V190.144Z" fill="white"/>
<path d="M243.479 181.486H241.93V197.225H243.479V181.486Z" fill="white"/>
<path d="M243.313 203.649C242.441 202.691 240.329 202.562 239.59 202.591L239.523 201.042C239.869 201.029 242.945 200.944 244.459 202.607L243.313 203.649Z" fill="white"/>
<path d="M256.28 211.227C255.601 210.121 253.549 209.612 252.816 209.506L253.038 207.972C253.381 208.02 256.422 208.501 257.604 210.406L256.28 211.227Z" fill="white"/>
<path d="M268.303 218.167C267.584 217.091 265.514 216.65 264.777 216.571L264.939 215.021C265.284 215.057 268.341 215.429 269.587 217.297L268.303 218.167Z" fill="white"/>
<path d="M200.212 199.422C200.212 199.422 204.782 206.239 200.601 210.079L195.289 199.849C195.289 199.849 196.666 198.963 200.212 199.422Z" fill="#00A6FB"/>
<path d="M236.804 152.023C234.112 152.023 233.021 148.397 232.86 144.781C232.824 144.03 233.015 143.286 233.411 142.646C233.805 142.006 234.385 141.501 235.073 141.198L235.157 141.162C237.656 140.133 240.381 142.074 240.285 144.772C240.19 147.521 239.606 152.023 236.804 152.023Z" fill="white"/>
<path d="M85.2891 79.2931C85.2891 79.2931 110.605 101.991 116.386 108.934C116.386 108.934 148.869 76.4534 162.464 40.9848L126.198 15.7041C126.198 15.7041 119.478 51.5889 85.2891 79.2931Z" fill="white"/>
<path d="M116.386 109.598H116.355C116.262 109.594 116.172 109.571 116.089 109.529C116.006 109.488 115.933 109.43 115.874 109.359C110.193 102.533 85.109 80.0148 84.8456 79.7868C84.7741 79.7228 84.7175 79.644 84.6794 79.5559C84.6416 79.4678 84.623 79.3724 84.6252 79.2766C84.6276 79.1805 84.6506 79.0863 84.6929 79.0002C84.7352 78.9141 84.7956 78.8381 84.87 78.7775C98.8436 67.4111 110.137 53.1011 117.944 36.868C123.803 24.646 125.527 15.6732 125.544 15.5824C125.565 15.4735 125.612 15.3715 125.682 15.2856C125.752 15.1997 125.843 15.1327 125.945 15.0906C126.048 15.0486 126.159 15.0329 126.269 15.045C126.379 15.057 126.485 15.0965 126.576 15.1597L162.841 40.4359C162.963 40.5207 163.054 40.644 163.097 40.7861C163.141 40.9282 163.136 41.0807 163.083 41.2194C156.031 59.6145 143.827 77.1728 134.849 88.66C125.111 101.101 116.935 109.313 116.855 109.395C116.794 109.458 116.721 109.509 116.641 109.543C116.56 109.578 116.473 109.597 116.386 109.598ZM86.3086 79.3176C90.1045 82.7239 110.403 101.059 116.419 107.943C122.558 101.539 128.364 94.8255 133.816 87.8278C142.669 76.5155 154.636 59.2891 161.655 41.2283L126.636 16.8197C126.016 19.5045 123.957 27.3817 119.163 37.4037C111.383 53.5935 100.172 67.8959 86.3086 79.3176Z" fill="#00A6FB"/>
<path d="M96.5 79.3243C96.5 79.3243 112.403 92.9805 116.641 98.0712C116.641 98.0712 142.796 70.6369 152.763 44.6325L129.859 27.291C129.859 27.291 121.573 59.0103 96.5 79.3243Z" fill="#ECEFFF"/>
<path d="M116.642 98.735H116.62C116.526 98.7319 116.434 98.7091 116.35 98.6679C116.266 98.6268 116.191 98.5681 116.131 98.4959C111.977 93.5049 96.2267 79.9659 96.0673 79.8287C95.9934 79.7652 95.9345 79.6864 95.8945 79.5976C95.8544 79.5086 95.8345 79.4124 95.836 79.315C95.8376 79.2176 95.8604 79.1218 95.9031 79.0341C95.9456 78.9467 96.0071 78.8694 96.0828 78.8083C108.931 68.4057 117.253 54.9044 121.979 45.4246C127.1 35.1326 129.203 27.2023 129.225 27.1248C129.253 27.0192 129.306 26.9218 129.38 26.8417C129.454 26.7616 129.546 26.7007 129.65 26.6649C129.753 26.629 129.863 26.6191 129.971 26.6359C130.079 26.6529 130.181 26.6961 130.268 26.7618L153.171 44.1033C153.286 44.1898 153.37 44.3111 153.41 44.4492C153.45 44.5873 153.444 44.7348 153.393 44.8691C143.49 70.7009 117.393 98.2547 117.129 98.5292C117.067 98.5949 116.991 98.6471 116.907 98.6825C116.824 98.7179 116.733 98.7359 116.642 98.735ZM97.5325 79.3373C100.394 81.8096 112.362 92.2079 116.662 97.0772C120.31 93.1441 142.8 68.3238 151.965 44.8625L130.232 28.4063C128.374 34.452 126.014 40.3318 123.176 45.9846C118.473 55.4444 110.228 68.8395 97.5325 79.3373Z" fill="#00A6FB"/>
<path d="M130.211 67.309C132.84 63.5798 133.028 59.1861 130.631 57.4953C128.233 55.8048 124.158 57.4572 121.528 61.1865C118.898 64.9157 118.71 69.3094 121.108 71.0002C123.505 72.6909 127.581 71.0382 130.211 67.309Z" fill="#ECEFFF"/>
<path d="M123.321 72.3407C122.395 72.3553 121.488 72.0789 120.727 71.5506C118.034 69.6515 118.151 64.8353 120.988 60.8115C123.826 56.7876 128.323 55.0568 131.017 56.9603C133.711 58.8593 133.593 63.6777 130.756 67.7016C129.412 69.6072 127.657 71.0658 125.825 71.8117C125.032 72.147 124.182 72.3265 123.321 72.3407ZM128.439 57.5114C126.407 57.5114 123.855 59.0607 122.073 61.5773C119.658 65.0035 119.399 68.9875 121.493 70.466C122.46 71.1499 123.821 71.1898 125.324 70.5811C126.927 69.9304 128.472 68.6356 129.671 66.9358C132.044 63.5693 132.312 59.499 130.251 58.047C129.718 57.684 129.084 57.4968 128.439 57.5114Z" fill="#00A6FB"/>
<path d="M119.929 99.9373C121.13 98.235 120.904 96.0093 119.424 94.9659C117.945 93.9227 115.772 94.4568 114.572 96.1591C113.371 97.8616 113.598 100.087 115.077 101.13C116.557 102.174 118.729 101.64 119.929 99.9373Z" fill="#ECEFFF"/>
<path d="M116.791 102.334C116.042 102.335 115.31 102.103 114.698 101.67C112.927 100.417 112.622 97.77 114.034 95.7735C115.446 93.7771 118.035 93.1662 119.813 94.4212C120.25 94.7348 120.615 95.1401 120.88 95.6086C121.145 96.0772 121.305 96.598 121.349 97.1347C121.452 98.2657 121.143 99.3963 120.479 100.318C120.069 100.923 119.521 101.422 118.88 101.773C118.238 102.124 117.522 102.316 116.791 102.334ZM117.706 95.1051C117.191 95.1237 116.687 95.2642 116.237 95.515C115.787 95.7658 115.403 96.1199 115.116 96.5482C114.129 97.9492 114.284 99.7642 115.461 100.594C116.639 101.424 118.403 100.964 119.39 99.5628C119.868 98.903 120.093 98.0929 120.023 97.2808C119.999 96.932 119.898 96.5927 119.729 96.2868C119.559 95.9809 119.325 95.716 119.042 95.5101C118.65 95.2397 118.182 95.0982 117.706 95.1051Z" fill="#00A6FB"/>
<path d="M155.918 45.5215C156.483 43.5167 155.528 41.4935 153.785 41.0025C152.043 40.5119 150.173 41.7394 149.608 43.7442C149.043 45.7493 149.998 47.7725 151.74 48.2632C153.483 48.7539 155.354 47.5266 155.918 45.5215Z" fill="#ECEFFF"/>
<path d="M152.522 49.0321C152.198 49.0325 151.875 48.9878 151.564 48.8993C149.472 48.3105 148.308 45.9157 148.972 43.5629C149.636 41.2102 151.876 39.7737 153.97 40.3625C156.061 40.9512 157.225 43.346 156.561 45.701C155.999 47.6974 154.293 49.0321 152.522 49.0321ZM153.005 41.5577C151.809 41.5577 150.647 42.5116 150.249 43.9215C149.784 45.5704 150.537 47.2304 151.924 47.6222C153.312 48.014 154.819 46.9892 155.284 45.3402C155.749 43.6913 154.997 42.0313 153.609 41.6418C153.412 41.5855 153.209 41.5572 153.005 41.5577Z" fill="#00A6FB"/>
<path d="M133.258 28.9473C133.823 26.9425 132.868 24.9192 131.125 24.4283C129.383 23.9376 127.512 25.1651 126.948 27.17C126.383 29.175 127.338 31.1983 129.08 31.6889C130.823 32.1799 132.693 30.9523 133.258 28.9473Z" fill="#ECEFFF"/>
<path d="M129.858 32.4671C129.534 32.4673 129.212 32.4232 128.9 32.3365C126.808 31.7455 125.644 29.3507 126.308 26.9979C126.604 25.9014 127.286 24.949 128.229 24.3153C128.672 24.007 129.177 23.8005 129.709 23.7109C130.241 23.6212 130.786 23.6507 131.305 23.797C131.824 23.9431 132.305 24.2027 132.711 24.5568C133.118 24.911 133.442 25.3507 133.658 25.8448C134.132 26.8773 134.217 28.0459 133.897 29.136C133.335 31.1258 131.637 32.4671 129.858 32.4671ZM130.34 24.9926C129.846 25.0024 129.365 25.1562 128.957 25.4353C128.282 25.893 127.795 26.5791 127.585 27.3675C127.12 29.0165 127.873 30.6743 129.26 31.066C130.648 31.4578 132.155 30.433 132.62 28.7841C132.852 28.0021 132.794 27.1628 132.456 26.4202C132.315 26.1028 132.107 25.8197 131.846 25.5904C131.585 25.3611 131.278 25.1912 130.945 25.0922C130.749 25.0294 130.546 24.9935 130.34 24.986V24.9926Z" fill="#00A6FB"/>
<path d="M99.1756 81.159C100.376 79.4568 100.15 77.231 98.6703 76.1877C97.1907 75.1443 95.0183 75.6786 93.8178 77.3809C92.6175 79.0831 92.8437 81.3089 94.3233 82.3522C95.8027 83.3956 97.9753 82.8613 99.1756 81.159Z" fill="#ECEFFF"/>
<path d="M96.0381 83.558C95.2873 83.5605 94.5545 83.3283 93.942 82.894C93.5047 82.5797 93.1406 82.174 92.8754 81.705C92.6103 81.2362 92.45 80.7152 92.406 80.1783C92.3035 79.0472 92.6123 77.9173 93.2758 76.9955C94.6857 75.0035 97.2775 74.3904 99.0548 75.6454C100.826 76.8981 101.131 79.543 99.7188 81.5417C99.0737 82.4768 98.1124 83.1472 97.0119 83.4296C96.6937 83.5111 96.3667 83.5543 96.0381 83.558ZM96.9522 76.3248C96.4369 76.3437 95.9336 76.4844 95.4832 76.7356C95.033 76.9869 94.649 77.3414 94.3626 77.7702C93.8821 78.4299 93.6563 79.2414 93.7273 80.0543C93.7477 80.4031 93.8464 80.7429 94.016 81.0481C94.1857 81.3535 94.4221 81.6167 94.7074 81.8181C94.9929 82.0195 95.3201 82.1539 95.6647 82.2114C96.0093 82.269 96.3623 82.2482 96.6976 82.1503C97.4871 81.9445 98.1757 81.4604 98.6365 80.7869C99.6214 79.3903 99.4687 77.571 98.2934 76.7343C97.8999 76.4616 97.4309 76.3187 96.9522 76.3248Z" fill="#00A6FB"/>
<path d="M130.367 253.561V265.955L154.96 271.661V264.775H160.01V271.661L167.649 266.741V254.543L130.367 253.561Z" fill="#00A6FB"/>
<path d="M226.18 261.154V273.549L255.442 279.255H260.818L268.948 274.337V262.139L226.18 261.154Z" fill="#00A6FB"/>
<path d="M261.588 274.23H251.539V275.78H261.588V274.23Z" fill="white"/>
<path d="M261.588 270.887H251.539V272.436H261.588V270.887Z" fill="white"/>
<defs>
<linearGradient id="paint0_linear_7474_1553" x1="224.283" y1="99.8947" x2="92.3409" y2="394.089" gradientUnits="userSpaceOnUse">
<stop stop-color="#02040D"/>
<stop offset="1" stop-color="#3145A4"/>
</linearGradient>
</defs>
</svg>
