<svg xmlns="http://www.w3.org/2000/svg" width="224" height="225" viewBox="0 0 224 225" fill="none"><path d="M17.5 221H129.5C133.213 221 136.774 219.525 139.399 216.899C142.025 214.274 143.5 210.713 143.5 207V18C143.5 14.287 142.025 10.726 139.399 8.10051C136.774 5.475 133.213 4 129.5 4H17.5C13.787 4 10.226 5.475 7.60051 8.10051C4.975 10.726 3.5 14.287 3.5 18V207C3.5 210.713 4.975 214.274 7.60051 216.899C10.226 219.525 13.787 221 17.5 221Z" fill="#C2DDE7" stroke="#231F20" stroke-width="3.5" stroke-linecap="round" stroke-linejoin="round"></path><path d="M143.5 18H3.5V207H143.5V18Z" stroke="#231F20" stroke-width="3.5" stroke-linecap="round" stroke-linejoin="round"></path><path d="M31.5 4H129.5C133.213 4 136.774 5.475 139.399 8.10051C142.025 10.726 143.5 14.287 143.5 18V207C143.5 210.713 142.025 214.274 139.399 216.899C136.774 219.525 133.213 221 129.5 221H31.5C27.787 221 24.226 219.525 21.6005 216.899C18.975 214.274 17.5 210.713 17.5 207V18C17.5 14.287 18.975 10.726 21.6005 8.10051C24.226 5.475 27.787 4 31.5 4Z" fill="white" stroke="#231F20" stroke-width="3.5" stroke-linecap="round" stroke-linejoin="round"></path><path d="M38.5 147.5C38.5 148.428 38.8687 149.318 39.5251 149.975C40.1815 150.631 41.0717 151 42 151C42.9283 151 43.8185 150.631 44.4749 149.975C45.1313 149.318 45.5 148.428 45.5 147.5C45.5 146.572 45.1313 145.682 44.4749 145.025C43.8185 144.369 42.9283 144 42 144C41.0717 144 40.1815 144.369 39.5251 145.025C38.8687 145.682 38.5 146.572 38.5 147.5Z" fill="#C2DDE7" stroke="#C2DDE7" stroke-width="3.5" stroke-linecap="round" stroke-linejoin="round"></path><path d="M38.5 182.5C38.5 183.428 38.8687 184.318 39.5251 184.975C40.1815 185.631 41.0717 186 42 186C42.9283 186 43.8185 185.631 44.4749 184.975C45.1313 184.318 45.5 183.428 45.5 182.5C45.5 181.572 45.1313 180.682 44.4749 180.025C43.8185 179.369 42.9283 179 42 179C41.0717 179 40.1815 179.369 39.5251 180.025C38.8687 180.682 38.5 181.572 38.5 182.5Z" fill="#C2DDE7" stroke="#C2DDE7" stroke-width="3.5" stroke-linecap="round" stroke-linejoin="round"></path><path d="M38.5 165C38.5 165.928 38.8687 166.818 39.5251 167.475C40.1815 168.131 41.0717 168.5 42 168.5C42.9283 168.5 43.8185 168.131 44.4749 167.475C45.1313 166.818 45.5 165.928 45.5 165C45.5 164.072 45.1313 163.182 44.4749 162.525C43.8185 161.869 42.9283 161.5 42 161.5C41.0717 161.5 40.1815 161.869 39.5251 162.525C38.8687 163.182 38.5 164.072 38.5 165Z" fill="#C2DDE7" stroke="#C2DDE7" stroke-width="3.5" stroke-linecap="round" stroke-linejoin="round"></path><path d="M119 144H56C55.0717 144 54.1815 144.369 53.5251 145.025C52.8687 145.682 52.5 146.572 52.5 147.5C52.5 148.428 52.8687 149.318 53.5251 149.975C54.1815 150.631 55.0717 151 56 151H119C119.928 151 120.818 150.631 121.475 149.975C122.131 149.318 122.5 148.428 122.5 147.5C122.5 146.572 122.131 145.682 121.475 145.025C120.818 144.369 119.928 144 119 144Z" fill="#C2DDE7" stroke="#C2DDE7" stroke-width="3.5" stroke-linecap="round" stroke-linejoin="round"></path><path d="M119 179H56C55.0717 179 54.1815 179.369 53.5251 180.025C52.8687 180.682 52.5 181.572 52.5 182.5C52.5 183.428 52.8687 184.318 53.5251 184.975C54.1815 185.631 55.0717 186 56 186H119C119.928 186 120.818 185.631 121.475 184.975C122.131 184.318 122.5 183.428 122.5 182.5C122.5 181.572 122.131 180.682 121.475 180.025C120.818 179.369 119.928 179 119 179Z" fill="#C2DDE7" stroke="#C2DDE7" stroke-width="3.5" stroke-linecap="round" stroke-linejoin="round"></path><path d="M119 161.5H56C55.0717 161.5 54.1815 161.869 53.5251 162.525C52.8687 163.182 52.5 164.072 52.5 165C52.5 165.928 52.8687 166.818 53.5251 167.475C54.1815 168.131 55.0717 168.5 56 168.5H119C119.928 168.5 120.818 168.131 121.475 167.475C122.131 166.818 122.5 165.928 122.5 165C122.5 164.072 122.131 163.182 121.475 162.525C120.818 161.869 119.928 161.5 119 161.5Z" fill="#C2DDE7" stroke="#C2DDE7" stroke-width="3.5" stroke-linecap="round" stroke-linejoin="round"></path><path d="M133 25H28" stroke="#C2DDE7" stroke-width="3.5" stroke-linecap="round" stroke-linejoin="round"></path><path d="M133 207H28" stroke="#C2DDE7" stroke-width="3.5" stroke-linecap="round" stroke-linejoin="round"></path><path d="M99.9355 7.129C99.3543 8.2921 98.4606 9.27033 97.3547 9.95405C96.2487 10.6378 94.9742 11 93.674 11H67.326C66.0258 11 64.7513 10.6378 63.6453 9.95405C62.5394 9.27033 61.6457 8.2921 61.0645 7.129L59.5 4H101.5L99.9355 7.129Z" fill="#231F20" stroke="#231F20" stroke-width="3.5" stroke-linecap="round" stroke-linejoin="round"></path><path d="M94.8901 120.16C116.818 112.6 128.462 88.691 120.899 66.76C113.335 44.8325 89.4266 33.188 67.4991 40.755C45.5716 48.315 33.9271 72.2235 41.4906 94.151C49.0506 116.079 72.9626 127.727 94.8901 120.16Z" fill="#C2DDE7" stroke="#C2DDE7" stroke-width="3.5" stroke-linecap="round" stroke-linejoin="round"></path><path d="M81.1836 80.4568V34.2393" stroke="white" stroke-width="3.5" stroke-linecap="round" stroke-linejoin="round"></path><path d="M81.1931 80.4531L41.0586 105.555" stroke="white" stroke-width="3.5" stroke-linecap="round" stroke-linejoin="round"></path><path d="M81.1836 80.4561L125.49 96.7311" stroke="white" stroke-width="3.5" stroke-linecap="round" stroke-linejoin="round"></path><path d="M133 35.5H122.5" stroke="#C2DDE7" stroke-width="3.5" stroke-linecap="round" stroke-linejoin="round"></path><path d="M38.5 35.5H28" stroke="#C2DDE7" stroke-width="3.5" stroke-linecap="round" stroke-linejoin="round"></path><path d="M150.499 56.5H131.441C112.876 56.5 95.0715 63.875 81.9439 77.0025C68.8164 90.1301 61.4414 107.935 61.4414 126.5C61.4414 145.065 68.8164 162.87 81.9439 175.997C95.0715 189.125 112.876 196.5 131.441 196.5H150.499C169.064 196.5 186.869 189.125 199.996 175.997C213.124 162.87 220.499 145.065 220.499 126.5C220.499 107.935 213.124 90.1301 199.996 77.0025C186.869 63.875 169.064 56.5 150.499 56.5Z" fill="#C2DDE7" stroke="#231F20" stroke-width="3.5" stroke-linecap="round" stroke-linejoin="round"></path><path d="M61.4414 126.5H91.9894" stroke="#231F20" stroke-width="3.5" stroke-linecap="round" stroke-linejoin="round"></path><path d="M72.8984 91.5H103.443" stroke="#231F20" stroke-width="3.5" stroke-linecap="round" stroke-linejoin="round"></path><path d="M72.8984 161.5H103.443" stroke="#231F20" stroke-width="3.5" stroke-linecap="round" stroke-linejoin="round"></path><path d="M148.941 196.5C187.602 196.5 218.941 165.161 218.941 126.5C218.941 87.839 187.602 56.5 148.941 56.5C110.284 56.5 78.9414 87.839 78.9414 126.5C78.9414 165.161 110.284 196.5 148.941 196.5Z" fill="white" stroke="#231F20" stroke-width="3.5" stroke-linecap="round" stroke-linejoin="round"></path><path d="M148.941 182.5C179.871 182.5 204.941 157.429 204.941 126.5C204.941 95.5705 179.871 70.5 148.941 70.5C118.015 70.5 92.9414 95.5705 92.9414 126.5C92.9414 157.429 118.015 182.5 148.941 182.5Z" fill="#EA8D51" stroke="#231F20" stroke-width="3.5" stroke-linecap="round" stroke-linejoin="round"></path><path d="M171.509 140.891C171.509 145.381 169.899 149.231 166.686 152.448C163.469 155.601 159.346 157.603 154.31 158.454V166.007C154.31 167.221 153.886 168.25 153.036 169.101C152.62 169.519 152.123 169.848 151.575 170.067C151.028 170.286 150.441 170.391 149.851 170.375C149.288 170.39 148.729 170.285 148.211 170.065C147.692 169.845 147.228 169.516 146.848 169.101C146.064 168.264 145.639 167.153 145.665 166.007V158.727C142.147 158.422 138.931 157.666 136.019 156.452C133.166 155.237 130.436 153.417 127.829 150.992C126.555 149.9 125.918 148.657 125.918 147.261C125.918 146.169 126.341 145.196 127.192 144.349C128.042 143.439 129.043 142.984 130.195 142.984C131.227 142.984 132.106 143.316 132.834 143.985C134.899 145.805 136.929 147.261 138.931 148.353C140.996 149.385 143.236 150.05 145.665 150.355V129.334C139.841 128 135.35 125.904 132.197 123.055C129.103 120.143 127.556 116.198 127.556 111.225C127.556 106.43 129.225 102.457 132.561 99.3035C135.896 96.15 140.264 94.239 145.665 93.5705V88.9295C145.665 87.715 146.06 86.686 146.848 85.8355C147.698 84.985 148.759 84.5615 150.033 84.5615C151.247 84.5615 152.248 84.985 153.036 85.8355C153.886 86.686 154.31 87.715 154.31 88.9295V93.7525C157.041 94.1425 159.705 94.9081 162.227 96.0275C164.652 97.1195 166.654 98.453 168.233 100.032C169.629 101.246 170.326 102.552 170.326 103.945C170.326 105.037 169.902 106.01 169.052 106.857C168.687 107.266 168.237 107.591 167.735 107.811C167.232 108.031 166.688 108.14 166.14 108.131C165.375 108.161 164.628 107.901 164.047 107.403C162.955 106.37 161.527 105.401 159.77 104.491C158.043 103.57 156.209 102.867 154.31 102.398V122.6C160.134 124.115 164.442 126.24 167.232 128.97C170.084 131.64 171.509 135.613 171.509 140.891ZM136.201 110.861C136.201 113.286 136.988 115.26 138.567 116.776C140.205 118.232 142.571 119.446 145.665 120.416V102.034C142.69 102.52 140.355 103.549 138.658 105.128C137.869 105.858 137.243 106.745 136.82 107.733C136.397 108.72 136.186 109.786 136.201 110.861ZM154.31 149.9C156.858 149.172 158.891 148.048 160.407 146.533C161.982 145.017 162.773 143.257 162.773 141.255C162.713 138.948 161.985 137.037 160.589 135.522C159.192 133.947 157.099 132.641 154.31 131.609V149.9Z" fill="white"></path></svg>